<svg width="420" height="420" viewBox="0 0 420 420" fill="none" xmlns="http://www.w3.org/2000/svg">
<path d="M210 0.500305C325.704 0.500321 419.5 94.296 419.5 209.999C419.5 325.701 325.704 419.497 210 419.497C94.2963 419.497 0.500012 325.701 0.500026 209.999C0.50004 94.2959 94.2964 0.500288 210 0.500305Z" fill="#003E29" stroke="#003E29"/>
<mask id="mask0_5_2227" style="mask-type:alpha" maskUnits="userSpaceOnUse" x="101" y="100" width="216" height="216">
<rect x="102.486" y="315.06" width="214.525" height="213.996" transform="rotate(-90 102.486 315.06)" fill="white" stroke="#003E29"/>
</mask>
<g mask="url(#mask0_5_2227)">
<mask id="mask1_5_2227" style="mask-type:alpha" maskUnits="userSpaceOnUse" x="79" y="47" width="269" height="226">
<path d="M346.854 201.476L346.854 47.8144L80.4317 47.8144L80.4316 201.475L147.12 216.775L182.621 252.031L212.482 271.654L256.277 229.414L346.854 201.476Z" fill="#0DAB0C" stroke="#003E29"/>
</mask>
<g mask="url(#mask1_5_2227)">
<mask id="path-4-inside-1_5_2227" fill="white">
<path fill-rule="evenodd" clip-rule="evenodd" d="M316.988 315.562L316.988 100.037L101.992 100.037L101.992 315.562L191.239 315.562C191.238 303.815 188.93 292.183 184.446 281.331C179.961 270.477 173.388 260.615 165.101 252.308C156.814 244.001 146.977 237.411 136.149 232.916C125.322 228.42 113.718 226.106 101.999 226.106L101.999 189.566C118.505 189.566 134.849 192.825 150.098 199.157C165.348 205.489 179.204 214.77 190.875 226.47C198.025 233.638 204.27 241.628 209.488 250.258C214.705 241.628 220.95 233.638 228.1 226.47C239.771 214.77 253.627 205.489 268.877 199.157C284.126 192.825 300.47 189.566 316.976 189.566L316.976 226.106C305.257 226.106 293.653 228.42 282.826 232.915C271.999 237.411 262.161 244.001 253.874 252.308C245.587 260.615 239.014 270.477 234.529 281.331C230.045 292.183 227.737 303.815 227.736 315.562L316.988 315.562Z"/>
</mask>
<path fill-rule="evenodd" clip-rule="evenodd" d="M316.988 315.562L316.988 100.037L101.992 100.037L101.992 315.562L191.239 315.562C191.238 303.815 188.93 292.183 184.446 281.331C179.961 270.477 173.388 260.615 165.101 252.308C156.814 244.001 146.977 237.411 136.149 232.916C125.322 228.42 113.718 226.106 101.999 226.106L101.999 189.566C118.505 189.566 134.849 192.825 150.098 199.157C165.348 205.489 179.204 214.77 190.875 226.47C198.025 233.638 204.27 241.628 209.488 250.258C214.705 241.628 220.95 233.638 228.1 226.47C239.771 214.77 253.627 205.489 268.877 199.157C284.126 192.825 300.47 189.566 316.976 189.566L316.976 226.106C305.257 226.106 293.653 228.42 282.826 232.915C271.999 237.411 262.161 244.001 253.874 252.308C245.587 260.615 239.014 270.477 234.529 281.331C230.045 292.183 227.737 303.815 227.736 315.562L316.988 315.562Z" fill="#0DAB0C"/>
<path d="M316.988 100.037L317.988 100.037L317.988 99.0373L316.988 99.0373L316.988 100.037ZM316.988 315.562L316.988 316.562L317.988 316.562L317.988 315.562L316.988 315.562ZM101.992 100.037L101.992 99.0373L100.992 99.0373L100.992 100.037L101.992 100.037ZM101.992 315.562L100.992 315.562L100.992 316.562L101.992 316.562L101.992 315.562ZM191.239 315.562L191.239 316.562L192.239 316.562L192.239 315.562L191.239 315.562ZM184.446 281.331L185.37 280.949L184.446 281.331ZM165.101 252.308L165.809 251.602L165.101 252.308ZM101.999 226.106L100.999 226.106L100.999 227.106L101.999 227.106L101.999 226.106ZM101.999 189.566L101.999 188.566L100.999 188.566L100.999 189.566L101.999 189.566ZM150.098 199.157L149.715 200.081L150.098 199.157ZM190.875 226.47L190.167 227.177L190.875 226.47ZM209.488 250.258L208.632 250.775L209.488 252.191L210.343 250.775L209.488 250.258ZM228.1 226.47L228.808 227.177L228.1 226.47ZM268.877 199.157L268.493 198.234L268.877 199.157ZM316.976 189.566L317.976 189.566L317.976 188.566L316.976 188.566L316.976 189.566ZM316.976 226.106L316.976 227.106L317.976 227.106L317.976 226.106L316.976 226.106ZM282.826 232.915L282.442 231.992L282.826 232.915ZM234.529 281.331L233.605 280.949L234.529 281.331ZM227.736 315.562L226.736 315.562L226.736 316.562L227.736 316.562L227.736 315.562ZM315.988 100.037L315.988 315.562L317.988 315.562L317.988 100.037L315.988 100.037ZM101.992 101.037L316.988 101.037L316.988 99.0373L101.992 99.0373L101.992 101.037ZM102.992 315.562L102.992 100.037L100.992 100.037L100.992 315.562L102.992 315.562ZM191.239 314.562L101.992 314.562L101.992 316.562L191.239 316.562L191.239 314.562ZM192.239 315.562C192.238 303.684 189.904 291.923 185.37 280.949L183.522 281.712C187.956 292.444 190.238 303.946 190.239 315.562L192.239 315.562ZM185.37 280.949C180.835 269.974 174.188 260.002 165.809 251.602L164.393 253.014C172.587 261.228 179.087 270.98 183.522 281.712L185.37 280.949ZM165.809 251.602C157.429 243.202 147.482 236.538 136.533 231.992L135.766 233.839C146.472 238.284 156.199 244.8 164.393 253.014L165.809 251.602ZM136.533 231.992C125.584 227.446 113.85 225.106 101.999 225.106L101.999 227.106C113.586 227.106 125.06 229.394 135.766 233.839L136.533 231.992ZM102.999 226.106L102.999 189.566L100.999 189.566L100.999 226.106L102.999 226.106ZM101.999 190.566C118.373 190.566 134.587 193.799 149.715 200.081L150.482 198.234C135.111 191.851 118.636 188.566 101.999 188.566L101.999 190.566ZM149.715 200.081C164.843 206.362 178.588 215.57 190.167 227.177L191.583 225.764C179.819 213.971 165.853 204.616 150.482 198.234L149.715 200.081ZM190.167 227.177C197.261 234.288 203.456 242.214 208.632 250.775L210.343 249.741C205.085 241.043 198.79 232.989 191.583 225.764L190.167 227.177ZM210.343 250.775C215.519 242.214 221.714 234.288 228.808 227.177L227.392 225.764C220.185 232.989 213.891 241.043 208.632 249.741L210.343 250.775ZM228.808 227.177C240.387 215.569 254.132 206.362 269.26 200.081L268.493 198.234C253.122 204.616 239.156 213.971 227.392 225.764L228.808 227.177ZM269.26 200.081C284.388 193.799 300.602 190.566 316.976 190.566L316.976 188.566C300.339 188.566 283.864 191.851 268.493 198.234L269.26 200.081ZM315.976 189.566L315.976 226.106L317.976 226.106L317.976 189.566L315.976 189.566ZM316.976 225.106C305.125 225.106 293.391 227.446 282.442 231.992L283.209 233.839C293.915 229.394 305.389 227.106 316.976 227.106L316.976 225.106ZM282.442 231.992C271.494 236.538 261.546 243.202 253.166 251.602L254.582 253.014C262.776 244.8 272.504 238.284 283.209 233.839L282.442 231.992ZM253.166 251.602C244.787 260.002 238.14 269.974 233.605 280.949L235.454 281.712C239.888 270.98 246.388 261.228 254.582 253.014L253.166 251.602ZM233.605 280.949C229.071 291.923 226.737 303.684 226.736 315.562L228.736 315.562C228.737 303.946 231.019 292.444 235.454 281.712L233.605 280.949ZM316.988 314.562L227.736 314.562L227.736 316.562L316.988 316.562L316.988 314.562Z" fill="#003E29" mask="url(#path-4-inside-1_5_2227)"/>
</g>
<mask id="mask2_5_2227" style="mask-type:alpha" maskUnits="userSpaceOnUse" x="79" y="212" width="269" height="148">
<path d="M80.0913 213.116L80.0913 359.46L346.514 359.46L346.514 213.117L316.94 213.117C295.631 213.117 274.879 219.924 257.709 232.545L209.487 267.995L162.282 232.881C145.03 220.047 124.1 213.117 102.597 213.116L80.0913 213.116Z" fill="#D9D9D9" stroke="#003E29"/>
</mask>
<g mask="url(#mask2_5_2227)">
<mask id="path-7-inside-2_5_2227" fill="white">
<path fill-rule="evenodd" clip-rule="evenodd" d="M227.389 315.545L190.939 315.545L190.891 315.545C190.891 315.547 190.891 315.55 190.891 315.552L101.645 315.552L101.645 100.027L316.64 100.027L316.64 315.552L227.389 315.552C227.389 315.55 227.389 315.547 227.389 315.545Z"/>
</mask>
<path fill-rule="evenodd" clip-rule="evenodd" d="M227.389 315.545L190.939 315.545L190.891 315.545C190.891 315.547 190.891 315.55 190.891 315.552L101.645 315.552L101.645 100.027L316.64 100.027L316.64 315.552L227.389 315.552C227.389 315.55 227.389 315.547 227.389 315.545Z" fill="#FE7506"/>
<path d="M190.939 315.545L190.939 314.545L190.937 314.545L190.939 315.545ZM227.389 315.545L228.389 315.545L228.389 314.545L227.389 314.545L227.389 315.545ZM190.891 315.545L190.89 314.545L189.891 314.547L189.891 315.545L190.891 315.545ZM190.891 315.552L190.891 316.552L191.891 316.552L191.891 315.552L190.891 315.552ZM101.645 315.552L100.645 315.552L100.645 316.552L101.645 316.552L101.645 315.552ZM101.645 100.027L101.645 99.0273L100.645 99.0273L100.645 100.027L101.645 100.027ZM316.64 100.027L317.64 100.027L317.64 99.0274L316.64 99.0274L316.64 100.027ZM316.64 315.552L316.64 316.552L317.64 316.552L317.64 315.552L316.64 315.552ZM227.389 315.552L226.389 315.552L226.389 316.552L227.389 316.552L227.389 315.552ZM190.939 316.545L227.389 316.545L227.389 314.545L190.939 314.545L190.939 316.545ZM190.893 316.545L190.94 316.545L190.937 314.545L190.89 314.545L190.893 316.545ZM191.891 315.552C191.891 315.552 191.891 315.552 191.891 315.552C191.891 315.552 191.891 315.552 191.891 315.552C191.891 315.552 191.891 315.552 191.891 315.552C191.891 315.552 191.891 315.552 191.891 315.552C191.891 315.552 191.891 315.552 191.891 315.552C191.891 315.552 191.891 315.552 191.891 315.552C191.891 315.552 191.891 315.552 191.891 315.552C191.891 315.552 191.891 315.552 191.891 315.552C191.891 315.552 191.891 315.552 191.891 315.552C191.891 315.552 191.891 315.552 191.891 315.552C191.891 315.552 191.891 315.552 191.891 315.552C191.891 315.552 191.891 315.552 191.891 315.552C191.891 315.552 191.891 315.552 191.891 315.552C191.891 315.552 191.891 315.552 191.891 315.552C191.891 315.552 191.891 315.552 191.891 315.552C191.891 315.552 191.891 315.552 191.891 315.552C191.891 315.552 191.891 315.552 191.891 315.552C191.891 315.552 191.891 315.552 191.891 315.552C191.891 315.552 191.891 315.552 191.891 315.552C191.891 315.552 191.891 315.552 191.891 315.552C191.891 315.552 191.891 315.552 191.891 315.552C191.891 315.552 191.891 315.552 191.891 315.552C191.891 315.552 191.891 315.552 191.891 315.552C191.891 315.552 191.891 315.552 191.891 315.552C191.891 315.552 191.891 315.552 191.891 315.552C191.891 315.552 191.891 315.552 191.891 315.552C191.891 315.552 191.891 315.552 191.891 315.552C191.891 315.552 191.891 315.552 191.891 315.552C191.891 315.552 191.891 315.552 191.891 315.552C191.891 315.552 191.891 315.552 191.891 315.552C191.891 315.552 191.891 315.552 191.891 315.552C191.891 315.552 191.891 315.552 191.891 315.552C191.891 315.552 191.891 315.552 191.891 315.552C191.891 315.552 191.891 315.552 191.891 315.552C191.891 315.552 191.891 315.552 191.891 315.552C191.891 315.552 191.891 315.552 191.891 315.552C191.891 315.552 191.891 315.552 191.891 315.552C191.891 315.552 191.891 315.552 191.891 315.552C191.891 315.552 191.891 315.552 191.891 315.552C191.891 315.552 191.891 315.552 191.891 315.552C191.891 315.552 191.891 315.552 191.891 315.552C191.891 315.552 191.891 315.551 191.891 315.551C191.891 315.551 191.891 315.551 191.891 315.551C191.891 315.551 191.891 315.551 191.891 315.551C191.891 315.551 191.891 315.551 191.891 315.551C191.891 315.551 191.891 315.551 191.891 315.551C191.891 315.551 191.891 315.551 191.891 315.551C191.891 315.551 191.891 315.551 191.891 315.551C191.891 315.551 191.891 315.551 191.891 315.551C191.891 315.551 191.891 315.551 191.891 315.551C191.891 315.551 191.891 315.551 191.891 315.551C191.891 315.551 191.891 315.551 191.891 315.551C191.891 315.551 191.891 315.551 191.891 315.551C191.891 315.551 191.891 315.551 191.891 315.551C191.891 315.551 191.891 315.551 191.891 315.551C191.891 315.551 191.891 315.551 191.891 315.551C191.891 315.551 191.891 315.551 191.891 315.551C191.891 315.551 191.891 315.551 191.891 315.551C191.891 315.551 191.891 315.551 191.891 315.551C191.891 315.551 191.891 315.551 191.891 315.551C191.891 315.551 191.891 315.551 191.891 315.551C191.891 315.551 191.891 315.551 191.891 315.551C191.891 315.551 191.891 315.551 191.891 315.551C191.891 315.551 191.891 315.551 191.891 315.551C191.891 315.551 191.891 315.551 191.891 315.551C191.891 315.551 191.891 315.551 191.891 315.551C191.891 315.551 191.891 315.551 191.891 315.551C191.891 315.551 191.891 315.551 191.891 315.551C191.891 315.551 191.891 315.551 191.891 315.551C191.891 315.551 191.891 315.551 191.891 315.551C191.891 315.551 191.891 315.551 191.891 315.551C191.891 315.551 191.891 315.551 191.891 315.551C191.891 315.551 191.891 315.551 191.891 315.551C191.891 315.551 191.891 315.551 191.891 315.551C191.891 315.551 191.891 315.551 191.891 315.551C191.891 315.551 191.891 315.551 191.891 315.551C191.891 315.551 191.891 315.551 191.891 315.551C191.891 315.551 191.891 315.551 191.891 315.551C191.891 315.551 191.891 315.551 191.891 315.551C191.891 315.551 191.891 315.551 191.891 315.551C191.891 315.551 191.891 315.551 191.891 315.551C191.891 315.551 191.891 315.551 191.891 315.551C191.891 315.551 191.891 315.551 191.891 315.551C191.891 315.551 191.891 315.551 191.891 315.551C191.891 315.551 191.891 315.551 191.891 315.551C191.891 315.551 191.891 315.551 191.891 315.551C191.891 315.551 191.891 315.551 191.891 315.551C191.891 315.551 191.891 315.551 191.891 315.551C191.891 315.551 191.891 315.551 191.891 315.551C191.891 315.551 191.891 315.551 191.891 315.551C191.891 315.551 191.891 315.551 191.891 315.551C191.891 315.551 191.891 315.551 191.891 315.551C191.891 315.551 191.891 315.551 191.891 315.551C191.891 315.551 191.891 315.551 191.891 315.551C191.891 315.551 191.891 315.551 191.891 315.551C191.891 315.551 191.891 315.551 191.891 315.551C191.891 315.551 191.891 315.551 191.891 315.551C191.891 315.551 191.891 315.551 191.891 315.551C191.891 315.551 191.891 315.551 191.891 315.551C191.891 315.551 191.891 315.551 191.891 315.551C191.891 315.551 191.891 315.551 191.891 315.551C191.891 315.551 191.891 315.551 191.891 315.551C191.891 315.551 191.891 315.551 191.891 315.551C191.891 315.551 191.891 315.551 191.891 315.551C191.891 315.551 191.891 315.551 191.891 315.551C191.891 315.551 191.891 315.551 191.891 315.551C191.891 315.551 191.891 315.551 191.891 315.551C191.891 315.551 191.891 315.551 191.891 315.551C191.891 315.551 191.891 315.551 191.891 315.551C191.891 315.551 191.891 315.551 191.891 315.551C191.891 315.551 191.891 315.551 191.891 315.551C191.891 315.551 191.891 315.551 191.891 315.551C191.891 315.551 191.891 315.551 191.891 315.551C191.891 315.551 191.891 315.551 191.891 315.551C191.891 315.551 191.891 315.551 191.891 315.55C191.891 315.55 191.891 315.55 191.891 315.55C191.891 315.55 191.891 315.55 191.891 315.55C191.891 315.55 191.891 315.55 191.891 315.55C191.891 315.55 191.891 315.55 191.891 315.55C191.891 315.55 191.891 315.55 191.891 315.55C191.891 315.55 191.891 315.55 191.891 315.55C191.891 315.55 191.891 315.55 191.891 315.55C191.891 315.55 191.891 315.55 191.891 315.55C191.891 315.55 191.891 315.55 191.891 315.55C191.891 315.55 191.891 315.55 191.891 315.55C191.891 315.55 191.891 315.55 191.891 315.55C191.891 315.55 191.891 315.55 191.891 315.55C191.891 315.55 191.891 315.55 191.891 315.55C191.891 315.55 191.891 315.55 191.891 315.55C191.891 315.55 191.891 315.55 191.891 315.55C191.891 315.55 191.891 315.55 191.891 315.55C191.891 315.55 191.891 315.55 191.891 315.55C191.891 315.55 191.891 315.55 191.891 315.55C191.891 315.55 191.891 315.55 191.891 315.55C191.891 315.55 191.891 315.55 191.891 315.55C191.891 315.55 191.891 315.55 191.891 315.55C191.891 315.55 191.891 315.55 191.891 315.55C191.891 315.55 191.891 315.55 191.891 315.55C191.891 315.55 191.891 315.55 191.891 315.55C191.891 315.55 191.891 315.55 191.891 315.55C191.891 315.55 191.891 315.55 191.891 315.55C191.891 315.55 191.891 315.55 191.891 315.55C191.891 315.55 191.891 315.55 191.891 315.55C191.891 315.55 191.891 315.55 191.891 315.55C191.891 315.55 191.891 315.55 191.891 315.55C191.891 315.55 191.891 315.55 191.891 315.55C191.891 315.55 191.891 315.55 191.891 315.55C191.891 315.55 191.891 315.55 191.891 315.55C191.891 315.55 191.891 315.55 191.891 315.55C191.891 315.55 191.891 315.55 191.891 315.55C191.891 315.55 191.891 315.55 191.891 315.55C191.891 315.55 191.891 315.55 191.891 315.55C191.891 315.55 191.891 315.55 191.891 315.55C191.891 315.55 191.891 315.55 191.891 315.55C191.891 315.55 191.891 315.55 191.891 315.55C191.891 315.55 191.891 315.55 191.891 315.55C191.891 315.55 191.891 315.55 191.891 315.55C191.891 315.55 191.891 315.55 191.891 315.55C191.891 315.55 191.891 315.55 191.891 315.55C191.891 315.55 191.891 315.55 191.891 315.55C191.891 315.55 191.891 315.55 191.891 315.55C191.891 315.55 191.891 315.55 191.891 315.55C191.891 315.55 191.891 315.55 191.891 315.55C191.891 315.55 191.891 315.55 191.891 315.55C191.891 315.55 191.891 315.55 191.891 315.55C191.891 315.55 191.891 315.55 191.891 315.55C191.891 315.55 191.891 315.55 191.891 315.55C191.891 315.55 191.891 315.55 191.891 315.55C191.891 315.55 191.891 315.55 191.891 315.55C191.891 315.55 191.891 315.55 191.891 315.55C191.891 315.55 191.891 315.55 191.891 315.55C191.891 315.55 191.891 315.55 191.891 315.55C191.891 315.55 191.891 315.55 191.891 315.55C191.891 315.55 191.891 315.55 191.891 315.55C191.891 315.55 191.891 315.55 191.891 315.55C191.891 315.55 191.891 315.55 191.891 315.55C191.891 315.55 191.891 315.55 191.891 315.55C191.891 315.55 191.891 315.55 191.891 315.55C191.891 315.55 191.891 315.55 191.891 315.55C191.891 315.55 191.891 315.55 191.891 315.55C191.891 315.55 191.891 315.55 191.891 315.55C191.891 315.55 191.891 315.55 191.891 315.55C191.891 315.55 191.891 315.55 191.891 315.55C191.891 315.55 191.891 315.55 191.891 315.55C191.891 315.55 191.891 315.55 191.891 315.55C191.891 315.55 191.891 315.55 191.891 315.55C191.891 315.55 191.891 315.55 191.891 315.55C191.891 315.55 191.891 315.55 191.891 315.55C191.891 315.55 191.891 315.549 191.891 315.549C191.891 315.549 191.891 315.549 191.891 315.549C191.891 315.549 191.891 315.549 191.891 315.549C191.891 315.549 191.891 315.549 191.891 315.549C191.891 315.549 191.891 315.549 191.891 315.549C191.891 315.549 191.891 315.549 191.891 315.549C191.891 315.549 191.891 315.549 191.891 315.549C191.891 315.549 191.891 315.549 191.891 315.549C191.891 315.549 191.891 315.549 191.891 315.549C191.891 315.549 191.891 315.549 191.891 315.549C191.891 315.549 191.891 315.549 191.891 315.549C191.891 315.549 191.891 315.549 191.891 315.549C191.891 315.549 191.891 315.549 191.891 315.549C191.891 315.549 191.891 315.549 191.891 315.549C191.891 315.549 191.891 315.549 191.891 315.549C191.891 315.549 191.891 315.549 191.891 315.549C191.891 315.549 191.891 315.549 191.891 315.549C191.891 315.549 191.891 315.549 191.891 315.549C191.891 315.549 191.891 315.549 191.891 315.549C191.891 315.549 191.891 315.549 191.891 315.549C191.891 315.549 191.891 315.549 191.891 315.549C191.891 315.549 191.891 315.549 191.891 315.549C191.891 315.549 191.891 315.549 191.891 315.549C191.891 315.549 191.891 315.549 191.891 315.549C191.891 315.549 191.891 315.549 191.891 315.549C191.891 315.549 191.891 315.549 191.891 315.549C191.891 315.549 191.891 315.549 191.891 315.549C191.891 315.549 191.891 315.549 191.891 315.549C191.891 315.549 191.891 315.549 191.891 315.549C191.891 315.549 191.891 315.549 191.891 315.549C191.891 315.549 191.891 315.549 191.891 315.549C191.891 315.549 191.891 315.549 191.891 315.549C191.891 315.549 191.891 315.549 191.891 315.549C191.891 315.549 191.891 315.549 191.891 315.549C191.891 315.549 191.891 315.549 191.891 315.549C191.891 315.549 191.891 315.549 191.891 315.549C191.891 315.549 191.891 315.549 191.891 315.549C191.891 315.549 191.891 315.549 191.891 315.549C191.891 315.549 191.891 315.549 191.891 315.549C191.891 315.549 191.891 315.549 191.891 315.549C191.891 315.549 191.891 315.549 191.891 315.549C191.891 315.549 191.891 315.549 191.891 315.549C191.891 315.549 191.891 315.549 191.891 315.549C191.891 315.549 191.891 315.549 191.891 315.549C191.891 315.549 191.891 315.549 191.891 315.549C191.891 315.549 191.891 315.549 191.891 315.549C191.891 315.549 191.891 315.549 191.891 315.549C191.891 315.549 191.891 315.549 191.891 315.549C191.891 315.549 191.891 315.549 191.891 315.549C191.891 315.549 191.891 315.549 191.891 315.549C191.891 315.549 191.891 315.549 191.891 315.549C191.891 315.549 191.891 315.549 191.891 315.549C191.891 315.549 191.891 315.549 191.891 315.549C191.891 315.549 191.891 315.549 191.891 315.549C191.891 315.549 191.891 315.549 191.891 315.549C191.891 315.549 191.891 315.549 191.891 315.549C191.891 315.549 191.891 315.549 191.891 315.549C191.891 315.549 191.891 315.549 191.891 315.549C191.891 315.549 191.891 315.549 191.891 315.549C191.891 315.549 191.891 315.549 191.891 315.549C191.891 315.549 191.891 315.549 191.891 315.549C191.891 315.549 191.891 315.549 191.891 315.549C191.891 315.549 191.891 315.549 191.891 315.549C191.891 315.549 191.891 315.549 191.891 315.549C191.891 315.549 191.891 315.549 191.891 315.549C191.891 315.549 191.891 315.549 191.891 315.549C191.891 315.549 191.891 315.549 191.891 315.549C191.891 315.549 191.891 315.549 191.891 315.549C191.891 315.549 191.891 315.549 191.891 315.549C191.891 315.549 191.891 315.549 191.891 315.549C191.891 315.549 191.891 315.549 191.891 315.549C191.891 315.549 191.891 315.549 191.891 315.549C191.891 315.549 191.891 315.549 191.891 315.549C191.891 315.549 191.891 315.549 191.891 315.548C191.891 315.548 191.891 315.548 191.891 315.548C191.891 315.548 191.891 315.548 191.891 315.548C191.891 315.548 191.891 315.548 191.891 315.548C191.891 315.548 191.891 315.548 191.891 315.548C191.891 315.548 191.891 315.548 191.891 315.548C191.891 315.548 191.891 315.548 191.891 315.548C191.891 315.548 191.891 315.548 191.891 315.548C191.891 315.548 191.891 315.548 191.891 315.548C191.891 315.548 191.891 315.548 191.891 315.548C191.891 315.548 191.891 315.548 191.891 315.548C191.891 315.548 191.891 315.548 191.891 315.548C191.891 315.548 191.891 315.548 191.891 315.548C191.891 315.548 191.891 315.548 191.891 315.548C191.891 315.548 191.891 315.548 191.891 315.548C191.891 315.548 191.891 315.548 191.891 315.548C191.891 315.548 191.891 315.548 191.891 315.548C191.891 315.548 191.891 315.548 191.891 315.548C191.891 315.548 191.891 315.548 191.891 315.548C191.891 315.548 191.891 315.548 191.891 315.548C191.891 315.548 191.891 315.548 191.891 315.548C191.891 315.548 191.891 315.548 191.891 315.548C191.891 315.548 191.891 315.548 191.891 315.548C191.891 315.548 191.891 315.548 191.891 315.548C191.891 315.548 191.891 315.548 191.891 315.548C191.891 315.548 191.891 315.548 191.891 315.548C191.891 315.548 191.891 315.548 191.891 315.548C191.891 315.548 191.891 315.548 191.891 315.548C191.891 315.548 191.891 315.548 191.891 315.548C191.891 315.548 191.891 315.548 191.891 315.548C191.891 315.548 191.891 315.548 191.891 315.548C191.891 315.548 191.891 315.548 191.891 315.548C191.891 315.548 191.891 315.548 191.891 315.548C191.891 315.548 191.891 315.548 191.891 315.548C191.891 315.548 191.891 315.548 191.891 315.548C191.891 315.548 191.891 315.548 191.891 315.548C191.891 315.548 191.891 315.548 191.891 315.548C191.891 315.548 191.891 315.548 191.891 315.548C191.891 315.548 191.891 315.548 191.891 315.548C191.891 315.548 191.891 315.548 191.891 315.548C191.891 315.548 191.891 315.548 191.891 315.548C191.891 315.548 191.891 315.548 191.891 315.548C191.891 315.548 191.891 315.548 191.891 315.548C191.891 315.548 191.891 315.548 191.891 315.548C191.891 315.548 191.891 315.548 191.891 315.548C191.891 315.548 191.891 315.548 191.891 315.548C191.891 315.548 191.891 315.548 191.891 315.548C191.891 315.548 191.891 315.548 191.891 315.548C191.891 315.548 191.891 315.548 191.891 315.548C191.891 315.548 191.891 315.548 191.891 315.548C191.891 315.548 191.891 315.548 191.891 315.548C191.891 315.548 191.891 315.548 191.891 315.548C191.891 315.548 191.891 315.548 191.891 315.548C191.891 315.548 191.891 315.548 191.891 315.548C191.891 315.548 191.891 315.548 191.891 315.548C191.891 315.548 191.891 315.548 191.891 315.548C191.891 315.548 191.891 315.548 191.891 315.548C191.891 315.548 191.891 315.548 191.891 315.548C191.891 315.548 191.891 315.548 191.891 315.548C191.891 315.548 191.891 315.548 191.891 315.548C191.891 315.548 191.891 315.548 191.891 315.548C191.891 315.548 191.891 315.548 191.891 315.548C191.891 315.548 191.891 315.548 191.891 315.548C191.891 315.548 191.891 315.548 191.891 315.548C191.891 315.548 191.891 315.548 191.891 315.548C191.891 315.548 191.891 315.548 191.891 315.548C191.891 315.548 191.891 315.548 191.891 315.548C191.891 315.548 191.891 315.548 191.891 315.548C191.891 315.548 191.891 315.548 191.891 315.548C191.891 315.548 191.891 315.548 191.891 315.548C191.891 315.548 191.891 315.548 191.891 315.548C191.891 315.548 191.891 315.548 191.891 315.548C191.891 315.548 191.891 315.548 191.891 315.548C191.891 315.548 191.891 315.548 191.891 315.548C191.891 315.547 191.891 315.547 191.891 315.547C191.891 315.547 191.891 315.547 191.891 315.547C191.891 315.547 191.891 315.547 191.891 315.547C191.891 315.547 191.891 315.547 191.891 315.547C191.891 315.547 191.891 315.547 191.891 315.547C191.891 315.547 191.891 315.547 191.891 315.547C191.891 315.547 191.891 315.547 191.891 315.547C191.891 315.547 191.891 315.547 191.891 315.547C191.891 315.547 191.891 315.547 191.891 315.547C191.891 315.547 191.891 315.547 191.891 315.547C191.891 315.547 191.891 315.547 191.891 315.547C191.891 315.547 191.891 315.547 191.891 315.547C191.891 315.547 191.891 315.547 191.891 315.547C191.891 315.547 191.891 315.547 191.891 315.547C191.891 315.547 191.891 315.547 191.891 315.547C191.891 315.547 191.891 315.547 191.891 315.547C191.891 315.547 191.891 315.547 191.891 315.547C191.891 315.547 191.891 315.547 191.891 315.547C191.891 315.547 191.891 315.547 191.891 315.547C191.891 315.547 191.891 315.547 191.891 315.547C191.891 315.547 191.891 315.547 191.891 315.547C191.891 315.547 191.891 315.547 191.891 315.547C191.891 315.547 191.891 315.547 191.891 315.547C191.891 315.547 191.891 315.547 191.891 315.547C191.891 315.547 191.891 315.547 191.891 315.547C191.891 315.547 191.891 315.547 191.891 315.547C191.891 315.547 191.891 315.547 191.891 315.547C191.891 315.547 191.891 315.547 191.891 315.547C191.891 315.547 191.891 315.547 191.891 315.547C191.891 315.547 191.891 315.547 191.891 315.547C191.891 315.547 191.891 315.547 191.891 315.547C191.891 315.547 191.891 315.547 191.891 315.547C191.891 315.547 191.891 315.547 191.891 315.547C191.891 315.547 191.891 315.547 191.891 315.547C191.891 315.547 191.891 315.547 191.891 315.547C191.891 315.547 191.891 315.547 191.891 315.547C191.891 315.547 191.891 315.547 191.891 315.547C191.891 315.547 191.891 315.547 191.891 315.547C191.891 315.547 191.891 315.547 191.891 315.547C191.891 315.547 191.891 315.547 191.891 315.547C191.891 315.547 191.891 315.547 191.891 315.547C191.891 315.547 191.891 315.547 191.891 315.547C191.891 315.547 191.891 315.547 191.891 315.547C191.891 315.547 191.891 315.547 191.891 315.547C191.891 315.547 191.891 315.547 191.891 315.547C191.891 315.547 191.891 315.547 191.891 315.547C191.891 315.547 191.891 315.547 191.891 315.547C191.891 315.547 191.891 315.547 191.891 315.547C191.891 315.547 191.891 315.547 191.891 315.547C191.891 315.547 191.891 315.547 191.891 315.547C191.891 315.547 191.891 315.547 191.891 315.547C191.891 315.547 191.891 315.547 191.891 315.547C191.891 315.547 191.891 315.547 191.891 315.547C191.891 315.547 191.891 315.547 191.891 315.547C191.891 315.547 191.891 315.547 191.891 315.547C191.891 315.547 191.891 315.547 191.891 315.547C191.891 315.547 191.891 315.547 191.891 315.547C191.891 315.547 191.891 315.547 191.891 315.547C191.891 315.547 191.891 315.547 191.891 315.547C191.891 315.547 191.891 315.547 191.891 315.547C191.891 315.547 191.891 315.547 191.891 315.547C191.891 315.547 191.891 315.547 191.891 315.547C191.891 315.547 191.891 315.547 191.891 315.547C191.891 315.547 191.891 315.547 191.891 315.547C191.891 315.547 191.891 315.547 191.891 315.547C191.891 315.547 191.891 315.547 191.891 315.547C191.891 315.547 191.891 315.547 191.891 315.547C191.891 315.547 191.891 315.547 191.891 315.547C191.891 315.547 191.891 315.547 191.891 315.547C191.891 315.547 191.891 315.547 191.891 315.547C191.891 315.547 191.891 315.547 191.891 315.547C191.891 315.547 191.891 315.547 191.891 315.547C191.891 315.547 191.891 315.547 191.891 315.547C191.891 315.547 191.891 315.547 191.891 315.546C191.891 315.546 191.891 315.546 191.891 315.546C191.891 315.546 191.891 315.546 191.891 315.546C191.891 315.546 191.891 315.546 191.891 315.546C191.891 315.546 191.891 315.546 191.891 315.546C191.891 315.546 191.891 315.546 191.891 315.546C191.891 315.546 191.891 315.546 191.891 315.546C191.891 315.546 191.891 315.546 191.891 315.546C191.891 315.546 191.891 315.546 191.891 315.546C191.891 315.546 191.891 315.546 191.891 315.546C191.891 315.546 191.891 315.546 191.891 315.546C191.891 315.546 191.891 315.546 191.891 315.546C191.891 315.546 191.891 315.546 191.891 315.546C191.891 315.546 191.891 315.546 191.891 315.546C191.891 315.546 191.891 315.546 191.891 315.546C191.891 315.546 191.891 315.546 191.891 315.546C191.891 315.546 191.891 315.546 191.891 315.546C191.891 315.546 191.891 315.546 191.891 315.546C191.891 315.546 191.891 315.546 191.891 315.546C191.891 315.546 191.891 315.546 191.891 315.546C191.891 315.546 191.891 315.546 191.891 315.546C191.891 315.546 191.891 315.546 191.891 315.546C191.891 315.546 191.891 315.546 191.891 315.546C191.891 315.546 191.891 315.546 191.891 315.546C191.891 315.546 191.891 315.546 191.891 315.546C191.891 315.546 191.891 315.546 191.891 315.546C191.891 315.546 191.891 315.546 191.891 315.546C191.891 315.546 191.891 315.546 191.891 315.546C191.891 315.546 191.891 315.546 191.891 315.546C191.891 315.546 191.891 315.546 191.891 315.546C191.891 315.546 191.891 315.546 191.891 315.546C191.891 315.546 191.891 315.546 191.891 315.546C191.891 315.546 191.891 315.546 191.891 315.546C191.891 315.546 191.891 315.546 191.891 315.546C191.891 315.546 191.891 315.546 191.891 315.546C191.891 315.546 191.891 315.546 191.891 315.546C191.891 315.546 191.891 315.546 191.891 315.546C191.891 315.546 191.891 315.546 191.891 315.546C191.891 315.546 191.891 315.546 191.891 315.546C191.891 315.546 191.891 315.546 191.891 315.546C191.891 315.546 191.891 315.546 191.891 315.546C191.891 315.546 191.891 315.546 191.891 315.546C191.891 315.546 191.891 315.546 191.891 315.546C191.891 315.546 191.891 315.546 191.891 315.546C191.891 315.546 191.891 315.546 191.891 315.546C191.891 315.546 191.891 315.546 191.891 315.546C191.891 315.546 191.891 315.546 191.891 315.546C191.891 315.546 191.891 315.546 191.891 315.546C191.891 315.546 191.891 315.546 191.891 315.546C191.891 315.546 191.891 315.546 191.891 315.546C191.891 315.546 191.891 315.546 191.891 315.546C191.891 315.546 191.891 315.546 191.891 315.546C191.891 315.546 191.891 315.546 191.891 315.546C191.891 315.546 191.891 315.546 191.891 315.546C191.891 315.546 191.891 315.546 191.891 315.546C191.891 315.546 191.891 315.546 191.891 315.546C191.891 315.546 191.891 315.546 191.891 315.546C191.891 315.546 191.891 315.546 191.891 315.546C191.891 315.546 191.891 315.546 191.891 315.546C191.891 315.546 191.891 315.546 191.891 315.546C191.891 315.546 191.891 315.546 191.891 315.546C191.891 315.546 191.891 315.546 191.891 315.546C191.891 315.546 191.891 315.546 191.891 315.546C191.891 315.546 191.891 315.546 191.891 315.546C191.891 315.546 191.891 315.546 191.891 315.546C191.891 315.546 191.891 315.546 191.891 315.546C191.891 315.546 191.891 315.546 191.891 315.546C191.891 315.546 191.891 315.546 191.891 315.546C191.891 315.546 191.891 315.546 191.891 315.546C191.891 315.546 191.891 315.546 191.891 315.546C191.891 315.546 191.891 315.546 191.891 315.546C191.891 315.546 191.891 315.546 191.891 315.546C191.891 315.546 191.891 315.546 191.891 315.546C191.891 315.546 191.891 315.546 191.891 315.546C191.891 315.545 191.891 315.545 191.891 315.545C191.891 315.545 191.891 315.545 191.891 315.545C191.891 315.545 191.891 315.545 191.891 315.545C191.891 315.545 191.891 315.545 191.891 315.545C191.891 315.545 191.891 315.545 191.891 315.545C191.891 315.545 191.891 315.545 191.891 315.545C191.891 315.545 191.891 315.545 191.891 315.545C191.891 315.545 191.891 315.545 191.891 315.545C191.891 315.545 191.891 315.545 191.891 315.545C191.891 315.545 191.891 315.545 191.891 315.545C191.891 315.545 191.891 315.545 191.891 315.545C191.891 315.545 191.891 315.545 191.891 315.545C191.891 315.545 191.891 315.545 191.891 315.545C191.891 315.545 191.891 315.545 191.891 315.545C191.891 315.545 191.891 315.545 191.891 315.545C191.891 315.545 191.891 315.545 191.891 315.545C191.891 315.545 191.891 315.545 191.891 315.545C191.891 315.545 191.891 315.545 191.891 315.545C191.891 315.545 191.891 315.545 191.891 315.545C191.891 315.545 191.891 315.545 191.891 315.545C191.891 315.545 191.891 315.545 191.891 315.545C191.891 315.545 191.891 315.545 191.891 315.545C191.891 315.545 191.891 315.545 191.891 315.545C191.891 315.545 191.891 315.545 191.891 315.545C191.891 315.545 191.891 315.545 191.891 315.545C191.891 315.545 191.891 315.545 191.891 315.545C191.891 315.545 191.891 315.545 191.891 315.545C191.891 315.545 191.891 315.545 191.891 315.545C191.891 315.545 191.891 315.545 191.891 315.545C191.891 315.545 191.891 315.545 191.891 315.545L189.891 315.545C189.891 315.545 189.891 315.545 189.891 315.545C189.891 315.545 189.891 315.545 189.891 315.545C189.891 315.545 189.891 315.545 189.891 315.545C189.891 315.545 189.891 315.545 189.891 315.545C189.891 315.545 189.891 315.545 189.891 315.545C189.891 315.545 189.891 315.545 189.891 315.545C189.891 315.545 189.891 315.545 189.891 315.545C189.891 315.545 189.891 315.545 189.891 315.545C189.891 315.545 189.891 315.545 189.891 315.545C189.891 315.545 189.891 315.545 189.891 315.545C189.891 315.545 189.891 315.545 189.891 315.545C189.891 315.545 189.891 315.545 189.891 315.545C189.891 315.545 189.891 315.545 189.891 315.545C189.891 315.545 189.891 315.545 189.891 315.545C189.891 315.545 189.891 315.545 189.891 315.545C189.891 315.545 189.891 315.545 189.891 315.545C189.891 315.545 189.891 315.545 189.891 315.545C189.891 315.545 189.891 315.545 189.891 315.545C189.891 315.545 189.891 315.545 189.891 315.545C189.891 315.545 189.891 315.545 189.891 315.545C189.891 315.545 189.891 315.545 189.891 315.545C189.891 315.545 189.891 315.545 189.891 315.545C189.891 315.545 189.891 315.545 189.891 315.545C189.891 315.545 189.891 315.545 189.891 315.545C189.891 315.545 189.891 315.545 189.891 315.545C189.891 315.545 189.891 315.545 189.891 315.545C189.891 315.545 189.891 315.545 189.891 315.545C189.891 315.545 189.891 315.545 189.891 315.545C189.891 315.545 189.891 315.545 189.891 315.545C189.891 315.545 189.891 315.545 189.891 315.546C189.891 315.546 189.891 315.546 189.891 315.546C189.891 315.546 189.891 315.546 189.891 315.546C189.891 315.546 189.891 315.546 189.891 315.546C189.891 315.546 189.891 315.546 189.891 315.546C189.891 315.546 189.891 315.546 189.891 315.546C189.891 315.546 189.891 315.546 189.891 315.546C189.891 315.546 189.891 315.546 189.891 315.546C189.891 315.546 189.891 315.546 189.891 315.546C189.891 315.546 189.891 315.546 189.891 315.546C189.891 315.546 189.891 315.546 189.891 315.546C189.891 315.546 189.891 315.546 189.891 315.546C189.891 315.546 189.891 315.546 189.891 315.546C189.891 315.546 189.891 315.546 189.891 315.546C189.891 315.546 189.891 315.546 189.891 315.546C189.891 315.546 189.891 315.546 189.891 315.546C189.891 315.546 189.891 315.546 189.891 315.546C189.891 315.546 189.891 315.546 189.891 315.546C189.891 315.546 189.891 315.546 189.891 315.546C189.891 315.546 189.891 315.546 189.891 315.546C189.891 315.546 189.891 315.546 189.891 315.546C189.891 315.546 189.891 315.546 189.891 315.546C189.891 315.546 189.891 315.546 189.891 315.546C189.891 315.546 189.891 315.546 189.891 315.546C189.891 315.546 189.891 315.546 189.891 315.546C189.891 315.546 189.891 315.546 189.891 315.546C189.891 315.546 189.891 315.546 189.891 315.546C189.891 315.546 189.891 315.546 189.891 315.546C189.891 315.546 189.891 315.546 189.891 315.546C189.891 315.546 189.891 315.546 189.891 315.546C189.891 315.546 189.891 315.546 189.891 315.546C189.891 315.546 189.891 315.546 189.891 315.546C189.891 315.546 189.891 315.546 189.891 315.546C189.891 315.546 189.891 315.546 189.891 315.546C189.891 315.546 189.891 315.546 189.891 315.546C189.891 315.546 189.891 315.546 189.891 315.546C189.891 315.546 189.891 315.546 189.891 315.546C189.891 315.546 189.891 315.546 189.891 315.546C189.891 315.546 189.891 315.546 189.891 315.546C189.891 315.546 189.891 315.546 189.891 315.546C189.891 315.546 189.891 315.546 189.891 315.546C189.891 315.546 189.891 315.546 189.891 315.546C189.891 315.546 189.891 315.546 189.891 315.546C189.891 315.546 189.891 315.546 189.891 315.546C189.891 315.546 189.891 315.546 189.891 315.546C189.891 315.546 189.891 315.546 189.891 315.546C189.891 315.546 189.891 315.546 189.891 315.546C189.891 315.546 189.891 315.546 189.891 315.546C189.891 315.546 189.891 315.546 189.891 315.546C189.891 315.546 189.891 315.546 189.891 315.546C189.891 315.546 189.891 315.546 189.891 315.546C189.891 315.546 189.891 315.546 189.891 315.546C189.891 315.546 189.891 315.546 189.891 315.546C189.891 315.546 189.891 315.546 189.891 315.546C189.891 315.546 189.891 315.546 189.891 315.546C189.891 315.546 189.891 315.546 189.891 315.546C189.891 315.546 189.891 315.546 189.891 315.546C189.891 315.546 189.891 315.546 189.891 315.546C189.891 315.546 189.891 315.546 189.891 315.546C189.891 315.546 189.891 315.546 189.891 315.546C189.891 315.546 189.891 315.546 189.891 315.546C189.891 315.546 189.891 315.546 189.891 315.546C189.891 315.546 189.891 315.546 189.891 315.546C189.891 315.546 189.891 315.546 189.891 315.546C189.891 315.546 189.891 315.546 189.891 315.546C189.891 315.546 189.891 315.546 189.891 315.546C189.891 315.546 189.891 315.546 189.891 315.546C189.891 315.546 189.891 315.546 189.891 315.546C189.891 315.546 189.891 315.546 189.891 315.546C189.891 315.546 189.891 315.546 189.891 315.546C189.891 315.546 189.891 315.546 189.891 315.546C189.891 315.546 189.891 315.546 189.891 315.546C189.891 315.546 189.891 315.546 189.891 315.546C189.891 315.546 189.891 315.546 189.891 315.546C189.891 315.547 189.891 315.547 189.891 315.547C189.891 315.547 189.891 315.547 189.891 315.547C189.891 315.547 189.891 315.547 189.891 315.547C189.891 315.547 189.891 315.547 189.891 315.547C189.891 315.547 189.891 315.547 189.891 315.547C189.891 315.547 189.891 315.547 189.891 315.547C189.891 315.547 189.891 315.547 189.891 315.547C189.891 315.547 189.891 315.547 189.891 315.547C189.891 315.547 189.891 315.547 189.891 315.547C189.891 315.547 189.891 315.547 189.891 315.547C189.891 315.547 189.891 315.547 189.891 315.547C189.891 315.547 189.891 315.547 189.891 315.547C189.891 315.547 189.891 315.547 189.891 315.547C189.891 315.547 189.891 315.547 189.891 315.547C189.891 315.547 189.891 315.547 189.891 315.547C189.891 315.547 189.891 315.547 189.891 315.547C189.891 315.547 189.891 315.547 189.891 315.547C189.891 315.547 189.891 315.547 189.891 315.547C189.891 315.547 189.891 315.547 189.891 315.547C189.891 315.547 189.891 315.547 189.891 315.547C189.891 315.547 189.891 315.547 189.891 315.547C189.891 315.547 189.891 315.547 189.891 315.547C189.891 315.547 189.891 315.547 189.891 315.547C189.891 315.547 189.891 315.547 189.891 315.547C189.891 315.547 189.891 315.547 189.891 315.547C189.891 315.547 189.891 315.547 189.891 315.547C189.891 315.547 189.891 315.547 189.891 315.547C189.891 315.547 189.891 315.547 189.891 315.547C189.891 315.547 189.891 315.547 189.891 315.547C189.891 315.547 189.891 315.547 189.891 315.547C189.891 315.547 189.891 315.547 189.891 315.547C189.891 315.547 189.891 315.547 189.891 315.547C189.891 315.547 189.891 315.547 189.891 315.547C189.891 315.547 189.891 315.547 189.891 315.547C189.891 315.547 189.891 315.547 189.891 315.547C189.891 315.547 189.891 315.547 189.891 315.547C189.891 315.547 189.891 315.547 189.891 315.547C189.891 315.547 189.891 315.547 189.891 315.547C189.891 315.547 189.891 315.547 189.891 315.547C189.891 315.547 189.891 315.547 189.891 315.547C189.891 315.547 189.891 315.547 189.891 315.547C189.891 315.547 189.891 315.547 189.891 315.547C189.891 315.547 189.891 315.547 189.891 315.547C189.891 315.547 189.891 315.547 189.891 315.547C189.891 315.547 189.891 315.547 189.891 315.547C189.891 315.547 189.891 315.547 189.891 315.547C189.891 315.547 189.891 315.547 189.891 315.547C189.891 315.547 189.891 315.547 189.891 315.547C189.891 315.547 189.891 315.547 189.891 315.547C189.891 315.547 189.891 315.547 189.891 315.547C189.891 315.547 189.891 315.547 189.891 315.547C189.891 315.547 189.891 315.547 189.891 315.547C189.891 315.547 189.891 315.547 189.891 315.547C189.891 315.547 189.891 315.547 189.891 315.547C189.891 315.547 189.891 315.547 189.891 315.547C189.891 315.547 189.891 315.547 189.891 315.547C189.891 315.547 189.891 315.547 189.891 315.547C189.891 315.547 189.891 315.547 189.891 315.547C189.891 315.547 189.891 315.547 189.891 315.547C189.891 315.547 189.891 315.547 189.891 315.547C189.891 315.547 189.891 315.547 189.891 315.547C189.891 315.547 189.891 315.547 189.891 315.547C189.891 315.547 189.891 315.547 189.891 315.547C189.891 315.547 189.891 315.547 189.891 315.547C189.891 315.547 189.891 315.547 189.891 315.547C189.891 315.547 189.891 315.547 189.891 315.547C189.891 315.547 189.891 315.547 189.891 315.547C189.891 315.547 189.891 315.547 189.891 315.547C189.891 315.547 189.891 315.547 189.891 315.547C189.891 315.547 189.891 315.547 189.891 315.547C189.891 315.547 189.891 315.547 189.891 315.547C189.891 315.547 189.891 315.547 189.891 315.547C189.891 315.547 189.891 315.547 189.891 315.547C189.891 315.547 189.891 315.547 189.891 315.548C189.891 315.548 189.891 315.548 189.891 315.548C189.891 315.548 189.891 315.548 189.891 315.548C189.891 315.548 189.891 315.548 189.891 315.548C189.891 315.548 189.891 315.548 189.891 315.548C189.891 315.548 189.891 315.548 189.891 315.548C189.891 315.548 189.891 315.548 189.891 315.548C189.891 315.548 189.891 315.548 189.891 315.548C189.891 315.548 189.891 315.548 189.891 315.548C189.891 315.548 189.891 315.548 189.891 315.548C189.891 315.548 189.891 315.548 189.891 315.548C189.891 315.548 189.891 315.548 189.891 315.548C189.891 315.548 189.891 315.548 189.891 315.548C189.891 315.548 189.891 315.548 189.891 315.548C189.891 315.548 189.891 315.548 189.891 315.548C189.891 315.548 189.891 315.548 189.891 315.548C189.891 315.548 189.891 315.548 189.891 315.548C189.891 315.548 189.891 315.548 189.891 315.548C189.891 315.548 189.891 315.548 189.891 315.548C189.891 315.548 189.891 315.548 189.891 315.548C189.891 315.548 189.891 315.548 189.891 315.548C189.891 315.548 189.891 315.548 189.891 315.548C189.891 315.548 189.891 315.548 189.891 315.548C189.891 315.548 189.891 315.548 189.891 315.548C189.891 315.548 189.891 315.548 189.891 315.548C189.891 315.548 189.891 315.548 189.891 315.548C189.891 315.548 189.891 315.548 189.891 315.548C189.891 315.548 189.891 315.548 189.891 315.548C189.891 315.548 189.891 315.548 189.891 315.548C189.891 315.548 189.891 315.548 189.891 315.548C189.891 315.548 189.891 315.548 189.891 315.548C189.891 315.548 189.891 315.548 189.891 315.548C189.891 315.548 189.891 315.548 189.891 315.548C189.891 315.548 189.891 315.548 189.891 315.548C189.891 315.548 189.891 315.548 189.891 315.548C189.891 315.548 189.891 315.548 189.891 315.548C189.891 315.548 189.891 315.548 189.891 315.548C189.891 315.548 189.891 315.548 189.891 315.548C189.891 315.548 189.891 315.548 189.891 315.548C189.891 315.548 189.891 315.548 189.891 315.548C189.891 315.548 189.891 315.548 189.891 315.548C189.891 315.548 189.891 315.548 189.891 315.548C189.891 315.548 189.891 315.548 189.891 315.548C189.891 315.548 189.891 315.548 189.891 315.548C189.891 315.548 189.891 315.548 189.891 315.548C189.891 315.548 189.891 315.548 189.891 315.548C189.891 315.548 189.891 315.548 189.891 315.548C189.891 315.548 189.891 315.548 189.891 315.548C189.891 315.548 189.891 315.548 189.891 315.548C189.891 315.548 189.891 315.548 189.891 315.548C189.891 315.548 189.891 315.548 189.891 315.548C189.891 315.548 189.891 315.548 189.891 315.548C189.891 315.548 189.891 315.548 189.891 315.548C189.891 315.548 189.891 315.548 189.891 315.548C189.891 315.548 189.891 315.548 189.891 315.548C189.891 315.548 189.891 315.548 189.891 315.548C189.891 315.548 189.891 315.548 189.891 315.548C189.891 315.548 189.891 315.548 189.891 315.548C189.891 315.548 189.891 315.548 189.891 315.548C189.891 315.548 189.891 315.548 189.891 315.548C189.891 315.548 189.891 315.548 189.891 315.548C189.891 315.548 189.891 315.548 189.891 315.548C189.891 315.548 189.891 315.548 189.891 315.548C189.891 315.548 189.891 315.548 189.891 315.548C189.891 315.548 189.891 315.548 189.891 315.548C189.891 315.548 189.891 315.548 189.891 315.548C189.891 315.548 189.891 315.548 189.891 315.548C189.891 315.548 189.891 315.548 189.891 315.548C189.891 315.548 189.891 315.548 189.891 315.548C189.891 315.548 189.891 315.548 189.891 315.548C189.891 315.548 189.891 315.548 189.891 315.548C189.891 315.548 189.891 315.548 189.891 315.548C189.891 315.548 189.891 315.548 189.891 315.548C189.891 315.548 189.891 315.548 189.891 315.548C189.891 315.549 189.891 315.549 189.891 315.549C189.891 315.549 189.891 315.549 189.891 315.549C189.891 315.549 189.891 315.549 189.891 315.549C189.891 315.549 189.891 315.549 189.891 315.549C189.891 315.549 189.891 315.549 189.891 315.549C189.891 315.549 189.891 315.549 189.891 315.549C189.891 315.549 189.891 315.549 189.891 315.549C189.891 315.549 189.891 315.549 189.891 315.549C189.891 315.549 189.891 315.549 189.891 315.549C189.891 315.549 189.891 315.549 189.891 315.549C189.891 315.549 189.891 315.549 189.891 315.549C189.891 315.549 189.891 315.549 189.891 315.549C189.891 315.549 189.891 315.549 189.891 315.549C189.891 315.549 189.891 315.549 189.891 315.549C189.891 315.549 189.891 315.549 189.891 315.549C189.891 315.549 189.891 315.549 189.891 315.549C189.891 315.549 189.891 315.549 189.891 315.549C189.891 315.549 189.891 315.549 189.891 315.549C189.891 315.549 189.891 315.549 189.891 315.549C189.891 315.549 189.891 315.549 189.891 315.549C189.891 315.549 189.891 315.549 189.891 315.549C189.891 315.549 189.891 315.549 189.891 315.549C189.891 315.549 189.891 315.549 189.891 315.549C189.891 315.549 189.891 315.549 189.891 315.549C189.891 315.549 189.891 315.549 189.891 315.549C189.891 315.549 189.891 315.549 189.891 315.549C189.891 315.549 189.891 315.549 189.891 315.549C189.891 315.549 189.891 315.549 189.891 315.549C189.891 315.549 189.891 315.549 189.891 315.549C189.891 315.549 189.891 315.549 189.891 315.549C189.891 315.549 189.891 315.549 189.891 315.549C189.891 315.549 189.891 315.549 189.891 315.549C189.891 315.549 189.891 315.549 189.891 315.549C189.891 315.549 189.891 315.549 189.891 315.549C189.891 315.549 189.891 315.549 189.891 315.549C189.891 315.549 189.891 315.549 189.891 315.549C189.891 315.549 189.891 315.549 189.891 315.549C189.891 315.549 189.891 315.549 189.891 315.549C189.891 315.549 189.891 315.549 189.891 315.549C189.891 315.549 189.891 315.549 189.891 315.549C189.891 315.549 189.891 315.549 189.891 315.549C189.891 315.549 189.891 315.549 189.891 315.549C189.891 315.549 189.891 315.549 189.891 315.549C189.891 315.549 189.891 315.549 189.891 315.549C189.891 315.549 189.891 315.549 189.891 315.549C189.891 315.549 189.891 315.549 189.891 315.549C189.891 315.549 189.891 315.549 189.891 315.549C189.891 315.549 189.891 315.549 189.891 315.549C189.891 315.549 189.891 315.549 189.891 315.549C189.891 315.549 189.891 315.549 189.891 315.549C189.891 315.549 189.891 315.549 189.891 315.549C189.891 315.549 189.891 315.549 189.891 315.549C189.891 315.549 189.891 315.549 189.891 315.549C189.891 315.549 189.891 315.549 189.891 315.549C189.891 315.549 189.891 315.549 189.891 315.549C189.891 315.549 189.891 315.549 189.891 315.549C189.891 315.549 189.891 315.549 189.891 315.549C189.891 315.549 189.891 315.549 189.891 315.549C189.891 315.549 189.891 315.549 189.891 315.549C189.891 315.549 189.891 315.549 189.891 315.549C189.891 315.549 189.891 315.549 189.891 315.549C189.891 315.549 189.891 315.549 189.891 315.549C189.891 315.549 189.891 315.549 189.891 315.549C189.891 315.549 189.891 315.549 189.891 315.549C189.891 315.549 189.891 315.549 189.891 315.549C189.891 315.549 189.891 315.549 189.891 315.549C189.891 315.549 189.891 315.549 189.891 315.549C189.891 315.549 189.891 315.549 189.891 315.549C189.891 315.549 189.891 315.549 189.891 315.549C189.891 315.549 189.891 315.549 189.891 315.549C189.891 315.549 189.891 315.549 189.891 315.549C189.891 315.549 189.891 315.549 189.891 315.549C189.891 315.549 189.891 315.549 189.891 315.549C189.891 315.549 189.891 315.55 189.891 315.55C189.891 315.55 189.891 315.55 189.891 315.55C189.891 315.55 189.891 315.55 189.891 315.55C189.891 315.55 189.891 315.55 189.891 315.55C189.891 315.55 189.891 315.55 189.891 315.55C189.891 315.55 189.891 315.55 189.891 315.55C189.891 315.55 189.891 315.55 189.891 315.55C189.891 315.55 189.891 315.55 189.891 315.55C189.891 315.55 189.891 315.55 189.891 315.55C189.891 315.55 189.891 315.55 189.891 315.55C189.891 315.55 189.891 315.55 189.891 315.55C189.891 315.55 189.891 315.55 189.891 315.55C189.891 315.55 189.891 315.55 189.891 315.55C189.891 315.55 189.891 315.55 189.891 315.55C189.891 315.55 189.891 315.55 189.891 315.55C189.891 315.55 189.891 315.55 189.891 315.55C189.891 315.55 189.891 315.55 189.891 315.55C189.891 315.55 189.891 315.55 189.891 315.55C189.891 315.55 189.891 315.55 189.891 315.55C189.891 315.55 189.891 315.55 189.891 315.55C189.891 315.55 189.891 315.55 189.891 315.55C189.891 315.55 189.891 315.55 189.891 315.55C189.891 315.55 189.891 315.55 189.891 315.55C189.891 315.55 189.891 315.55 189.891 315.55C189.891 315.55 189.891 315.55 189.891 315.55C189.891 315.55 189.891 315.55 189.891 315.55C189.891 315.55 189.891 315.55 189.891 315.55C189.891 315.55 189.891 315.55 189.891 315.55C189.891 315.55 189.891 315.55 189.891 315.55C189.891 315.55 189.891 315.55 189.891 315.55C189.891 315.55 189.891 315.55 189.891 315.55C189.891 315.55 189.891 315.55 189.891 315.55C189.891 315.55 189.891 315.55 189.891 315.55C189.891 315.55 189.891 315.55 189.891 315.55C189.891 315.55 189.891 315.55 189.891 315.55C189.891 315.55 189.891 315.55 189.891 315.55C189.891 315.55 189.891 315.55 189.891 315.55C189.891 315.55 189.891 315.55 189.891 315.55C189.891 315.55 189.891 315.55 189.891 315.55C189.891 315.55 189.891 315.55 189.891 315.55C189.891 315.55 189.891 315.55 189.891 315.55C189.891 315.55 189.891 315.55 189.891 315.55C189.891 315.55 189.891 315.55 189.891 315.55C189.891 315.55 189.891 315.55 189.891 315.55C189.891 315.55 189.891 315.55 189.891 315.55C189.891 315.55 189.891 315.55 189.891 315.55C189.891 315.55 189.891 315.55 189.891 315.55C189.891 315.55 189.891 315.55 189.891 315.55C189.891 315.55 189.891 315.55 189.891 315.55C189.891 315.55 189.891 315.55 189.891 315.55C189.891 315.55 189.891 315.55 189.891 315.55C189.891 315.55 189.891 315.55 189.891 315.55C189.891 315.55 189.891 315.55 189.891 315.55C189.891 315.55 189.891 315.55 189.891 315.55C189.891 315.55 189.891 315.55 189.891 315.55C189.891 315.55 189.891 315.55 189.891 315.55C189.891 315.55 189.891 315.55 189.891 315.55C189.891 315.55 189.891 315.55 189.891 315.55C189.891 315.55 189.891 315.55 189.891 315.55C189.891 315.55 189.891 315.55 189.891 315.55C189.891 315.55 189.891 315.55 189.891 315.55C189.891 315.55 189.891 315.55 189.891 315.55C189.891 315.55 189.891 315.55 189.891 315.55C189.891 315.55 189.891 315.55 189.891 315.55C189.891 315.55 189.891 315.55 189.891 315.55C189.891 315.55 189.891 315.55 189.891 315.55C189.891 315.55 189.891 315.55 189.891 315.55C189.891 315.55 189.891 315.55 189.891 315.55C189.891 315.55 189.891 315.55 189.891 315.55C189.891 315.55 189.891 315.55 189.891 315.55C189.891 315.55 189.891 315.55 189.891 315.55C189.891 315.55 189.891 315.55 189.891 315.55C189.891 315.55 189.891 315.55 189.891 315.55C189.891 315.55 189.891 315.55 189.891 315.55C189.891 315.551 189.891 315.551 189.891 315.551C189.891 315.551 189.891 315.551 189.891 315.551C189.891 315.551 189.891 315.551 189.891 315.551C189.891 315.551 189.891 315.551 189.891 315.551C189.891 315.551 189.891 315.551 189.891 315.551C189.891 315.551 189.891 315.551 189.891 315.551C189.891 315.551 189.891 315.551 189.891 315.551C189.891 315.551 189.891 315.551 189.891 315.551C189.891 315.551 189.891 315.551 189.891 315.551C189.891 315.551 189.891 315.551 189.891 315.551C189.891 315.551 189.891 315.551 189.891 315.551C189.891 315.551 189.891 315.551 189.891 315.551C189.891 315.551 189.891 315.551 189.891 315.551C189.891 315.551 189.891 315.551 189.891 315.551C189.891 315.551 189.891 315.551 189.891 315.551C189.891 315.551 189.891 315.551 189.891 315.551C189.891 315.551 189.891 315.551 189.891 315.551C189.891 315.551 189.891 315.551 189.891 315.551C189.891 315.551 189.891 315.551 189.891 315.551C189.891 315.551 189.891 315.551 189.891 315.551C189.891 315.551 189.891 315.551 189.891 315.551C189.891 315.551 189.891 315.551 189.891 315.551C189.891 315.551 189.891 315.551 189.891 315.551C189.891 315.551 189.891 315.551 189.891 315.551C189.891 315.551 189.891 315.551 189.891 315.551C189.891 315.551 189.891 315.551 189.891 315.551C189.891 315.551 189.891 315.551 189.891 315.551C189.891 315.551 189.891 315.551 189.891 315.551C189.891 315.551 189.891 315.551 189.891 315.551C189.891 315.551 189.891 315.551 189.891 315.551C189.891 315.551 189.891 315.551 189.891 315.551C189.891 315.551 189.891 315.551 189.891 315.551C189.891 315.551 189.891 315.551 189.891 315.551C189.891 315.551 189.891 315.551 189.891 315.551C189.891 315.551 189.891 315.551 189.891 315.551C189.891 315.551 189.891 315.551 189.891 315.551C189.891 315.551 189.891 315.551 189.891 315.551C189.891 315.551 189.891 315.551 189.891 315.551C189.891 315.551 189.891 315.551 189.891 315.551C189.891 315.551 189.891 315.551 189.891 315.551C189.891 315.551 189.891 315.551 189.891 315.551C189.891 315.551 189.891 315.551 189.891 315.551C189.891 315.551 189.891 315.551 189.891 315.551C189.891 315.551 189.891 315.551 189.891 315.551C189.891 315.551 189.891 315.551 189.891 315.551C189.891 315.551 189.891 315.551 189.891 315.551C189.891 315.551 189.891 315.551 189.891 315.551C189.891 315.551 189.891 315.551 189.891 315.551C189.891 315.551 189.891 315.551 189.891 315.551C189.891 315.551 189.891 315.551 189.891 315.551C189.891 315.551 189.891 315.551 189.891 315.551C189.891 315.551 189.891 315.551 189.891 315.551C189.891 315.551 189.891 315.551 189.891 315.551C189.891 315.551 189.891 315.551 189.891 315.551C189.891 315.551 189.891 315.551 189.891 315.551C189.891 315.551 189.891 315.551 189.891 315.551C189.891 315.551 189.891 315.551 189.891 315.551C189.891 315.551 189.891 315.551 189.891 315.551C189.891 315.551 189.891 315.551 189.891 315.551C189.891 315.551 189.891 315.551 189.891 315.551C189.891 315.551 189.891 315.551 189.891 315.551C189.891 315.551 189.891 315.551 189.891 315.551C189.891 315.551 189.891 315.551 189.891 315.551C189.891 315.551 189.891 315.551 189.891 315.551C189.891 315.551 189.891 315.551 189.891 315.551C189.891 315.551 189.891 315.551 189.891 315.551C189.891 315.551 189.891 315.551 189.891 315.551C189.891 315.551 189.891 315.551 189.891 315.551C189.891 315.551 189.891 315.551 189.891 315.551C189.891 315.551 189.891 315.551 189.891 315.551C189.891 315.551 189.891 315.551 189.891 315.551C189.891 315.551 189.891 315.551 189.891 315.551C189.891 315.551 189.891 315.551 189.891 315.551C189.891 315.551 189.891 315.552 189.891 315.552C189.891 315.552 189.891 315.552 189.891 315.552C189.891 315.552 189.891 315.552 189.891 315.552C189.891 315.552 189.891 315.552 189.891 315.552C189.891 315.552 189.891 315.552 189.891 315.552C189.891 315.552 189.891 315.552 189.891 315.552C189.891 315.552 189.891 315.552 189.891 315.552C189.891 315.552 189.891 315.552 189.891 315.552C189.891 315.552 189.891 315.552 189.891 315.552C189.891 315.552 189.891 315.552 189.891 315.552C189.891 315.552 189.891 315.552 189.891 315.552C189.891 315.552 189.891 315.552 189.891 315.552C189.891 315.552 189.891 315.552 189.891 315.552C189.891 315.552 189.891 315.552 189.891 315.552C189.891 315.552 189.891 315.552 189.891 315.552C189.891 315.552 189.891 315.552 189.891 315.552C189.891 315.552 189.891 315.552 189.891 315.552C189.891 315.552 189.891 315.552 189.891 315.552C189.891 315.552 189.891 315.552 189.891 315.552C189.891 315.552 189.891 315.552 189.891 315.552C189.891 315.552 189.891 315.552 189.891 315.552C189.891 315.552 189.891 315.552 189.891 315.552C189.891 315.552 189.891 315.552 189.891 315.552C189.891 315.552 189.891 315.552 189.891 315.552C189.891 315.552 189.891 315.552 189.891 315.552C189.891 315.552 189.891 315.552 189.891 315.552C189.891 315.552 189.891 315.552 189.891 315.552C189.891 315.552 189.891 315.552 189.891 315.552C189.891 315.552 189.891 315.552 189.891 315.552C189.891 315.552 189.891 315.552 189.891 315.552C189.891 315.552 189.891 315.552 189.891 315.552C189.891 315.552 189.891 315.552 189.891 315.552C189.891 315.552 189.891 315.552 189.891 315.552C189.891 315.552 189.891 315.552 189.891 315.552C189.891 315.552 189.891 315.552 189.891 315.552C189.891 315.552 189.891 315.552 189.891 315.552C189.891 315.552 189.891 315.552 189.891 315.552C189.891 315.552 189.891 315.552 189.891 315.552C189.891 315.552 189.891 315.552 189.891 315.552C189.891 315.552 189.891 315.552 189.891 315.552C189.891 315.552 189.891 315.552 189.891 315.552C189.891 315.552 189.891 315.552 189.891 315.552L191.891 315.552ZM190.891 314.552L101.645 314.552L101.645 316.552L190.891 316.552L190.891 314.552ZM102.645 315.552L102.645 100.027L100.645 100.027L100.645 315.552L102.645 315.552ZM101.645 101.027L316.64 101.027L316.64 99.0274L101.645 99.0273L101.645 101.027ZM315.64 100.027L315.64 315.552L317.64 315.552L317.64 100.027L315.64 100.027ZM316.64 314.552L227.389 314.552L227.389 316.552L316.64 316.552L316.64 314.552ZM226.389 315.545C226.389 315.546 226.389 315.548 226.389 315.549C226.389 315.55 226.389 315.551 226.389 315.552L228.389 315.552C228.389 315.551 228.389 315.549 228.389 315.549C228.389 315.547 228.389 315.547 228.389 315.545L226.389 315.545Z" fill="#003E29" mask="url(#path-7-inside-2_5_2227)"/>
</g>
</g>
</svg>
