<svg width="43" height="43" viewBox="0 0 43 43" fill="none" xmlns="http://www.w3.org/2000/svg">
<ellipse opacity="0.1" cx="21.4474" cy="21.5002" rx="21.4471" ry="21.4998" transform="rotate(-180 21.4474 21.5002)" fill="#D9D9D9"/>
<rect x="42.8945" y="43" width="42.8942" height="42.9997" rx="21.4471" transform="rotate(-180 42.8945 43)" fill="#0000C1"/>
<mask id="mask0_14154_1982" style="mask-type:alpha" maskUnits="userSpaceOnUse" x="4" y="6" width="35" height="35">
<rect x="38.4219" y="40.9727" width="33.9477" height="34.0312" transform="rotate(-180 38.4219 40.9727)" fill="#AAAAAA"/>
</mask>
<g mask="url(#mask0_14154_1982)">
<mask id="mask1_14154_1982" style="mask-type:alpha" maskUnits="userSpaceOnUse" x="6" y="11" width="31" height="28">
<path d="M21.4239 38.1719L6.09765 11.5608L36.7501 11.5608L21.4239 38.1719Z" fill="#959595"/>
</mask>
<g mask="url(#mask1_14154_1982)">
<rect width="2.94201" height="23.6244" transform="matrix(-0.865493 -0.500922 0.499079 -0.866556 25.5781 31.127)" fill="white"/>
<rect width="2.94201" height="32.421" transform="matrix(0.865493 -0.500921 -0.499079 -0.866556 21.8086 38.8535)" fill="white"/>
<mask id="mask2_14154_1982" style="mask-type:alpha" maskUnits="userSpaceOnUse" x="18" y="11" width="13" height="11">
<path d="M24.576 21.4863L18.8097 11.4742L30.3423 11.4742L24.576 21.4863Z" fill="#AFAFAF"/>
</mask>
<g mask="url(#mask2_14154_1982)">
<rect width="2.94201" height="12.9992" transform="matrix(0.865493 -0.500921 -0.499079 -0.866556 24.6172 21.7129)" fill="white"/>
<rect width="2.94201" height="13.252" transform="matrix(-0.865493 -0.500922 0.499079 -0.866556 24.4219 21.9316)" fill="white"/>
</g>
<path d="M24.7813 32.834L26.3499 29.6389L26.1301 29.2579L26.0226 29.079L25.8077 28.7214L24.2132 25.9527L21.024 20.4154L14.6457 9.34067L12.0994 10.8144L18.4777 21.8891L21.6669 27.4265L23.2614 30.1951L24.0587 31.5795L24.4574 32.2716L24.6567 32.6177L24.7564 32.7908L24.7813 32.834Z" fill="white"/>
</g>
</g>
<rect x="42.8945" y="43" width="42.8942" height="42.9997" rx="21.4471" transform="rotate(-180 42.8945 43)" fill="#0000C1"/>
<path fill-rule="evenodd" clip-rule="evenodd" d="M12.4603 19.1886L21.4155 35.3203L30.3707 19.1886L21.4155 14.6987L12.4603 19.1886ZM18.3655 22.0512L21.4155 27.5471L24.4655 22.0512L21.4155 20.5215L18.3655 22.0512ZM19.7466 11.5882L8.25396 11.5882L11.4832 17.4002L21.4375 12.4321L31.3918 17.4003L34.6211 11.5881L19.7466 11.5881L19.7466 11.5882Z" fill="white"/>
<path d="M21.5526 0.500331C33.1202 0.500333 42.4996 9.90112 42.4996 21.5002C42.4996 33.0992 33.1202 42.5 21.5526 42.5C9.98496 42.5 0.60547 33.0992 0.605471 21.5002C0.605473 9.90112 9.98496 0.500329 21.5526 0.500331Z" fill="#003E29" stroke="#003E29"/>
<mask id="mask3_14154_1982" style="mask-type:alpha" maskUnits="userSpaceOnUse" x="10" y="10" width="23" height="23">
<rect x="11.0469" y="31.8066" width="21.0656" height="21.0115" transform="rotate(-90 11.0469 31.8066)" fill="white" stroke="#003E29"/>
</mask>
<g mask="url(#mask3_14154_1982)">
<mask id="mask4_14154_1982" style="mask-type:alpha" maskUnits="userSpaceOnUse" x="7" y="4" width="30" height="25">
<path d="M35.6164 20.6276L35.6164 4.89559L8.33985 4.89558L8.33984 20.6276L15.1675 22.1939L18.8021 25.8034L21.8592 27.8125L26.3431 23.4879L35.6164 20.6276Z" fill="#0DAB0C" stroke="#003E29"/>
</mask>
<g mask="url(#mask4_14154_1982)">
<mask id="path-16-inside-1_14154_1982" fill="white">
<path fill-rule="evenodd" clip-rule="evenodd" d="M19.69 32.3065L19.69 32.3065L19.6833 32.3065C19.6833 31.1037 19.447 29.9127 18.9879 28.8015C18.5287 27.6903 17.8557 26.6806 17.0073 25.8301C16.1589 24.9797 15.1517 24.305 14.0432 23.8447C12.9348 23.3845 11.7467 23.1476 10.5469 23.1476L10.5469 32.3066L32.5584 32.3066L32.5584 10.241L10.5469 10.241L10.5469 19.4066C12.2368 19.4066 13.9101 19.7402 15.4713 20.3885C17.0326 21.0368 18.4512 21.987 19.6461 23.1849C20.3786 23.9192 21.0182 24.7377 21.5526 25.6217C22.0869 24.7377 22.7265 23.9192 23.459 23.1849C24.6539 21.987 26.0725 21.0368 27.6338 20.3886C29.195 19.7403 30.8684 19.4066 32.5582 19.4066L32.5582 23.1476C31.3584 23.1476 30.1704 23.3845 29.0619 23.8448C27.9534 24.305 26.9462 24.9797 26.0978 25.8302C25.2494 26.6807 24.5764 27.6903 24.1173 28.8015C23.6581 29.9127 23.4218 31.1037 23.4218 32.3065L19.69 32.3065Z"/>
</mask>
<path fill-rule="evenodd" clip-rule="evenodd" d="M19.69 32.3065L19.69 32.3065L19.6833 32.3065C19.6833 31.1037 19.447 29.9127 18.9879 28.8015C18.5287 27.6903 17.8557 26.6806 17.0073 25.8301C16.1589 24.9797 15.1517 24.305 14.0432 23.8447C12.9348 23.3845 11.7467 23.1476 10.5469 23.1476L10.5469 32.3066L32.5584 32.3066L32.5584 10.241L10.5469 10.241L10.5469 19.4066C12.2368 19.4066 13.9101 19.7402 15.4713 20.3885C17.0326 21.0368 18.4512 21.987 19.6461 23.1849C20.3786 23.9192 21.0182 24.7377 21.5526 25.6217C22.0869 24.7377 22.7265 23.9192 23.459 23.1849C24.6539 21.987 26.0725 21.0368 27.6338 20.3886C29.195 19.7403 30.8684 19.4066 32.5582 19.4066L32.5582 23.1476C31.3584 23.1476 30.1704 23.3845 29.0619 23.8448C27.9534 24.305 26.9462 24.9797 26.0978 25.8302C25.2494 26.6807 24.5764 27.6903 24.1173 28.8015C23.6581 29.9127 23.4218 31.1037 23.4218 32.3065L19.69 32.3065Z" fill="#0DAB0C"/>
<path d="M19.69 32.3065L20.69 32.3065L20.69 31.3065L19.69 31.3065L19.69 32.3065ZM19.69 32.3065L18.69 32.3065L18.69 33.3065L19.69 33.3065L19.69 32.3065ZM19.6833 32.3065L18.6833 32.3065L18.6833 33.3065L19.6833 33.3065L19.6833 32.3065ZM18.9879 28.8015L18.0636 29.1834L18.0637 29.1834L18.9879 28.8015ZM10.5469 23.1476L10.5469 22.1476L9.54688 22.1476L9.54688 23.1476L10.5469 23.1476ZM10.5469 32.3066L9.54688 32.3066L9.54688 33.3066L10.5469 33.3066L10.5469 32.3066ZM32.5584 32.3066L32.5584 33.3066L33.5584 33.3066L33.5584 32.3066L32.5584 32.3066ZM32.5584 10.241L33.5584 10.241L33.5584 9.24102L32.5584 9.24102L32.5584 10.241ZM10.5469 10.241L10.5469 9.24101L9.54688 9.24101L9.54688 10.241L10.5469 10.241ZM10.5469 19.4066L9.54688 19.4066L9.54688 20.4066L10.5469 20.4066L10.5469 19.4066ZM15.4713 20.3885L15.8548 19.465L15.8548 19.465L15.4713 20.3885ZM19.6461 23.1849L20.3541 22.4786L19.6461 23.1849ZM21.5526 25.6217L20.6967 26.139L21.5526 27.555L22.4084 26.139L21.5526 25.6217ZM23.459 23.1849L22.751 22.4787L23.459 23.1849ZM27.6338 20.3886L28.0173 21.3121L27.6338 20.3886ZM32.5582 19.4066L33.5582 19.4066L33.5582 18.4066L32.5582 18.4066L32.5582 19.4066ZM32.5582 23.1476L32.5582 24.1476L33.5582 24.1476L33.5582 23.1476L32.5582 23.1476ZM29.0619 23.8448L29.4454 24.7683L29.4454 24.7683L29.0619 23.8448ZM24.1173 28.8015L25.0415 29.1834L24.1173 28.8015ZM23.4218 32.3065L23.4218 33.3065L24.4218 33.3065L24.4218 32.3065L23.4218 32.3065ZM18.69 32.3065L18.69 32.3065L20.69 32.3065L20.69 32.3065L18.69 32.3065ZM19.6833 33.3065L19.69 33.3065L19.69 31.3065L19.6833 31.3065L19.6833 33.3065ZM18.0637 29.1834C18.4727 30.1735 18.6833 31.2347 18.6833 32.3065L20.6833 32.3065C20.6833 30.9727 20.4213 29.652 19.9121 28.4196L18.0637 29.1834ZM16.2994 26.5364C17.055 27.2939 17.6546 28.1933 18.0636 29.1834L19.9121 28.4196C19.4029 27.1873 18.6564 26.0674 17.7153 25.1239L16.2994 26.5364ZM13.6598 24.7683C14.6467 25.1781 15.5437 25.7789 16.2994 26.5364L17.7153 25.1239C16.7742 24.1804 15.6567 23.4319 14.4267 22.9212L13.6598 24.7683ZM10.5469 24.1476C11.615 24.1476 12.6728 24.3585 13.6598 24.7683L14.4267 22.9212C13.1967 22.4105 11.8784 22.1476 10.5469 22.1476L10.5469 24.1476ZM11.5469 32.3066L11.5469 23.1476L9.54688 23.1476L9.54688 32.3066L11.5469 32.3066ZM32.5584 31.3066L10.5469 31.3066L10.5469 33.3066L32.5584 33.3066L32.5584 31.3066ZM31.5584 10.241L31.5584 32.3066L33.5584 32.3066L33.5584 10.241L31.5584 10.241ZM10.5469 11.241L32.5584 11.241L32.5584 9.24102L10.5469 9.24101L10.5469 11.241ZM11.5469 19.4066L11.5469 10.241L9.54688 10.241L9.54688 19.4066L11.5469 19.4066ZM15.8548 19.465C14.1721 18.7662 12.3684 18.4066 10.5469 18.4066L10.5469 20.4066C12.1051 20.4066 13.6481 20.7142 15.0879 21.3121L15.8548 19.465ZM20.3541 22.4786C19.0664 21.1878 17.5376 20.1637 15.8548 19.465L15.0879 21.3121C16.5276 21.9099 17.8359 22.7862 18.9381 23.8911L20.3541 22.4786ZM22.4084 25.1045C21.8326 24.1519 21.1434 23.2699 20.3541 22.4786L18.9381 23.8911C19.6138 24.5684 20.2038 25.3234 20.6967 26.139L22.4084 25.1045ZM22.751 22.4787C21.9617 23.2699 21.2725 24.1519 20.6967 25.1045L22.4084 26.139C22.9013 25.3235 23.4914 24.5684 24.167 23.8911L22.751 22.4787ZM27.2503 19.465C25.5675 20.1637 24.0387 21.1878 22.751 22.4787L24.167 23.8911C25.2692 22.7862 26.5775 21.9099 28.0173 21.3121L27.2503 19.465ZM32.5582 18.4066C30.7367 18.4066 28.933 18.7663 27.2503 19.465L28.0173 21.3121C29.457 20.7143 31 20.4066 32.5582 20.4066L32.5582 18.4066ZM33.5582 23.1476L33.5582 19.4066L31.5582 19.4066L31.5582 23.1476L33.5582 23.1476ZM29.4454 24.7683C30.4323 24.3585 31.4901 24.1476 32.5582 24.1476L32.5582 22.1476C31.2268 22.1476 29.9084 22.4105 28.6784 22.9212L29.4454 24.7683ZM26.8058 26.5364C27.5614 25.7789 28.4584 25.1781 29.4454 24.7683L28.6784 22.9212C27.4484 23.4319 26.331 24.1805 25.3898 25.1239L26.8058 26.5364ZM25.0415 29.1834C25.4506 28.1934 26.0501 27.2939 26.8058 26.5364L25.3898 25.1239C24.4487 26.0674 23.7023 27.1873 23.193 28.4197L25.0415 29.1834ZM24.4218 32.3065C24.4218 31.2347 24.6324 30.1735 25.0415 29.1834L23.193 28.4197C22.6838 29.652 22.4218 30.9728 22.4218 32.3065L24.4218 32.3065ZM19.69 33.3065L23.4218 33.3065L23.4218 31.3065L19.69 31.3065L19.69 33.3065Z" fill="#003E29" mask="url(#path-16-inside-1_14154_1982)"/>
</g>
<mask id="mask5_14154_1982" style="mask-type:alpha" maskUnits="userSpaceOnUse" x="7" y="21" width="30" height="17">
<path d="M8.30546 21.8184L8.30545 36.8012L35.582 36.8012L35.582 21.8184L29.196 21.8184L21.5531 27.4369L14 21.8184L8.30546 21.8184Z" fill="#D9D9D9" stroke="#003E29"/>
</mask>
<g mask="url(#mask5_14154_1982)">
<mask id="path-19-inside-2_14154_1982" fill="white">
<path fill-rule="evenodd" clip-rule="evenodd" d="M19.6547 32.3043L19.6547 32.3043L19.648 32.3043C19.648 32.3044 19.648 32.3045 19.648 32.3047L10.5117 32.3047L10.5117 10.239L32.5232 10.239L32.5232 32.3047L23.3865 32.3047C23.3865 32.3045 23.3865 32.3044 23.3865 32.3043L19.6547 32.3043Z"/>
</mask>
<path fill-rule="evenodd" clip-rule="evenodd" d="M19.6547 32.3043L19.6547 32.3043L19.648 32.3043C19.648 32.3044 19.648 32.3045 19.648 32.3047L10.5117 32.3047L10.5117 10.239L32.5232 10.239L32.5232 32.3047L23.3865 32.3047C23.3865 32.3045 23.3865 32.3044 23.3865 32.3043L19.6547 32.3043Z" fill="#FE7506"/>
<path d="M19.6547 32.3043L19.6547 33.3043L20.6547 33.3043L20.6547 32.3043L19.6547 32.3043ZM19.6547 32.3043L19.6547 31.3043L18.6547 31.3043L18.6547 32.3043L19.6547 32.3043ZM19.648 32.3043L19.648 31.3043L18.648 31.3043L18.648 32.3043L19.648 32.3043ZM19.648 32.3047L19.648 33.3047L20.648 33.3047L20.648 32.3047L19.648 32.3047ZM10.5117 32.3047L9.51173 32.3047L9.51173 33.3047L10.5117 33.3047L10.5117 32.3047ZM10.5117 10.239L10.5117 9.23904L9.51174 9.23904L9.51174 10.239L10.5117 10.239ZM32.5232 10.239L33.5232 10.239L33.5232 9.23905L32.5232 9.23905L32.5232 10.239ZM32.5232 32.3047L32.5232 33.3047L33.5232 33.3047L33.5232 32.3047L32.5232 32.3047ZM23.3865 32.3047L22.3865 32.3047L22.3865 33.3047L23.3865 33.3047L23.3865 32.3047ZM23.3865 32.3043L24.3865 32.3043L24.3865 31.3043L23.3865 31.3043L23.3865 32.3043ZM20.6547 32.3043L20.6547 32.3043L18.6547 32.3043L18.6547 32.3043L20.6547 32.3043ZM19.648 33.3043L19.6547 33.3043L19.6547 31.3043L19.648 31.3043L19.648 33.3043ZM20.648 32.3047C20.648 32.3046 20.648 32.3045 20.648 32.3045C20.648 32.3044 20.648 32.3043 20.648 32.3043L18.648 32.3043C18.648 32.3043 18.648 32.3044 18.648 32.3045C18.648 32.3045 18.648 32.3046 18.648 32.3047L20.648 32.3047ZM19.648 31.3047L10.5117 31.3047L10.5117 33.3047L19.648 33.3047L19.648 31.3047ZM11.5117 32.3047L11.5117 10.239L9.51174 10.239L9.51173 32.3047L11.5117 32.3047ZM10.5117 11.239L32.5232 11.239L32.5232 9.23905L10.5117 9.23904L10.5117 11.239ZM31.5232 10.239L31.5232 32.3047L33.5232 32.3047L33.5232 10.239L31.5232 10.239ZM32.5232 31.3047L23.3865 31.3047L23.3865 33.3047L32.5232 33.3047L32.5232 31.3047ZM22.3865 32.3043C22.3865 32.3043 22.3865 32.3044 22.3865 32.3045C22.3865 32.3045 22.3865 32.3046 22.3865 32.3047L24.3865 32.3047C24.3865 32.3046 24.3865 32.3045 24.3865 32.3045C24.3865 32.3044 24.3865 32.3043 24.3865 32.3043L22.3865 32.3043ZM19.6547 33.3043L23.3865 33.3043L23.3865 31.3043L19.6547 31.3043L19.6547 33.3043Z" fill="#003E29" mask="url(#path-19-inside-2_14154_1982)"/>
</g>
</g>
</svg>
