<svg xmlns="http://www.w3.org/2000/svg" xmlns:xlink="http://www.w3.org/1999/xlink" fill="none" version="1.1" width="42.89453125" height="43" viewBox="0 0 42.89453125 43"><defs><mask id="master_svg0_0_32636" style="mask-type:alpha" maskUnits="userSpaceOnUse"><g><rect x="10.666597366333008" y="10.46728515625" width="22.01165199279785" height="22.06578826904297" rx="0" fill="#FFFFFF" fill-opacity="1"/></g></mask><mask id="master_svg1_0_32638" style="mask-type:alpha" maskUnits="userSpaceOnUse"><g><path d="M22.317732478027345,35.597867285156255C22.317732478027345,35.597867285156255,38.011252478027345,35.597867285156255,38.011252478027345,35.597867285156255C38.011252478027345,35.597867285156255,38.011252478027345,8.25396728515625,38.011252478027345,8.25396728515625C38.011252478027345,8.25396728515625,22.317732478027345,8.25396728515625,22.317732478027345,8.25396728515625C22.317732478027345,8.25396728515625,20.755172478027344,15.09844728515625,20.755172478027344,15.09844728515625C20.755172478027344,15.09844728515625,17.154502478027343,18.74206728515625,17.154502478027343,18.74206728515625C17.154502478027343,18.74206728515625,15.150352478027344,21.806767285156248,15.150352478027344,21.806767285156248C15.150352478027344,21.806767285156248,19.464362478027343,26.30156728515625,19.464362478027343,26.30156728515625C19.464362478027343,26.30156728515625,22.317732478027345,35.597867285156255,22.317732478027345,35.597867285156255C22.317732478027345,35.597867285156255,22.317732478027345,35.597867285156255,22.317732478027345,35.597867285156255Z" fill="#FFFFFF" fill-opacity="1"/></g></mask><mask id="master_svg2_0_32645" style="mask-type:alpha" maskUnits="userSpaceOnUse"><g transform="matrix(-1,-8.763779391074422e-8,8.72082779324046e-8,-1,42.258768794908804,71.12750429313903)"><path d="M21.12938834541115,62.90765122070313C21.12938834541115,62.90765122070313,36.07558594818115,62.90765122070313,36.07558594818115,62.90765122070313C36.07558594818115,62.90765122070313,36.07558594818115,35.563751220703125,36.07558594818115,35.563751220703125C36.07558594818115,35.563751220703125,21.129385948181152,35.563751220703125,21.129385948181152,35.563751220703125C21.129385948181152,35.563751220703125,21.129385948181152,41.96555122070313,21.129385948181152,41.96555122070313C21.129385948181152,41.96555122070313,23.778935948181154,46.256151220703124,23.778935948181154,46.256151220703124C23.778935948181154,46.256151220703124,26.734205948181152,49.62725122070312,26.734205948181152,49.62725122070312C26.734205948181152,49.62725122070312,21.129385948181152,55.688551220703125,21.129385948181152,55.688551220703125C21.129385948181152,55.688551220703125,21.12938834541115,62.90765122070313,21.12938834541115,62.90765122070313C21.12938834541115,62.90765122070313,21.12938834541115,62.90765122070313,21.12938834541115,62.90765122070313Z" fill="#FFFFFF" fill-opacity="1"/></g></mask></defs><g><g><g><ellipse cx="21.447248458862305" cy="21.5" rx="21.447248458862305" ry="21.5" fill="#003E29" fill-opacity="1"/><ellipse cx="21.447248458862305" cy="21.5" rx="20.947248458862305" ry="21" fill-opacity="0" stroke-opacity="1" stroke="#003E29" fill="none" stroke-width="1"/></g><g mask="url(#master_svg0_0_32636)"><g mask="url(#master_svg1_0_32638)"><g><path d="M10.669130799517822,23.36731240234375L10.669134609517823,23.36731240234375L10.669134619517822,23.37551240234375C11.880711849517823,23.37551240234375,13.046181849517822,23.60791240234375,14.165531849517823,24.07271240234375C15.284881849517824,24.53751240234375,16.27292184951782,25.19931240234375,17.12963184951782,26.058112402343752Q18.414711849517822,27.34631240234375,19.110181849517822,29.02951240234375Q19.805591849517825,30.71251240234375,19.805661849517822,32.53411240234375L10.666454792017822,32.53411240234375L10.666456699417822,10.46832847634375L19.805661849517822,10.46832926834375Q19.805471849517822,12.289622402343749,19.110181849517822,13.97232240234375Q18.414701849517822,15.65548240234375,17.12963184951782,16.94371240234375Q15.844561849517822,18.23195240234375,14.165531849517823,18.92913240234375Q12.486501849517822,19.62632240234375,10.669130799517822,19.62632240234375L10.669130799517822,23.36731240234375ZM23.53749184951782,10.46832959134375C23.537391849517824,12.17861240234375,23.210791849517822,13.82381240234375,22.557891849517823,15.40394240234375Q21.57839184951782,17.77458240234375,19.768431849517825,19.589002402343752Q18.658741849517824,20.70141240234375,17.34049184951782,21.50091240234375Q18.65875184951782,22.300412402343753,19.768431849517825,23.41281240234375Q21.57839184951782,25.22721240234375,22.557891849517823,27.59791240234375C23.21089184951782,29.17821240234375,23.537391849517824,30.82361240234375,23.53749184951782,32.53411240234375L32.67809184951783,32.53411240234375L32.67809184951783,10.46833038334375L23.53749184951782,10.46832959134375Z" fill-rule="evenodd" fill="#0DAB0C" fill-opacity="1"/><path d="M11.666451849517822,19.57270240234375Q12.952121849517823,19.43298240234375,14.165531849517823,18.92913240234375Q15.844561849517822,18.23195240234375,17.12963184951782,16.94371240234375Q18.414701849517822,15.65548240234375,19.110181849517822,13.97232240234375Q19.61255184951782,12.75650240234375,19.752041849517823,11.46833240234375Q19.805611849517824,10.97366440234375,19.805661849517822,10.46832926834375L18.805661849517822,10.46832918134375L11.666451849517822,10.46832856234375L10.666456699417822,10.46832847634375L10.666456612917822,11.46833240234375L10.666455994217822,18.62632240234375L10.666455497217822,24.37551240234375L10.666454878417822,31.53411240234375L10.666454792017822,32.53411240234375L19.805661849517822,32.53411240234375Q19.805641849517823,32.028812402343746,19.752111849517824,31.53411240234375Q19.61268184951782,30.24561240234375,19.110181849517822,29.02951240234375Q18.414711849517822,27.34631240234375,17.12963184951782,26.058112402343752Q15.844561849517822,24.76991240234375,14.165531849517823,24.07271240234375C13.356591849517823,23.73681240234375,12.523561849517822,23.52231240234375,11.666451849517822,23.429112402343748C11.337561849517822,23.39341240234375,11.005120849517823,23.37551240234375,10.669134619517822,23.37551240234375L10.669134609517823,23.36731240234375L10.669130799517822,23.36731240234375L10.669130799517822,19.62632240234375Q11.173111849517822,19.62632240234375,11.666451849517822,19.57270240234375ZM11.666451849517822,24.43591240234375L11.666451849517822,31.53411240234375L18.745411849517822,31.53411240234375Q18.612431849517822,30.44351240234375,18.185971849517824,29.41141240234375Q17.56639184951782,27.91191240234375,16.42166184951782,26.76431240234375Q15.277201849517823,25.61711240234375,13.782041849517823,24.99621240234375Q12.753401849517822,24.569112402343748,11.666451849517822,24.43591240234375ZM11.666451849517822,18.56594240234375Q12.753391849517822,18.43272240234375,13.782041849517823,18.00559240234375Q15.277191849517823,17.38475240234375,16.42166184951782,16.237472402343748Q17.56638184951782,15.08993240234375,18.185971849517824,13.59044240234375Q18.612311849517823,12.55864240234375,18.74533184951782,11.46833240234375L11.666451849517822,11.46833240234375L11.666451849517822,18.56594240234375ZM22.557891849517823,15.40394240234375C23.210791849517822,13.82381240234375,23.537391849517824,12.17861240234375,23.53749184951782,10.46832959134375L31.678091849517823,10.46833029634375L32.67809184951783,10.46833038334375L32.67809184951783,11.46833240234375L32.67809184951783,31.53411240234375L32.67809184951783,32.53411240234375L23.53749184951782,32.53411240234375C23.537391849517824,30.82361240234375,23.21089184951782,29.17821240234375,22.557891849517823,27.59791240234375Q21.57839184951782,25.22721240234375,19.768431849517825,23.41281240234375Q19.053201849517823,22.695812402343748,18.251321849517822,22.10881240234375Q17.80909184951782,21.78511240234375,17.34049184951782,21.50091240234375Q17.80909184951782,21.216712402343752,18.251321849517822,20.89301240234375Q19.053201849517823,20.305992402343747,19.768431849517825,19.589002402343752Q21.57839184951782,17.77458240234375,22.557891849517823,15.40394240234375ZM19.107061849517823,21.50091240234375Q19.825351849517823,22.053912402343748,20.476411849517824,22.70661240234375Q22.426691849517823,24.661712402343753,23.48219184951782,27.21601240234375Q24.345191849517825,29.30471240234375,24.502491849517824,31.53411240234375L31.678091849517823,31.53411240234375L31.678091849517823,11.46833240234375L24.50239184951782,11.46833240234375Q24.34509184951782,13.69740240234375,23.48219184951782,15.78582240234375Q22.426691849517823,18.340132402343748,20.47640184951782,20.29524240234375Q19.825351849517823,20.94791240234375,19.107061849517823,21.50091240234375Z" fill-rule="evenodd" fill="#003E29" fill-opacity="1"/></g></g><g mask="url(#master_svg2_0_32645)"><g><path d="M10.670279500231933,23.33325478515625C12.376730550231933,23.33325478515625,14.018230550231934,23.00595478515625,15.594780550231935,22.35135478515625C15.725410550231935,22.29705478515625,15.854770550231933,22.240954785156248,15.982850550231934,22.182854785156252C17.045110550231932,22.73055478515625,18.004050550231934,23.43325478515625,18.859650550231933,24.290954785156252Q20.488620550231936,25.923954785156248,21.370240550231934,28.05745478515625C21.957840550231936,29.47975478515625,22.251740550231933,30.96065478515625,22.251840550231933,32.50005478515625L10.667603492731933,32.50005478515625L10.667605400131933,10.43427085915625L22.251840550231933,10.43427186215625C22.251640550231933,11.97349478515625,21.957840550231936,13.45414478515625,21.370240550231934,14.87622478515625Q20.488620550231936,17.00980478515625,18.859650550231933,18.64277478515625Q17.576240550231933,19.92934478515625,15.982850550231934,20.75085478515625C15.854770550231933,20.69275478515625,15.725410550231935,20.63665478515625,15.594790550231934,20.58245478515625C14.018240550231933,19.92776478515625,12.376730550231933,19.600454785156252,10.670285220231934,19.60044478515625L10.670286180231933,20.89045478515625C11.910610550231933,20.89045478515625,13.112800550231935,21.082554785156248,14.276870550231934,21.46685478515625C13.112800550231935,21.85115478515625,11.910600550231933,22.04325478515625,10.670280460231934,22.04325478515625L10.670279500231933,23.33325478515625ZM23.538640550231932,10.43427197415625C23.538540550231936,12.14455478515625,23.211940550231933,13.78975478515625,22.559040550231934,15.36988478515625Q21.579540550231933,17.74052478515625,19.769580550231936,19.554944785156252Q18.659890550231935,20.66735478515625,17.341640550231933,21.46685478515625Q18.65990055023193,22.266354785156253,19.769580550231936,23.37875478515625Q21.579540550231933,25.19315478515625,22.559040550231934,27.56385478515625C23.212040550231933,29.14415478515625,23.538540550231936,30.78955478515625,23.538640550231932,32.50005478515625L32.67924055023194,32.50005478515625L32.67924055023194,10.43427276615625L23.538640550231932,10.43427197415625Z" fill-rule="evenodd" fill="#FE7506" fill-opacity="1"/><path d="M11.667600550231933,23.295454785156252C11.337664550231933,23.32065478515625,11.005223550231934,23.33325478515625,10.670279500231933,23.33325478515625L10.670279830231934,23.04325478515625L10.670280460231934,22.04325478515625C11.005506550231933,22.04325478515625,11.337948550231934,22.029254785156247,11.667600550231933,22.001154785156253C11.771720550231933,21.99225478515625,11.875570550231934,21.98205478515625,11.979130550231934,21.97035478515625C12.760880550231933,21.88225478515625,13.526790550231933,21.71445478515625,14.276870550231934,21.46685478515625C13.526790550231933,21.219254785156252,12.760880550231933,21.051454785156253,11.979140550231934,20.96335478515625C11.875570550231934,20.95165478515625,11.771730550231933,20.94145478515625,11.667600550231933,20.93255478515625C11.337949550231933,20.90445478515625,11.005510550231934,20.89045478515625,10.670286180231933,20.89045478515625L10.670285960231933,20.600454785156252L10.670285220231934,19.60044478515625C11.005227550231934,19.60044478515625,11.337666550231933,19.61305478515625,11.667600550231933,19.63828478515625L11.670280550231933,19.63848478515625C13.020350550231933,19.74196478515625,14.328520550231934,20.05660478515625,15.594790550231934,20.58245478515625C15.725410550231935,20.63665478515625,15.854770550231933,20.69275478515625,15.982850550231934,20.75085478515625Q17.576240550231933,19.92934478515625,18.859650550231933,18.64277478515625Q20.488620550231936,17.00980478515625,21.370240550231934,14.87622478515625C21.829440550231933,13.76468478515625,22.109340550231934,12.617374785156251,22.209740550231935,11.43427478515625C22.237740550231933,11.10373178515625,22.251740550231933,10.77039878515625,22.251840550231933,10.43427186215625L21.251840550231933,10.43427177615625L11.667600550231933,10.43427094515625L10.667605400131933,10.43427085915625L10.667605313631933,11.43427478515625L10.667604694231933,18.60044478515625L10.667604483031933,21.04325478515625L10.667604409831934,21.89045478515625L10.667604198631933,24.33325478515625L10.667603579131933,31.50005478515625L10.667603492731933,32.50005478515625L11.667600550231933,32.50005478515625L21.251840550231933,32.50005478515625L22.251840550231933,32.50005478515625C22.251740550231933,32.16395478515625,22.237740550231933,31.83055478515625,22.209740550231935,31.50005478515625C22.109440550231934,30.31675478515625,21.829540550231933,29.16925478515625,21.370240550231934,28.05745478515625Q20.488620550231936,25.923954785156248,18.859650550231933,24.290954785156252Q17.576240550231933,23.004354785156252,15.982850550231934,22.182854785156252C15.854770550231933,22.240954785156248,15.725410550231935,22.29705478515625,15.594780550231935,22.35135478515625C14.328510550231933,22.87715478515625,13.020350550231933,23.19175478515625,11.670280550231933,23.29525478515625L11.667600550231933,23.295454785156252ZM21.205740550231933,31.50005478515625Q21.059140550231934,29.92315478515625,20.446000550231936,28.43935478515625Q19.640300550231935,26.48945478515625,18.151680550231934,24.997154785156248Q17.145720550231935,23.98875478515625,15.932730550231934,23.29365478515625Q13.868930550231934,24.14235478515625,11.667600550231933,24.29825478515625L11.667600550231933,31.50005478515625L21.205740550231933,31.50005478515625ZM11.667600550231933,11.43427478515625L11.667600550231933,18.63550478515625Q13.868930550231934,18.79135478515625,15.932730550231934,19.64003478515625Q17.145710550231932,18.944974785156248,18.151670550231934,17.93653478515625Q19.64029055023193,16.44426478515625,20.446000550231936,14.49433478515625Q21.058940550231934,13.01082478515625,21.205640550231934,11.43427478515625L11.667600550231933,11.43427478515625ZM18.252470550231934,22.07475478515625Q19.054350550231934,22.661754785156248,19.769580550231936,23.37875478515625Q21.579540550231933,25.19315478515625,22.559040550231934,27.56385478515625C23.212040550231933,29.14415478515625,23.538540550231936,30.78955478515625,23.538640550231932,32.50005478515625L32.67924055023194,32.50005478515625L32.67924055023194,31.50005478515625L32.67924055023194,11.43427478515625L32.67924055023194,10.43427276615625L31.679240550231935,10.43427268015625L23.538640550231932,10.43427197415625C23.538540550231936,12.14455478515625,23.211940550231933,13.78975478515625,22.559040550231934,15.36988478515625Q21.579540550231933,17.74052478515625,19.769580550231936,19.554944785156252Q19.054350550231934,20.271934785156247,18.252470550231934,20.85895478515625Q17.831050550231932,21.167454785156252,17.385680550231932,21.44005478515625Q17.363620550231936,21.45355478515625,17.341640550231933,21.46685478515625Q17.363610550231932,21.48015478515625,17.385680550231932,21.493654785156252Q17.831050550231932,21.76625478515625,18.252470550231934,22.07475478515625ZM19.108210550231934,21.46685478515625Q19.826500550231934,22.019854785156248,20.477560550231935,22.67255478515625Q22.427840550231934,24.627654785156253,23.483340550231933,27.18195478515625Q24.346340550231936,29.27065478515625,24.503640550231935,31.50005478515625L31.679240550231935,31.50005478515625L31.679240550231935,11.43427478515625L24.503540550231932,11.43427478515625Q24.346240550231933,13.66334478515625,23.483340550231933,15.75176478515625Q22.427840550231934,18.306074785156248,20.477550550231932,20.26118478515625Q19.826500550231934,20.91385478515625,19.108210550231934,21.46685478515625Z" fill-rule="evenodd" fill="#003E29" fill-opacity="1"/></g></g></g></g></g></svg>