<svg width="55" height="54" viewBox="0 0 55 54" fill="none" xmlns="http://www.w3.org/2000/svg">
<g id="Group 7869">
<circle id="Ellipse 253" opacity="0.1" cx="27.1328" cy="27" r="27" fill="#D9D9D9"/>
<g id="Group 7860">
<rect id="Rectangle 3315" x="0.132812" width="54" height="54" rx="27" fill="#0000C1"/>
<g id="Mask group">
<mask id="mask0_13957_2081" style="mask-type:alpha" maskUnits="userSpaceOnUse" x="5" y="2" width="44" height="44">
<rect id="Rectangle 3316" x="5.76367" y="2.54688" width="42.7371" height="42.7371" fill="#AAAAAA"/>
</mask>
<g mask="url(#mask0_13957_2081)">
<g id="Mask group_2">
<mask id="mask1_13957_2081" style="mask-type:alpha" maskUnits="userSpaceOnUse" x="7" y="6" width="40" height="34">
<path id="Polygon 9" d="M27.164 6.06445L46.4584 39.4833H7.86962L27.164 6.06445Z" fill="#959595"/>
</mask>
<g mask="url(#mask1_13957_2081)">
<rect id="Rectangle 3308" x="25.543" y="8.66016" width="3.70146" height="36.9064" transform="rotate(30 25.543 8.66016)" fill="white"/>
<rect id="Rectangle 3315_2" x="27.1152" y="35.873" width="3.70146" height="36.9064" transform="rotate(90 27.1152 35.873)" fill="white"/>
<rect id="Rectangle 3309" width="3.70146" height="36.6904" transform="matrix(-0.866025 0.5 0.5 0.866025 28.7031 8.71484)" fill="white"/>
<rect id="Rectangle 3313" x="25.6191" y="8.71094" width="3.08821" height="2.86762" fill="white"/>
<g id="Mask group_3">
<mask id="mask2_13957_2081" style="mask-type:alpha" maskUnits="userSpaceOnUse" x="15" y="27" width="16" height="13">
<path id="Polygon 10" d="M23.1928 27.0195L30.4521 39.593H15.9336L23.1928 27.0195Z" fill="#AFAFAF"/>
</mask>
<g mask="url(#mask2_13957_2081)">
<rect id="Rectangle 3311" width="3.70146" height="16.3347" transform="matrix(-0.866025 0.5 0.5 0.866025 23.1406 26.7363)" fill="white"/>
</g>
</g>
<path id="Rectangle 3314" d="M27.1582 20.082L25.0078 23.7943L25.0581 23.8766L25.1587 24.0411L25.3599 24.3702L26.8364 26.9275L29.7893 32.0421L35.6952 42.2714L38.9007 40.4207L32.9949 30.1914L30.0419 25.0768L28.5654 22.5194L27.8272 21.2408L27.4581 20.6014L27.2735 20.2818L27.1813 20.122L27.1582 20.082Z" fill="white"/>
</g>
</g>
</g>
</g>
</g>
<g id="Group 7939">
<rect id="Rectangle 3527" x="0.132812" width="54" height="54" rx="27" fill="#0000C1"/>
<path id="Union" fill-rule="evenodd" clip-rule="evenodd" d="M38.4474 29.4929L27.1736 9.23438L15.8998 29.4929L27.1736 35.1315L38.4474 29.4929ZM31.0132 25.8981L27.1736 18.9961L23.334 25.8981L27.1736 27.8191L31.0132 25.8981ZM14.6138 31.7434L26.0306 37.4275L25.2226 39.0417H10.5488L14.6138 31.7434ZM28.3027 37.4067L39.6778 31.7434L43.7428 39.0417H29.1211L28.3027 37.4067Z" fill="white"/>
</g>
<g id="Group 8166">
<g id="Group 8141">
<circle id="Ellipse 302" cx="27" cy="27" r="26.5" fill="#003E29" stroke="#003E29"/>
<g id="Mask group_4">
<mask id="mask3_13957_2081" style="mask-type:alpha" maskUnits="userSpaceOnUse" x="13" y="13" width="29" height="28">
<rect id="Rectangle 3647" x="13.9277" y="13.6445" width="26.7105" height="26.7105" fill="white" stroke="#003E29"/>
</mask>
<g mask="url(#mask3_13957_2081)">
<g id="Mask group_5">
<mask id="mask4_13957_2081" style="mask-type:alpha" maskUnits="userSpaceOnUse" x="18" y="9" width="31" height="37">
<path id="Vector 89" d="M28.0953 44.704H47.8519V10.3652H28.0953L26.1282 18.9606L21.5953 23.5363L19.0723 27.385L24.5032 33.0297L28.0953 44.704Z" fill="#00FF1A" stroke="#003E29"/>
</mask>
<g mask="url(#mask4_13957_2081)">
<g id="Subtract">
<mask id="path-17-inside-1_13957_2081" fill="white">
<path fill-rule="evenodd" clip-rule="evenodd" d="M13.4277 13.1445L13.4277 40.8551L41.1383 40.8551L41.1383 13.1445L13.4277 13.1445ZM13.4279 29.3445H13.4279L13.4279 29.3529C14.9383 29.3529 16.434 29.6504 17.8295 30.2285C19.225 30.8065 20.493 31.6537 21.561 32.7218C22.6291 33.7898 23.4763 35.0578 24.0543 36.4533C24.6324 37.8488 24.9299 39.3445 24.9299 40.8549L29.6279 40.8549C29.6279 38.7275 29.2089 36.6209 28.3947 34.6554C27.5806 32.69 26.3873 30.9041 24.883 29.3998C23.9609 28.4777 22.933 27.6724 21.8227 26.9997C22.933 26.327 23.9609 25.5218 24.883 24.5997C26.3873 23.0954 27.5806 21.3095 28.3947 19.344C29.2089 17.3785 29.6279 15.2719 29.6279 13.1445L24.9299 13.1445C24.9299 14.655 24.6324 16.1507 24.0543 17.5462C23.4763 18.9416 22.6291 20.2096 21.561 21.2777C20.493 22.3457 19.225 23.193 17.8295 23.771C16.434 24.349 14.9383 24.6465 13.4279 24.6465L13.4279 29.3445Z"/>
</mask>
<path fill-rule="evenodd" clip-rule="evenodd" d="M13.4277 13.1445L13.4277 40.8551L41.1383 40.8551L41.1383 13.1445L13.4277 13.1445ZM13.4279 29.3445H13.4279L13.4279 29.3529C14.9383 29.3529 16.434 29.6504 17.8295 30.2285C19.225 30.8065 20.493 31.6537 21.561 32.7218C22.6291 33.7898 23.4763 35.0578 24.0543 36.4533C24.6324 37.8488 24.9299 39.3445 24.9299 40.8549L29.6279 40.8549C29.6279 38.7275 29.2089 36.6209 28.3947 34.6554C27.5806 32.69 26.3873 30.9041 24.883 29.3998C23.9609 28.4777 22.933 27.6724 21.8227 26.9997C22.933 26.327 23.9609 25.5218 24.883 24.5997C26.3873 23.0954 27.5806 21.3095 28.3947 19.344C29.2089 17.3785 29.6279 15.2719 29.6279 13.1445L24.9299 13.1445C24.9299 14.655 24.6324 16.1507 24.0543 17.5462C23.4763 18.9416 22.6291 20.2096 21.561 21.2777C20.493 22.3457 19.225 23.193 17.8295 23.771C16.434 24.349 14.9383 24.6465 13.4279 24.6465L13.4279 29.3445Z" fill="#00FF1A"/>
<path d="M13.4277 40.8551H12.4277L12.4277 41.8551H13.4277L13.4277 40.8551ZM13.4277 13.1445L13.4277 12.1445L12.4277 12.1445L12.4277 13.1445L13.4277 13.1445ZM41.1383 40.8551V41.8551H42.1383V40.8551H41.1383ZM41.1383 13.1445L42.1383 13.1445V12.1445L41.1383 12.1445V13.1445ZM13.4279 29.3445H14.4279V28.3445H13.4279V29.3445ZM13.4279 29.3445H12.4279L12.4279 30.3445H13.4279V29.3445ZM13.4279 29.3529H12.4279V30.3529H13.4279V29.3529ZM17.8295 30.2285L17.4468 31.1523H17.4468L17.8295 30.2285ZM21.561 32.7218L22.2681 32.0147L22.2681 32.0147L21.561 32.7218ZM24.0543 36.4533L23.1305 36.836L24.0543 36.4533ZM24.9299 40.8549H23.9299L23.9299 41.8549H24.9299V40.8549ZM29.6279 40.8549V41.8549H30.6279V40.8549H29.6279ZM21.8227 26.9997L21.3045 26.1445L19.893 26.9997L21.3045 27.855L21.8227 26.9997ZM28.3947 19.344L27.4708 18.9613V18.9613L28.3947 19.344ZM29.6279 13.1445H30.6279V12.1445H29.6279V13.1445ZM24.9299 13.1445V12.1445H23.9299L23.9299 13.1445L24.9299 13.1445ZM24.0543 17.5462L24.9782 17.9288V17.9288L24.0543 17.5462ZM21.561 21.2777L20.8539 20.5706V20.5706L21.561 21.2777ZM17.8295 23.771L18.2122 24.6949L17.8295 23.771ZM13.4279 24.6465V23.6465H12.4279V24.6465H13.4279ZM14.4277 40.8551L14.4277 13.1445L12.4277 13.1445L12.4277 40.8551H14.4277ZM41.1383 39.8551L13.4277 39.8551L13.4277 41.8551L41.1383 41.8551V39.8551ZM40.1383 13.1445L40.1383 40.8551H42.1383L42.1383 13.1445L40.1383 13.1445ZM13.4277 14.1445L41.1383 14.1445V12.1445L13.4277 12.1445L13.4277 14.1445ZM13.4279 28.3445H13.4279V30.3445H13.4279V28.3445ZM14.4279 29.3529V29.3445H12.4279V29.3529H14.4279ZM18.2122 29.3046C16.6954 28.6763 15.0697 28.3529 13.4279 28.3529V30.3529C14.807 30.3529 16.1727 30.6246 17.4468 31.1523L18.2122 29.3046ZM22.2681 32.0147C21.1072 30.8538 19.729 29.9329 18.2122 29.3046L17.4468 31.1523C18.721 31.6801 19.8787 32.4537 20.8539 33.4289L22.2681 32.0147ZM24.9782 36.0706C24.3499 34.5538 23.429 33.1756 22.2681 32.0147L20.8539 33.4289C21.8291 34.4041 22.6027 35.5618 23.1305 36.836L24.9782 36.0706ZM25.9299 40.8549C25.9299 39.2131 25.6065 37.5874 24.9782 36.0706L23.1305 36.836C23.6582 38.1101 23.9299 39.4758 23.9299 40.8549H25.9299ZM29.6279 39.8549L24.9299 39.8549V41.8549L29.6279 41.8549V39.8549ZM27.4708 35.0381C28.2347 36.8823 28.6279 38.8588 28.6279 40.8549H30.6279C30.6279 38.5962 30.183 36.3596 29.3186 34.2728L27.4708 35.0381ZM24.1759 30.1069C25.5874 31.5183 26.707 33.194 27.4708 35.0381L29.3186 34.2728C28.4542 32.186 27.1873 30.2898 25.5901 28.6927L24.1759 30.1069ZM21.3045 27.855C22.3462 28.4862 23.3107 29.2417 24.1759 30.1069L25.5901 28.6927C24.6111 27.7136 23.5197 26.8587 22.3409 26.1445L21.3045 27.855ZM24.1759 23.8926C23.3107 24.7578 22.3462 25.5133 21.3045 26.1445L22.3409 27.855C23.5197 27.1408 24.6111 26.2858 25.5901 25.3068L24.1759 23.8926ZM27.4708 18.9613C26.707 20.8055 25.5874 22.4811 24.1759 23.8926L25.5901 25.3068C27.1873 23.7096 28.4542 21.8135 29.3186 19.7267L27.4708 18.9613ZM28.6279 13.1445C28.6279 15.1406 28.2347 17.1172 27.4708 18.9613L29.3186 19.7267C30.183 17.6399 30.6279 15.4033 30.6279 13.1445H28.6279ZM24.9299 14.1445L29.6279 14.1445V12.1445L24.9299 12.1445V14.1445ZM24.9782 17.9288C25.6065 16.412 25.9299 14.7863 25.9299 13.1445L23.9299 13.1445C23.9299 14.5237 23.6582 15.8893 23.1305 17.1635L24.9782 17.9288ZM22.2681 21.9848C23.429 20.8239 24.3499 19.4457 24.9782 17.9288L23.1305 17.1635C22.6027 18.4376 21.8291 19.5954 20.8539 20.5706L22.2681 21.9848ZM18.2122 24.6949C19.729 24.0666 21.1072 23.1457 22.2681 21.9848L20.8539 20.5706C19.8787 21.5458 18.721 22.3193 17.4468 22.8471L18.2122 24.6949ZM13.4279 25.6465C15.0697 25.6465 16.6954 25.3232 18.2122 24.6949L17.4468 22.8471C16.1727 23.3749 14.807 23.6465 13.4279 23.6465V25.6465ZM14.4279 29.3445L14.4279 24.6465H12.4279L12.4279 29.3445H14.4279Z" fill="#003E29" mask="url(#path-17-inside-1_13957_2081)"/>
</g>
</g>
</g>
<g id="Mask group_6">
<mask id="mask5_13957_2081" style="mask-type:alpha" maskUnits="userSpaceOnUse" x="7" y="9" width="21" height="37">
<path id="Vector 89_2" d="M26.5996 10.3213L7.78382 10.3213L7.78382 44.6602L26.5996 44.6602L26.5996 36.6207L23.2641 31.2325L19.5437 26.999L26.5996 19.3871L26.5996 10.3213Z" fill="#D9D9D9" stroke="#003E29"/>
</mask>
<g mask="url(#mask5_13957_2081)">
<g id="Subtract_2">
<mask id="path-20-inside-2_13957_2081" fill="white">
<path fill-rule="evenodd" clip-rule="evenodd" d="M21.823 26.9566C22.9333 27.6293 23.9612 28.4345 24.8834 29.3567C26.3877 30.861 27.581 32.6469 28.3951 34.6124C29.2092 36.5778 29.6283 38.6844 29.6283 40.8118H24.9303C24.9303 39.3014 24.6328 37.8057 24.0547 36.4102C23.4767 35.0147 22.6295 33.7467 21.5614 32.6787C20.4933 31.6106 19.2254 30.7634 17.8299 30.1854C16.4344 29.6073 14.9387 29.3098 13.4283 29.3098L13.4283 29.3013L13.4283 24.6118L13.4283 24.6033C14.9387 24.6033 16.4344 24.3058 17.8299 23.7278C19.2254 23.1497 20.4933 22.3025 21.5614 21.2344C22.6295 20.1664 23.4767 18.8984 24.0547 17.5029C24.6327 16.1075 24.9302 14.6119 24.9303 13.1016L13.4277 13.1016L13.4277 40.8121L41.1383 40.8121L41.1383 13.1016L29.6283 13.1016C29.6282 15.2289 29.2092 17.3354 28.3951 19.3008C27.581 21.2663 26.3877 23.0521 24.8834 24.5564C23.9612 25.4786 22.9333 26.2839 21.823 26.9566Z"/>
</mask>
<path fill-rule="evenodd" clip-rule="evenodd" d="M21.823 26.9566C22.9333 27.6293 23.9612 28.4345 24.8834 29.3567C26.3877 30.861 27.581 32.6469 28.3951 34.6124C29.2092 36.5778 29.6283 38.6844 29.6283 40.8118H24.9303C24.9303 39.3014 24.6328 37.8057 24.0547 36.4102C23.4767 35.0147 22.6295 33.7467 21.5614 32.6787C20.4933 31.6106 19.2254 30.7634 17.8299 30.1854C16.4344 29.6073 14.9387 29.3098 13.4283 29.3098L13.4283 29.3013L13.4283 24.6118L13.4283 24.6033C14.9387 24.6033 16.4344 24.3058 17.8299 23.7278C19.2254 23.1497 20.4933 22.3025 21.5614 21.2344C22.6295 20.1664 23.4767 18.8984 24.0547 17.5029C24.6327 16.1075 24.9302 14.6119 24.9303 13.1016L13.4277 13.1016L13.4277 40.8121L41.1383 40.8121L41.1383 13.1016L29.6283 13.1016C29.6282 15.2289 29.2092 17.3354 28.3951 19.3008C27.581 21.2663 26.3877 23.0521 24.8834 24.5564C23.9612 25.4786 22.9333 26.2839 21.823 26.9566Z" fill="#FE7506"/>
<path d="M24.8834 29.3567L25.5905 28.6496L25.5905 28.6496L24.8834 29.3567ZM21.823 26.9566L21.3048 26.1013L19.8932 26.9566L21.3048 27.8118L21.823 26.9566ZM29.6283 40.8118V41.8118H30.6283V40.8118H29.6283ZM24.9303 40.8118H23.9303L23.9303 41.8118H24.9303V40.8118ZM24.0547 36.4102L23.1308 36.7929L24.0547 36.4102ZM21.5614 32.6787L22.2685 31.9716L22.2685 31.9716L21.5614 32.6787ZM13.4283 29.3098H12.4283V30.3098H13.4283V29.3098ZM13.4283 29.3013H12.4283H13.4283ZM13.4283 24.6118H14.4283H13.4283ZM13.4283 24.6033V23.6033H12.4283L12.4283 24.6033H13.4283ZM17.8299 23.7278L18.2126 24.6516L17.8299 23.7278ZM21.5614 21.2344L20.8543 20.5273V20.5273L21.5614 21.2344ZM24.0547 17.5029L24.9786 17.8856V17.8856L24.0547 17.5029ZM24.9303 13.1016L25.9303 13.1016L25.9303 12.1016L24.9303 12.1016V13.1016ZM13.4277 13.1016L13.4277 12.1016L12.4277 12.1016L12.4277 13.1016L13.4277 13.1016ZM13.4277 40.8121H12.4277L12.4277 41.8121H13.4277L13.4277 40.8121ZM41.1383 40.8121V41.8121H42.1383V40.8121H41.1383ZM41.1383 13.1016L42.1383 13.1016V12.1016L41.1383 12.1016V13.1016ZM29.6283 13.1016V12.1016L28.6283 12.1016L28.6283 13.1015L29.6283 13.1016ZM28.3951 19.3008L27.4712 18.9181V18.9181L28.3951 19.3008ZM24.8834 24.5564L24.1763 23.8493H24.1763L24.8834 24.5564ZM25.5905 28.6496C24.6114 27.6705 23.52 26.8155 22.3412 26.1013L21.3048 27.8118C22.3466 28.443 23.3111 29.1986 24.1763 30.0638L25.5905 28.6496ZM29.319 34.2297C28.4546 32.1429 27.1877 30.2468 25.5905 28.6496L24.1763 30.0638C25.5877 31.4753 26.7074 33.1509 27.4712 34.995L29.319 34.2297ZM30.6283 40.8118C30.6283 38.5531 30.1834 36.3165 29.319 34.2297L27.4712 34.995C28.2351 36.8392 28.6283 38.8157 28.6283 40.8118H30.6283ZM24.9303 41.8118H29.6283V39.8118H24.9303V41.8118ZM23.1308 36.7929C23.6586 38.0671 23.9303 39.4327 23.9303 40.8118H25.9303C25.9303 39.17 25.6069 37.5443 24.9786 36.0275L23.1308 36.7929ZM20.8543 33.3858C21.8295 34.361 22.6031 35.5187 23.1308 36.7929L24.9786 36.0275C24.3503 34.5107 23.4294 33.1325 22.2685 31.9716L20.8543 33.3858ZM17.4472 31.1092C18.7214 31.637 19.8791 32.4106 20.8543 33.3858L22.2685 31.9716C21.1076 30.8107 19.7294 29.8898 18.2126 29.2615L17.4472 31.1092ZM13.4283 30.3098C14.8074 30.3098 16.173 30.5815 17.4472 31.1092L18.2126 29.2615C16.6958 28.6332 15.07 28.3098 13.4283 28.3098V30.3098ZM12.4283 29.3013V29.3098H14.4283V29.3013H12.4283ZM12.4283 24.6118L12.4283 29.3013H14.4283L14.4283 24.6118H12.4283ZM12.4283 24.6033V24.6118H14.4283V24.6033H12.4283ZM17.4472 22.8039C16.173 23.3317 14.8074 23.6033 13.4283 23.6033V25.6033C15.07 25.6033 16.6958 25.2799 18.2126 24.6516L17.4472 22.8039ZM20.8543 20.5273C19.8791 21.5025 18.7214 22.2761 17.4472 22.8039L18.2126 24.6516C19.7294 24.0234 21.1076 23.1025 22.2685 21.9416L20.8543 20.5273ZM23.1308 17.1202C22.6031 18.3944 21.8295 19.5521 20.8543 20.5273L22.2685 21.9416C23.4294 20.7806 24.3503 19.4024 24.9786 17.8856L23.1308 17.1202ZM23.9303 13.1015C23.9302 14.4806 23.6586 15.8462 23.1308 17.1202L24.9786 17.8856C25.6069 16.3689 25.9302 14.7433 25.9303 13.1016L23.9303 13.1015ZM13.4277 14.1016L24.9303 14.1016V12.1016L13.4277 12.1016L13.4277 14.1016ZM14.4277 40.8121L14.4277 13.1016L12.4277 13.1016L12.4277 40.8121H14.4277ZM41.1383 39.8121L13.4277 39.8121L13.4277 41.8121L41.1383 41.8121V39.8121ZM40.1383 13.1016L40.1383 40.8121H42.1383L42.1383 13.1016L40.1383 13.1016ZM29.6283 14.1016L41.1383 14.1016V12.1016L29.6283 12.1016V14.1016ZM29.319 19.6835C30.1833 17.5967 30.6282 15.3602 30.6283 13.1016L28.6283 13.1015C28.6282 15.0976 28.2351 17.074 27.4712 18.9181L29.319 19.6835ZM25.5905 25.2635C27.1877 23.6664 28.4546 21.7703 29.319 19.6835L27.4712 18.9181C26.7074 20.7622 25.5877 22.4379 24.1763 23.8493L25.5905 25.2635ZM22.3412 27.8118C23.52 27.0976 24.6114 26.2426 25.5905 25.2635L24.1763 23.8493C23.3111 24.7146 22.3466 25.4701 21.3048 26.1013L22.3412 27.8118Z" fill="#003E29" mask="url(#path-20-inside-2_13957_2081)"/>
</g>
</g>
</g>
</g>
</g>
</g>
</g>
</g>
</svg>
