<svg width="55" height="54" viewBox="0 0 55 54" fill="none" xmlns="http://www.w3.org/2000/svg">
<g id="Group 7869">
<circle id="Ellipse 253" opacity="0.1" cx="27" cy="27" r="27" transform="rotate(-180 27 27)" fill="#D9D9D9"/>
<g id="Group 7861">
<rect id="Rectangle 3315" x="54" y="54" width="54" height="54" rx="27" transform="rotate(-180 54 54)" fill="#0000C1"/>
<g id="Mask group">
<mask id="mask0_13957_2130" style="mask-type:alpha" maskUnits="userSpaceOnUse" x="5" y="8" width="44" height="44">
<rect id="Rectangle 3316" x="48.3691" y="51.4531" width="42.7371" height="42.7371" transform="rotate(-180 48.3691 51.4531)" fill="#AAAAAA"/>
</mask>
<g mask="url(#mask0_13957_2130)">
<g id="Mask group_2">
<mask id="mask1_13957_2130" style="mask-type:alpha" maskUnits="userSpaceOnUse" x="7" y="14" width="40" height="34">
<path id="Polygon 9" d="M26.9688 47.9355L7.67443 14.5167L46.2632 14.5167L26.9688 47.9355Z" fill="#959595"/>
</mask>
<g mask="url(#mask1_13957_2130)">
<rect id="Rectangle 3308" x="32.1992" y="39.0879" width="3.70146" height="29.6863" transform="rotate(-150 32.1992 39.0879)" fill="white"/>
<rect id="Rectangle 3309" width="3.70146" height="40.7401" transform="matrix(0.866025 -0.5 -0.5 -0.866025 27.4531 48.793)" fill="white"/>
<g id="Mask group_3">
<mask id="mask2_13957_2130" style="mask-type:alpha" maskUnits="userSpaceOnUse" x="23" y="14" width="16" height="13">
<path id="Polygon 10" d="M30.94 26.9805L23.6807 14.407L38.1993 14.407L30.94 26.9805Z" fill="#AFAFAF"/>
</mask>
<g mask="url(#mask2_13957_2130)">
<rect id="Rectangle 3311" width="3.70146" height="16.3347" transform="matrix(0.866025 -0.5 -0.5 -0.866025 30.9922 27.2637)" fill="white"/>
<rect id="Rectangle 3312" x="30.7461" y="27.5391" width="3.70146" height="16.6523" transform="rotate(-150 30.7461 27.5391)" fill="white"/>
</g>
</g>
<path id="Rectangle 3314" d="M31.1973 41.2324L33.1721 37.2199L32.8953 36.7414L32.7601 36.5169L32.4895 36.0678L30.4821 32.5908L26.4672 25.6368L18.4375 11.729L15.232 13.5797L23.2617 27.4876L27.2765 34.4415L29.284 37.9185L30.2877 39.657L30.7895 40.5262L31.0405 40.9608L31.1659 41.1781L31.1973 41.2324Z" fill="white"/>
</g>
</g>
</g>
</g>
</g>
<g id="Group 7940">
<rect id="Rectangle 3527" x="54" y="54" width="54" height="54" rx="27" transform="rotate(-180 54 54)" fill="#0000C1"/>
<path id="Union" fill-rule="evenodd" clip-rule="evenodd" d="M15.6855 24.0969L26.9593 44.3555L38.2331 24.0969L26.9593 18.4583L15.6855 24.0969ZM23.1197 27.6918L26.9593 34.5937L30.799 27.6918L26.9593 25.7708L23.1197 27.6918ZM39.5186 21.851L26.987 15.6119L14.4554 21.851L10.3901 14.552L24.8583 14.552L27.7722 14.552L43.584 14.552L39.5186 21.851Z" fill="white"/>
</g>
<g id="Group 8166">
<g id="Group 8141">
<circle id="Ellipse 302" cx="27.1328" cy="27" r="26.5" transform="rotate(-90 27.1328 27)" fill="#003E29" stroke="#003E29"/>
<g id="Mask group_4">
<mask id="mask3_13957_2130" style="mask-type:alpha" maskUnits="userSpaceOnUse" x="13" y="12" width="28" height="29">
<rect id="Rectangle 3647" x="13.7773" y="40.0723" width="26.7105" height="26.7105" transform="rotate(-90 13.7773 40.0723)" fill="white" stroke="#003E29"/>
</mask>
<g mask="url(#mask3_13957_2130)">
<g id="Mask group_5">
<mask id="mask4_13957_2130" style="mask-type:alpha" maskUnits="userSpaceOnUse" x="9" y="5" width="37" height="31">
<path id="Vector 89" d="M44.8369 25.9047L44.8369 6.14813L10.4981 6.14813L10.498 25.9047L19.0934 27.8718L23.6691 32.4047L27.5178 34.9277L33.1625 29.4968L44.8369 25.9047Z" fill="#00FF1A" stroke="#003E29"/>
</mask>
<g mask="url(#mask4_13957_2130)">
<g id="Subtract">
<mask id="path-16-inside-1_13957_2130" fill="white">
<path fill-rule="evenodd" clip-rule="evenodd" d="M13.2773 40.5723L40.9879 40.5723L40.9879 12.8617L13.2773 12.8617L13.2773 40.5723ZM29.4773 40.5721L29.4773 40.5721L29.4857 40.5721C29.4857 39.0617 29.7832 37.566 30.3613 36.1705C30.9393 34.775 31.7865 33.507 32.8546 32.439C33.9226 31.3709 35.1906 30.5237 36.5861 29.9457C37.9816 29.3676 39.4773 29.0701 40.9877 29.0701L40.9877 24.3721C38.8603 24.3721 36.7537 24.7911 34.7883 25.6053C32.8228 26.4194 31.0369 27.6127 29.5326 29.117C28.6105 30.0391 27.8052 31.067 27.1325 32.1773C26.4598 31.067 25.6546 30.0391 24.7325 29.117C23.2282 27.6127 21.4423 26.4194 19.4768 25.6053C17.5113 24.7911 15.4048 24.3721 13.2773 24.3721L13.2773 29.0701C14.7878 29.0701 16.2835 29.3676 17.679 29.9457C19.0745 30.5237 20.3424 31.3709 21.4105 32.439C22.4785 33.507 23.3258 34.775 23.9038 36.1705C24.4818 37.566 24.7793 39.0617 24.7793 40.5721L29.4773 40.5721Z"/>
</mask>
<path fill-rule="evenodd" clip-rule="evenodd" d="M13.2773 40.5723L40.9879 40.5723L40.9879 12.8617L13.2773 12.8617L13.2773 40.5723ZM29.4773 40.5721L29.4773 40.5721L29.4857 40.5721C29.4857 39.0617 29.7832 37.566 30.3613 36.1705C30.9393 34.775 31.7865 33.507 32.8546 32.439C33.9226 31.3709 35.1906 30.5237 36.5861 29.9457C37.9816 29.3676 39.4773 29.0701 40.9877 29.0701L40.9877 24.3721C38.8603 24.3721 36.7537 24.7911 34.7883 25.6053C32.8228 26.4194 31.0369 27.6127 29.5326 29.117C28.6105 30.0391 27.8052 31.067 27.1325 32.1773C26.4598 31.067 25.6546 30.0391 24.7325 29.117C23.2282 27.6127 21.4423 26.4194 19.4768 25.6053C17.5113 24.7911 15.4048 24.3721 13.2773 24.3721L13.2773 29.0701C14.7878 29.0701 16.2835 29.3676 17.679 29.9457C19.0745 30.5237 20.3424 31.3709 21.4105 32.439C22.4785 33.507 23.3258 34.775 23.9038 36.1705C24.4818 37.566 24.7793 39.0617 24.7793 40.5721L29.4773 40.5721Z" fill="#00FF1A"/>
<path d="M40.9879 40.5723L40.9879 41.5723L41.9879 41.5723L41.9879 40.5723L40.9879 40.5723ZM13.2773 40.5723L12.2773 40.5723L12.2773 41.5723L13.2773 41.5723L13.2773 40.5723ZM40.9879 12.8617L41.9879 12.8617L41.9879 11.8617L40.9879 11.8617L40.9879 12.8617ZM13.2773 12.8617L13.2773 11.8617L12.2773 11.8617L12.2773 12.8617L13.2773 12.8617ZM29.4773 40.5721L29.4773 39.5721L28.4773 39.5721L28.4773 40.5721L29.4773 40.5721ZM29.4773 40.5721L29.4773 41.5721L30.4773 41.5721L30.4773 40.5721L29.4773 40.5721ZM29.4857 40.5721L29.4857 41.5721L30.4857 41.5721L30.4857 40.5721L29.4857 40.5721ZM30.3613 36.1705L31.2851 36.5532L31.2851 36.5532L30.3613 36.1705ZM32.8546 32.439L32.1475 31.7319L32.1475 31.7319L32.8546 32.439ZM36.5861 29.9457L36.9688 30.8695L36.5861 29.9457ZM40.9877 29.0701L40.9877 30.0701L41.9877 30.0701L41.9877 29.0701L40.9877 29.0701ZM40.9877 24.3721L41.9877 24.3721L41.9877 23.3721L40.9877 23.3721L40.9877 24.3721ZM27.1325 32.1773L26.2773 32.6955L27.1325 34.107L27.9878 32.6955L27.1325 32.1773ZM19.4768 25.6053L19.0941 26.5292L19.0941 26.5292L19.4768 25.6053ZM13.2773 24.3721L13.2773 23.3721L12.2773 23.3721L12.2773 24.3721L13.2773 24.3721ZM13.2773 29.0701L12.2773 29.0701L12.2773 30.0701L13.2773 30.0701L13.2773 29.0701ZM17.679 29.9457L18.0617 29.0218L18.0617 29.0218L17.679 29.9457ZM21.4105 32.439L20.7034 33.1461L20.7034 33.1461L21.4105 32.439ZM23.9038 36.1705L24.8277 35.7878L23.9038 36.1705ZM24.7793 40.5721L23.7793 40.5721L23.7793 41.5721L24.7793 41.5721L24.7793 40.5721ZM40.9879 39.5723L13.2773 39.5723L13.2773 41.5723L40.9879 41.5723L40.9879 39.5723ZM39.9879 12.8617L39.9879 40.5723L41.9879 40.5723L41.9879 12.8617L39.9879 12.8617ZM13.2773 13.8617L40.9879 13.8617L40.9879 11.8617L13.2773 11.8617L13.2773 13.8617ZM14.2773 40.5723L14.2773 12.8617L12.2773 12.8617L12.2773 40.5723L14.2773 40.5723ZM28.4773 40.5721L28.4773 40.5721L30.4773 40.5721L30.4773 40.5721L28.4773 40.5721ZM29.4857 39.5721L29.4773 39.5721L29.4773 41.5721L29.4857 41.5721L29.4857 39.5721ZM29.4374 35.7878C28.8091 37.3046 28.4857 38.9303 28.4857 40.5721L30.4857 40.5721C30.4857 39.193 30.7574 37.8273 31.2851 36.5532L29.4374 35.7878ZM32.1475 31.7319C30.9866 32.8928 30.0657 34.271 29.4374 35.7878L31.2851 36.5532C31.8129 35.279 32.5865 34.1213 33.5617 33.1461L32.1475 31.7319ZM36.2034 29.0218C34.6866 29.6501 33.3084 30.571 32.1475 31.7319L33.5617 33.1461C34.5369 32.1709 35.6946 31.3973 36.9688 30.8695L36.2034 29.0218ZM40.9877 28.0701C39.3459 28.0701 37.7202 28.3935 36.2034 29.0218L36.9688 30.8695C38.243 30.3418 39.6086 30.0701 40.9877 30.0701L40.9877 28.0701ZM39.9877 24.3721L39.9877 29.0701L41.9877 29.0701L41.9877 24.3721L39.9877 24.3721ZM35.1709 26.5292C37.0151 25.7653 38.9916 25.3721 40.9877 25.3721L40.9877 23.3721C38.729 23.3721 36.4924 23.817 34.4056 24.6814L35.1709 26.5292ZM30.2397 29.8241C31.6512 28.4126 33.3268 27.293 35.1709 26.5292L34.4056 24.6814C32.3188 25.5458 30.4227 26.8127 28.8255 28.4099L30.2397 29.8241ZM27.9878 32.6955C28.619 31.6538 29.3745 30.6893 30.2397 29.8241L28.8255 28.4099C27.8465 29.3889 26.9915 30.4803 26.2773 31.6591L27.9878 32.6955ZM24.0254 29.8241C24.8906 30.6893 25.6461 31.6538 26.2773 32.6955L27.9878 31.6591C27.2736 30.4803 26.4186 29.3889 25.4396 28.4099L24.0254 29.8241ZM19.0941 26.5292C20.9383 27.293 22.6139 28.4126 24.0254 29.8241L25.4396 28.4099C23.8424 26.8127 21.9463 25.5458 19.8595 24.6814L19.0941 26.5292ZM13.2773 25.3721C15.2734 25.3721 17.25 25.7653 19.0941 26.5292L19.8595 24.6814C17.7727 23.817 15.5361 23.3721 13.2773 23.3721L13.2773 25.3721ZM14.2773 29.0701L14.2773 24.3721L12.2773 24.3721L12.2773 29.0701L14.2773 29.0701ZM18.0617 29.0218C16.5448 28.3935 14.9191 28.0701 13.2773 28.0701L13.2773 30.0701C14.6565 30.0701 16.0221 30.3418 17.2963 30.8695L18.0617 29.0218ZM22.1176 31.7319C20.9567 30.571 19.5785 29.6501 18.0617 29.0218L17.2963 30.8695C18.5705 31.3973 19.7282 32.1709 20.7034 33.1461L22.1176 31.7319ZM24.8277 35.7878C24.1994 34.271 23.2785 32.8928 22.1176 31.7319L20.7034 33.1461C21.6786 34.1213 22.4522 35.279 22.9799 36.5532L24.8277 35.7878ZM25.7793 40.5721C25.7793 38.9303 25.456 37.3046 24.8277 35.7878L22.9799 36.5532C23.5077 37.8273 23.7793 39.193 23.7793 40.5721L25.7793 40.5721ZM29.4773 39.5721L24.7793 39.5721L24.7793 41.5721L29.4773 41.5721L29.4773 39.5721Z" fill="#003E29" mask="url(#path-16-inside-1_13957_2130)"/>
</g>
</g>
</g>
<g id="Mask group_6">
<mask id="mask5_13957_2130" style="mask-type:alpha" maskUnits="userSpaceOnUse" x="9" y="26" width="37" height="21">
<path id="Vector 89_2" d="M10.4542 27.4004L10.4542 46.2162L44.793 46.2162L44.793 27.4004L36.7535 27.4004L31.3653 30.7359L27.1318 34.4563L19.5199 27.4004L10.4542 27.4004Z" fill="#D9D9D9" stroke="#003E29"/>
</mask>
<g mask="url(#mask5_13957_2130)">
<g id="Subtract_2">
<mask id="path-19-inside-2_13957_2130" fill="white">
<path fill-rule="evenodd" clip-rule="evenodd" d="M27.0894 32.177C27.7621 31.0667 28.5674 30.0388 29.4895 29.1166C30.9938 27.6123 32.7797 26.419 34.7452 25.6049C36.7106 24.7908 38.8172 24.3717 40.9446 24.3717L40.9446 29.0697C39.4342 29.0697 37.9385 29.3673 36.543 29.9453C35.1475 30.5233 33.8796 31.3705 32.8115 32.4386C31.7434 33.5067 30.8962 34.7746 30.3182 36.1701C29.7402 37.5656 29.4426 39.0613 29.4426 40.5717L29.4341 40.5717L24.7446 40.5717L24.7361 40.5717C24.7361 39.0613 24.4386 37.5656 23.8606 36.1701C23.2826 34.7746 22.4353 33.5067 21.3673 32.4386C20.2992 31.3705 19.0312 30.5233 17.6357 29.9453C16.2403 29.3673 14.7448 29.0698 13.2344 29.0697L13.2344 40.5723L40.9449 40.5723L40.9449 12.8617L13.2344 12.8617L13.2344 24.3717C15.3617 24.3718 17.4682 24.7908 19.4336 25.6049C21.3991 26.419 23.1849 27.6123 24.6892 29.1166C25.6114 30.0388 26.4167 31.0667 27.0894 32.177Z"/>
</mask>
<path fill-rule="evenodd" clip-rule="evenodd" d="M27.0894 32.177C27.7621 31.0667 28.5674 30.0388 29.4895 29.1166C30.9938 27.6123 32.7797 26.419 34.7452 25.6049C36.7106 24.7908 38.8172 24.3717 40.9446 24.3717L40.9446 29.0697C39.4342 29.0697 37.9385 29.3673 36.543 29.9453C35.1475 30.5233 33.8796 31.3705 32.8115 32.4386C31.7434 33.5067 30.8962 34.7746 30.3182 36.1701C29.7402 37.5656 29.4426 39.0613 29.4426 40.5717L29.4341 40.5717L24.7446 40.5717L24.7361 40.5717C24.7361 39.0613 24.4386 37.5656 23.8606 36.1701C23.2826 34.7746 22.4353 33.5067 21.3673 32.4386C20.2992 31.3705 19.0312 30.5233 17.6357 29.9453C16.2403 29.3673 14.7448 29.0698 13.2344 29.0697L13.2344 40.5723L40.9449 40.5723L40.9449 12.8617L13.2344 12.8617L13.2344 24.3717C15.3617 24.3718 17.4682 24.7908 19.4336 25.6049C21.3991 26.419 23.1849 27.6123 24.6892 29.1166C25.6114 30.0388 26.4167 31.0667 27.0894 32.177Z" fill="#FE7506"/>
<path d="M29.4895 29.1166L28.7824 28.4095L28.7824 28.4095L29.4895 29.1166ZM27.0894 32.177L26.2341 32.6952L27.0894 34.1068L27.9446 32.6952L27.0894 32.177ZM40.9446 24.3717L41.9446 24.3717L41.9446 23.3717L40.9446 23.3717L40.9446 24.3717ZM40.9446 29.0697L40.9446 30.0697L41.9446 30.0697L41.9446 29.0697L40.9446 29.0697ZM36.543 29.9453L36.9257 30.8692L36.543 29.9453ZM32.8115 32.4386L32.1044 31.7315L32.1044 31.7315L32.8115 32.4386ZM29.4426 40.5717L29.4426 41.5717L30.4426 41.5717L30.4426 40.5717L29.4426 40.5717ZM29.4341 40.5717L29.4341 41.5717L29.4341 40.5717ZM24.7446 40.5717L24.7446 39.5717L24.7446 40.5717ZM24.7361 40.5717L23.7361 40.5717L23.7361 41.5717L24.7361 41.5717L24.7361 40.5717ZM23.8606 36.1701L24.7845 35.7874L23.8606 36.1701ZM21.3673 32.4386L20.6602 33.1457L20.6602 33.1457L21.3673 32.4386ZM17.6357 29.9453L18.0184 29.0214L18.0184 29.0214L17.6357 29.9453ZM13.2344 29.0697L13.2344 28.0697L12.2344 28.0697L12.2344 29.0697L13.2344 29.0697ZM13.2344 40.5723L12.2344 40.5723L12.2344 41.5723L13.2344 41.5723L13.2344 40.5723ZM40.9449 40.5723L40.9449 41.5723L41.9449 41.5723L41.9449 40.5723L40.9449 40.5723ZM40.9449 12.8617L41.9449 12.8617L41.9449 11.8617L40.9449 11.8617L40.9449 12.8617ZM13.2344 12.8617L13.2344 11.8617L12.2344 11.8617L12.2344 12.8617L13.2344 12.8617ZM13.2344 24.3717L12.2344 24.3717L12.2344 25.3717L13.2344 25.3717L13.2344 24.3717ZM19.4336 25.6049L19.0509 26.5288L19.0509 26.5288L19.4336 25.6049ZM24.6892 29.1166L23.9821 29.8237L23.9821 29.8237L24.6892 29.1166ZM28.7824 28.4095C27.8033 29.3886 26.9483 30.48 26.2341 31.6588L27.9446 32.6952C28.5758 31.6535 29.3314 30.6889 30.1966 29.8237L28.7824 28.4095ZM34.3625 24.681C32.2757 25.5454 30.3796 26.8123 28.7824 28.4095L30.1966 29.8237C31.6081 28.4123 33.2837 27.2926 35.1279 26.5288L34.3625 24.681ZM40.9446 23.3717C38.6859 23.3717 36.4493 23.8166 34.3625 24.681L35.1279 26.5288C36.972 25.7649 38.9486 25.3717 40.9446 25.3717L40.9446 23.3717ZM41.9446 29.0697L41.9446 24.3717L39.9446 24.3717L39.9446 29.0697L41.9446 29.0697ZM36.9257 30.8692C38.1999 30.3414 39.5655 30.0697 40.9446 30.0697L40.9446 28.0697C39.3029 28.0697 37.6772 28.3931 36.1603 29.0214L36.9257 30.8692ZM33.5186 33.1457C34.4938 32.1705 35.6515 31.3969 36.9257 30.8692L36.1603 29.0214C34.6435 29.6497 33.2653 30.5706 32.1044 31.7315L33.5186 33.1457ZM31.2421 36.5528C31.7698 35.2786 32.5434 34.1209 33.5186 33.1457L32.1044 31.7315C30.9435 32.8924 30.0226 34.2706 29.3943 35.7874L31.2421 36.5528ZM30.4426 40.5717C30.4426 39.1926 30.7143 37.827 31.2421 36.5528L29.3943 35.7874C28.766 37.3042 28.4426 38.93 28.4426 40.5717L30.4426 40.5717ZM29.4341 41.5717L29.4426 41.5717L29.4426 39.5717L29.4341 39.5717L29.4341 41.5717ZM24.7446 41.5717L29.4341 41.5717L29.4341 39.5717L24.7446 39.5717L24.7446 41.5717ZM24.7361 41.5717L24.7446 41.5717L24.7446 39.5717L24.7361 39.5717L24.7361 41.5717ZM22.9367 36.5528C23.4645 37.827 23.7361 39.1926 23.7361 40.5717L25.7361 40.5717C25.7361 38.93 25.4127 37.3042 24.7845 35.7874L22.9367 36.5528ZM20.6602 33.1457C21.6354 34.1209 22.4089 35.2786 22.9367 36.5528L24.7845 35.7874C24.1562 34.2706 23.2353 32.8924 22.0744 31.7315L20.6602 33.1457ZM17.2531 30.8692C18.5272 31.3969 19.685 32.1705 20.6602 33.1457L22.0744 31.7315C20.9135 30.5706 19.5352 29.6497 18.0184 29.0214L17.2531 30.8692ZM13.2344 30.0697C14.6134 30.0698 15.979 30.3414 17.2531 30.8692L18.0184 29.0214C16.5017 28.3931 14.8761 28.0698 13.2344 28.0697L13.2344 30.0697ZM14.2344 40.5723L14.2344 29.0697L12.2344 29.0697L12.2344 40.5723L14.2344 40.5723ZM40.9449 39.5723L13.2344 39.5723L13.2344 41.5723L40.9449 41.5723L40.9449 39.5723ZM39.9449 12.8617L39.9449 40.5723L41.9449 40.5723L41.9449 12.8617L39.9449 12.8617ZM13.2344 13.8617L40.9449 13.8617L40.9449 11.8617L13.2344 11.8617L13.2344 13.8617ZM14.2344 24.3717L14.2344 12.8617L12.2344 12.8617L12.2344 24.3717L14.2344 24.3717ZM19.8163 24.681C17.7296 23.8167 15.493 23.3718 13.2344 23.3717L13.2344 25.3717C15.2304 25.3718 17.2068 25.7649 19.0509 26.5288L19.8163 24.681ZM25.3964 28.4095C23.7992 26.8123 21.9031 25.5454 19.8163 24.681L19.0509 26.5288C20.8951 27.2926 22.5707 28.4123 23.9821 29.8237L25.3964 28.4095ZM27.9446 31.6588C27.2304 30.48 26.3754 29.3886 25.3964 28.4095L23.9821 29.8237C24.8474 30.6889 25.6029 31.6535 26.2341 32.6952L27.9446 31.6588Z" fill="#003E29" mask="url(#path-19-inside-2_13957_2130)"/>
</g>
</g>
</g>
</g>
</g>
</g>
</g>
</g>
</svg>
