<svg width="115" height="26" viewBox="0 0 115 26" fill="none" xmlns="http://www.w3.org/2000/svg">
<path d="M59.9964 19.824C58.9222 21.1452 57.4344 21.8059 55.5331 21.8059C54.04 21.8059 52.7831 21.4621 51.7626 20.7746C50.7422 20.0871 49.9795 19.1419 49.4746 17.9387C49.0879 17.0257 48.8945 15.9139 48.8945 14.6034V4.35547H51.6821V14.4583C51.6821 15.8441 52.0419 16.9559 52.7617 17.7937C53.4921 18.6316 54.5072 19.0505 55.807 19.0505C56.7523 19.0505 57.5419 18.8196 58.1756 18.3577C58.8094 17.8958 59.2874 17.2781 59.6097 16.5047C59.8353 15.9246 59.9481 15.2425 59.9481 14.4583V4.35547H62.7517V21.4192H60.1253L59.9964 19.824Z" fill="#FFF9DC"/>
<path d="M103.355 6.37525C104.429 5.05398 105.917 4.39335 107.818 4.39335C109.312 4.39335 110.568 4.73709 111.589 5.42458C112.609 6.11207 113.372 7.05737 113.877 8.26047C114.264 9.17354 114.457 10.2853 114.457 11.5959V21.8438H111.669V11.7409C111.669 10.3552 111.31 9.24337 110.59 8.40549C109.859 7.56761 108.844 7.14867 107.545 7.14867C106.599 7.14867 105.81 7.37963 105.176 7.84153C104.542 8.30344 104.064 8.92111 103.742 9.69453C103.516 10.2746 103.403 10.9567 103.403 11.7409V21.8438H100.6V4.78006H103.226L103.355 6.37525Z" fill="#FFF9DC"/>
<path d="M80.4852 4.31445V21.8387H77.5195V4.31445H80.4852Z" fill="#FFF9DC"/>
<path d="M77.8279 2.7699C78.1403 3.08013 78.527 3.23524 78.9882 3.23524C79.4344 3.23524 79.8137 3.08013 80.1261 2.7699C80.4384 2.45967 80.5946 2.07558 80.5946 1.61762C80.5946 1.15966 80.4384 0.775571 80.1261 0.465343C79.8137 0.155114 79.4344 0 78.9882 0C78.527 0 78.1403 0.155114 77.8279 0.465343C77.5156 0.775571 77.3594 1.15966 77.3594 1.61762C77.3594 2.07558 77.5156 2.45967 77.8279 2.7699Z" fill="#FFF9DC"/>
<path d="M98.282 4.31445V21.8387H95.3164V4.31445H98.282Z" fill="#FFF9DC"/>
<path d="M95.6248 2.7699C95.9372 3.08013 96.3239 3.23524 96.785 3.23524C97.2313 3.23524 97.6106 3.08013 97.9229 2.7699C98.2353 2.45967 98.3915 2.07558 98.3915 1.61762C98.3915 1.15966 98.2353 0.775571 97.9229 0.465343C97.6106 0.155114 97.2313 0 96.785 0C96.3239 0 95.9372 0.155114 95.6248 0.465343C95.3124 0.775571 95.1562 1.15966 95.1562 1.61762C95.1562 2.07558 95.3124 2.45967 95.6248 2.7699Z" fill="#FFF9DC"/>
<path fill-rule="evenodd" clip-rule="evenodd" d="M36.4902 11.5884L36.4902 14.5594L36.4902 14.5643C37.4454 14.5643 38.3913 14.7525 39.2738 15.118C40.1563 15.4836 40.9581 16.0193 41.6336 16.6948C42.309 17.3702 42.8448 18.1721 43.2104 19.0546C43.5759 19.9371 43.7641 20.883 43.7641 21.8382H46.7351C46.7351 20.4928 46.4701 19.1606 45.9552 17.9176C45.4404 16.6747 44.6858 15.5453 43.7344 14.594C43.1514 14.0109 42.5014 13.5017 41.7994 13.0763C42.5014 12.651 43.1514 12.1418 43.7344 11.5587C44.6858 10.6074 45.4404 9.47799 45.9552 8.23502C46.4701 6.99205 46.7351 5.65984 46.7351 4.31445L43.7641 4.31445C43.7641 5.26968 43.5759 6.21554 43.2104 7.09805C42.8448 7.98057 42.309 8.78243 41.6336 9.45788C40.9581 10.1333 40.1563 10.6691 39.2738 11.0347C38.3913 11.4002 37.4454 11.5884 36.4902 11.5884ZM36.4891 21.8139L36.4891 4.34361L33.5234 4.34361L33.5234 21.8139H36.4891Z" fill="#FFF9DC"/>
<path fill-rule="evenodd" clip-rule="evenodd" d="M71.2856 5.09626C72.5286 4.5814 73.8608 4.31641 75.2062 4.31641V7.28744C74.2509 7.28744 73.3051 7.47558 72.4226 7.84113C71.54 8.20668 70.7382 8.74247 70.0627 9.41791C69.3873 10.0934 68.8515 10.8952 68.486 11.7777C68.1204 12.6602 67.9323 13.6061 67.9323 14.5613H67.9266L67.9266 21.8152H64.9609V4.34486L67.9266 4.34486L67.9266 7.35257C67.9383 7.34071 67.9501 7.32888 67.9619 7.31708C68.9132 6.36575 70.0426 5.61111 71.2856 5.09626Z" fill="#FFF9DC"/>
<path fill-rule="evenodd" clip-rule="evenodd" d="M89.0747 5.09626C90.3176 4.5814 91.6498 4.31641 92.9952 4.31641V7.28744C92.04 7.28744 91.0941 7.47558 90.2116 7.84113C89.3291 8.20668 88.5272 8.74247 87.8518 9.41791C87.1764 10.0934 86.6406 10.8952 86.275 11.7777C85.9095 12.6602 85.7213 13.6061 85.7213 14.5613H85.7156L85.7156 21.8152H82.75V4.34486L85.7156 4.34486L85.7156 7.35257C85.7274 7.34071 85.7392 7.32888 85.751 7.31708C86.7023 6.36575 87.8317 5.61111 89.0747 5.09626Z" fill="#FFF9DC"/>
<mask id="mask0_13957_2308" style="mask-type:alpha" maskUnits="userSpaceOnUse" x="0" y="0" width="26" height="26">
<rect x="0.648438" y="0.578125" width="24.9944" height="24.9944" fill="white"/>
</mask>
<g mask="url(#mask0_13957_2308)">
<mask id="mask1_13957_2308" style="mask-type:alpha" maskUnits="userSpaceOnUse" x="5" y="-3" width="28" height="33">
<path d="M13.8808 29.0453H31.7009V-1.92773H13.8808L12.1065 5.82516L8.01791 9.95232L5.74219 13.4238L10.6408 18.5152L13.8808 29.0453Z" fill="#0DAB0C" stroke="black"/>
</mask>
<g mask="url(#mask1_13957_2308)">
<path fill-rule="evenodd" clip-rule="evenodd" d="M15.2608 25.5764H25.6428L25.6428 0.582033L0.64844 0.582031L0.648438 25.5764H11.0233C11.0229 24.215 10.7546 22.8668 10.2336 21.609C9.71219 20.3503 8.948 19.2066 7.98463 18.2432C7.02126 17.2799 5.87757 16.5157 4.61887 15.9943C3.36016 15.4729 2.01109 15.2046 0.648682 15.2046L0.64868 15.1971L0.648679 10.9596C2.01109 10.9596 3.36016 10.6912 4.61887 10.1699C5.87757 9.6485 7.02126 8.88431 7.98463 7.92094C8.948 6.95757 9.71219 5.81388 10.2336 4.55518C10.7549 3.29647 11.0233 1.9474 11.0233 0.584989L15.2608 0.584989C15.2608 2.50388 14.8828 4.40398 14.1485 6.1768C13.4142 7.94963 12.3379 9.56045 10.981 10.9173C10.1493 11.749 9.22215 12.4753 8.22077 13.0821C9.22215 13.6888 10.1493 14.4151 10.981 15.2469C12.3379 16.6037 13.4142 18.2145 14.1485 19.9874C14.8825 21.7593 15.2604 23.6585 15.2608 25.5764Z" fill="#0DAB0C"/>
</g>
<mask id="mask2_13957_2308" style="mask-type:alpha" maskUnits="userSpaceOnUse" x="-5" y="-3" width="19" height="33">
<path d="M12.5273 -1.9691L-4.44416 -1.9691L-4.44416 29.0039L12.5273 29.0039L12.5273 21.7524L9.51876 16.8924L6.16303 13.0738L12.5273 6.20809L12.5273 -1.9691Z" fill="#D9D9D9" stroke="black"/>
</mask>
<g mask="url(#mask2_13957_2308)">
<path fill-rule="evenodd" clip-rule="evenodd" d="M15.2582 25.5315H25.6428L25.6428 0.537113L0.64844 0.537109L0.648439 10.9125C2.01007 10.9122 3.35832 10.6438 4.61632 10.1227C5.87502 9.60137 7.01871 8.83718 7.98208 7.87381C8.94545 6.91044 9.70964 5.76675 10.231 4.50804C10.7524 3.24934 11.0207 1.90027 11.0207 0.537857L15.2582 0.537856C15.2582 2.45675 14.8803 4.35685 14.146 6.12967C13.4116 7.90249 12.3353 9.51332 10.9785 10.8702C10.1467 11.7019 9.2196 12.4282 8.21821 13.035C9.2196 13.6417 10.1467 14.368 10.9785 15.1997C12.3353 16.5566 13.4116 18.1674 14.146 19.9402C14.8802 21.7129 15.2582 23.6128 15.2582 25.5315ZM11.0207 25.5315C11.0207 24.1693 10.7523 22.8204 10.231 21.5619C9.70964 20.3032 8.94545 19.1595 7.98208 18.1961C7.01871 17.2327 5.87502 16.4685 4.61632 15.9472C3.35832 15.4261 2.01007 15.1577 0.648438 15.1574L0.648438 25.5315H11.0207Z" fill="#FE7506"/>
</g>
</g>
</svg>
