<svg width="407" height="31" viewBox="0 0 407 31" fill="none" xmlns="http://www.w3.org/2000/svg">
<path d="M392.865 1H15.1345C7.88053 1 2 7.49187 2 15.5C2 23.5081 7.88053 30 15.1345 30H392.865C400.119 30 406 23.5081 406 15.5C406 7.49187 400.119 1 392.865 1Z" stroke="url(#paint0_linear_14339_5226)" stroke-opacity="0.4"/>
<path d="M190.479 1H8.6648C4.98393 1 2 6.68801 2 14.9821C2 23.2763 4.98393 30 8.6648 30H190.479C194.16 30 207 30 207 14.9821C207 2.55357 197.144 1 190.479 1Z" fill="url(#paint1_linear_14339_5226)"/>
<path d="M247.066 16.136V15.226H249.908C250.3 15.226 250.65 15.1467 250.958 14.988C251.275 14.8293 251.522 14.6053 251.7 14.316C251.886 14.0173 251.98 13.6627 251.98 13.252C251.98 12.8413 251.886 12.4913 251.7 12.202C251.522 11.9033 251.275 11.6747 250.958 11.516C250.65 11.348 250.3 11.264 249.908 11.264H247.066V10.368H249.978C250.556 10.368 251.074 10.4893 251.532 10.732C251.989 10.9653 252.348 11.2967 252.61 11.726C252.88 12.1553 253.016 12.664 253.016 13.252C253.016 13.8307 252.88 14.3393 252.61 14.778C252.348 15.2073 251.989 15.5433 251.532 15.786C251.074 16.0193 250.556 16.136 249.978 16.136H247.066ZM246.408 20V10.368H247.43V20H246.408ZM259.475 20V16.136C259.475 15.5573 259.303 15.0907 258.957 14.736C258.621 14.372 258.173 14.19 257.613 14.19C257.231 14.19 256.895 14.274 256.605 14.442C256.316 14.61 256.087 14.8387 255.919 15.128C255.751 15.4173 255.667 15.7487 255.667 16.122L255.219 15.87C255.219 15.3753 255.336 14.932 255.569 14.54C255.803 14.148 256.115 13.84 256.507 13.616C256.909 13.392 257.366 13.28 257.879 13.28C258.383 13.28 258.831 13.3967 259.223 13.63C259.615 13.854 259.919 14.1667 260.133 14.568C260.357 14.9693 260.469 15.436 260.469 15.968V20H259.475ZM254.687 20V10.088H255.667V20H254.687ZM265.159 20.14C264.533 20.14 263.973 19.9907 263.479 19.692C262.984 19.384 262.592 18.9733 262.303 18.46C262.023 17.9467 261.883 17.368 261.883 16.724C261.883 16.0707 262.023 15.4873 262.303 14.974C262.592 14.4513 262.984 14.0407 263.479 13.742C263.973 13.434 264.529 13.28 265.145 13.28C265.649 13.28 266.097 13.3827 266.489 13.588C266.89 13.784 267.212 14.064 267.455 14.428C267.707 14.7827 267.861 15.198 267.917 15.674V17.732C267.861 18.208 267.707 18.628 267.455 18.992C267.212 19.356 266.89 19.6407 266.489 19.846C266.097 20.042 265.653 20.14 265.159 20.14ZM265.313 19.202C265.994 19.202 266.54 18.9733 266.951 18.516C267.371 18.0587 267.581 17.4567 267.581 16.71C267.581 16.2153 267.483 15.7813 267.287 15.408C267.1 15.0253 266.834 14.7313 266.489 14.526C266.153 14.3113 265.756 14.204 265.299 14.204C264.832 14.204 264.417 14.3113 264.053 14.526C263.698 14.7407 263.413 15.0393 263.199 15.422C262.993 15.7953 262.891 16.2247 262.891 16.71C262.891 17.1953 262.993 17.6247 263.199 17.998C263.413 18.3713 263.703 18.6653 264.067 18.88C264.431 19.0947 264.846 19.202 265.313 19.202ZM267.525 20V18.236L267.721 16.612L267.525 15.03V13.42H268.505V20H267.525ZM272.508 20.14C272.153 20.14 271.813 20.0933 271.486 20C271.159 19.8973 270.861 19.7573 270.59 19.58C270.329 19.4027 270.1 19.1927 269.904 18.95L270.534 18.306C270.795 18.6233 271.089 18.8613 271.416 19.02C271.752 19.1693 272.125 19.244 272.536 19.244C272.975 19.244 273.315 19.16 273.558 18.992C273.81 18.824 273.936 18.5907 273.936 18.292C273.936 18.012 273.847 17.7927 273.67 17.634C273.493 17.4753 273.264 17.3493 272.984 17.256C272.713 17.1627 272.424 17.074 272.116 16.99C271.808 16.8967 271.514 16.7847 271.234 16.654C270.954 16.514 270.725 16.3227 270.548 16.08C270.38 15.8373 270.296 15.52 270.296 15.128C270.296 14.7547 270.385 14.4327 270.562 14.162C270.749 13.882 271.01 13.6673 271.346 13.518C271.691 13.3593 272.097 13.28 272.564 13.28C273.059 13.28 273.507 13.3687 273.908 13.546C274.309 13.7233 274.631 13.9847 274.874 14.33L274.244 14.96C274.048 14.708 273.801 14.5167 273.502 14.386C273.213 14.246 272.886 14.176 272.522 14.176C272.102 14.176 271.78 14.26 271.556 14.428C271.341 14.5867 271.234 14.7967 271.234 15.058C271.234 15.31 271.323 15.5107 271.5 15.66C271.677 15.8 271.901 15.9167 272.172 16.01C272.452 16.094 272.746 16.1827 273.054 16.276C273.362 16.36 273.656 16.4767 273.936 16.626C274.216 16.766 274.44 16.962 274.608 17.214C274.785 17.4567 274.874 17.788 274.874 18.208C274.874 18.796 274.659 19.2673 274.23 19.622C273.81 19.9673 273.236 20.14 272.508 20.14ZM279.464 20.14C278.801 20.14 278.208 19.9907 277.686 19.692C277.163 19.3933 276.748 18.9827 276.44 18.46C276.141 17.9373 275.992 17.3493 275.992 16.696C275.992 16.052 276.141 15.4733 276.44 14.96C276.738 14.4373 277.144 14.0267 277.658 13.728C278.171 13.4293 278.745 13.28 279.38 13.28C279.977 13.28 280.504 13.4153 280.962 13.686C281.428 13.9567 281.792 14.3347 282.054 14.82C282.324 15.296 282.46 15.8467 282.46 16.472C282.46 16.5467 282.455 16.6353 282.446 16.738C282.436 16.8313 282.418 16.9433 282.39 17.074H276.692V16.234H281.858L281.508 16.542C281.517 16.0567 281.433 15.6413 281.256 15.296C281.088 14.9413 280.84 14.6707 280.514 14.484C280.196 14.288 279.809 14.19 279.352 14.19C278.876 14.19 278.46 14.2927 278.106 14.498C277.751 14.7033 277.471 14.9927 277.266 15.366C277.07 15.73 276.972 16.164 276.972 16.668C276.972 17.172 277.074 17.6153 277.28 17.998C277.494 18.3807 277.788 18.6793 278.162 18.894C278.544 19.1087 278.983 19.216 279.478 19.216C279.879 19.216 280.248 19.146 280.584 19.006C280.92 18.8567 281.204 18.6373 281.438 18.348L282.068 18.992C281.76 19.356 281.377 19.6407 280.92 19.846C280.472 20.042 279.986 20.14 279.464 20.14ZM284.137 16.92V15.982H288.603V16.92H284.137ZM289.649 19.37L293.219 15.646C293.63 15.2073 293.947 14.8387 294.171 14.54C294.405 14.2413 294.563 13.9707 294.647 13.728C294.741 13.476 294.787 13.2147 294.787 12.944C294.787 12.3933 294.615 11.964 294.269 11.656C293.924 11.3387 293.467 11.18 292.897 11.18C292.375 11.18 291.917 11.306 291.525 11.558C291.133 11.8007 290.783 12.1693 290.475 12.664L289.761 12.034C290.135 11.446 290.583 10.998 291.105 10.69C291.628 10.382 292.235 10.228 292.925 10.228C293.504 10.228 294.008 10.34 294.437 10.564C294.876 10.788 295.212 11.1053 295.445 11.516C295.688 11.9267 295.809 12.4073 295.809 12.958C295.809 13.3407 295.758 13.6907 295.655 14.008C295.553 14.316 295.371 14.6427 295.109 14.988C294.857 15.324 294.498 15.7347 294.031 16.22L291.007 19.328L289.649 19.37ZM289.649 20V19.37L290.489 19.076H296.047V20H289.649ZM300.68 20V13.42H301.674V20H300.68ZM301.17 11.992C300.983 11.992 300.824 11.9267 300.694 11.796C300.563 11.656 300.498 11.4927 300.498 11.306C300.498 11.11 300.563 10.9467 300.694 10.816C300.824 10.6853 300.983 10.62 301.17 10.62C301.375 10.62 301.538 10.6853 301.66 10.816C301.79 10.9467 301.856 11.11 301.856 11.306C301.856 11.4927 301.79 11.656 301.66 11.796C301.538 11.9267 301.375 11.992 301.17 11.992ZM305.676 20.14C305.321 20.14 304.981 20.0933 304.654 20C304.327 19.8973 304.029 19.7573 303.758 19.58C303.497 19.4027 303.268 19.1927 303.072 18.95L303.702 18.306C303.963 18.6233 304.257 18.8613 304.584 19.02C304.92 19.1693 305.293 19.244 305.704 19.244C306.143 19.244 306.483 19.16 306.726 18.992C306.978 18.824 307.104 18.5907 307.104 18.292C307.104 18.012 307.015 17.7927 306.838 17.634C306.661 17.4753 306.432 17.3493 306.152 17.256C305.881 17.1627 305.592 17.074 305.284 16.99C304.976 16.8967 304.682 16.7847 304.402 16.654C304.122 16.514 303.893 16.3227 303.716 16.08C303.548 15.8373 303.464 15.52 303.464 15.128C303.464 14.7547 303.553 14.4327 303.73 14.162C303.917 13.882 304.178 13.6673 304.514 13.518C304.859 13.3593 305.265 13.28 305.732 13.28C306.227 13.28 306.675 13.3687 307.076 13.546C307.477 13.7233 307.799 13.9847 308.042 14.33L307.412 14.96C307.216 14.708 306.969 14.5167 306.67 14.386C306.381 14.246 306.054 14.176 305.69 14.176C305.27 14.176 304.948 14.26 304.724 14.428C304.509 14.5867 304.402 14.7967 304.402 15.058C304.402 15.31 304.491 15.5107 304.668 15.66C304.845 15.8 305.069 15.9167 305.34 16.01C305.62 16.094 305.914 16.1827 306.222 16.276C306.53 16.36 306.824 16.4767 307.104 16.626C307.384 16.766 307.608 16.962 307.776 17.214C307.953 17.4567 308.042 17.788 308.042 18.208C308.042 18.796 307.827 19.2673 307.398 19.622C306.978 19.9673 306.404 20.14 305.676 20.14ZM315.597 20.14C314.953 20.14 314.37 19.9907 313.847 19.692C313.334 19.384 312.923 18.9687 312.615 18.446C312.317 17.9233 312.167 17.34 312.167 16.696C312.167 16.052 312.317 15.4733 312.615 14.96C312.923 14.4373 313.334 14.0267 313.847 13.728C314.37 13.4293 314.953 13.28 315.597 13.28C316.092 13.28 316.554 13.3733 316.983 13.56C317.413 13.7467 317.777 14.008 318.075 14.344L317.431 15.002C317.207 14.75 316.937 14.5587 316.619 14.428C316.302 14.288 315.961 14.218 315.597 14.218C315.131 14.218 314.715 14.3253 314.351 14.54C313.987 14.7547 313.703 15.0487 313.497 15.422C313.292 15.786 313.189 16.2107 313.189 16.696C313.189 17.172 313.292 17.6013 313.497 17.984C313.703 18.3573 313.987 18.6513 314.351 18.866C314.715 19.0807 315.131 19.188 315.597 19.188C315.971 19.188 316.316 19.1227 316.633 18.992C316.951 18.852 317.221 18.656 317.445 18.404L318.103 19.062C317.795 19.4073 317.422 19.6733 316.983 19.86C316.554 20.0467 316.092 20.14 315.597 20.14ZM322.337 20.14C321.703 20.14 321.124 19.986 320.601 19.678C320.088 19.37 319.677 18.9547 319.369 18.432C319.071 17.9093 318.921 17.326 318.921 16.682C318.921 16.0473 319.071 15.4733 319.369 14.96C319.677 14.4467 320.088 14.0407 320.601 13.742C321.124 13.434 321.703 13.28 322.337 13.28C322.981 13.28 323.56 13.4293 324.073 13.728C324.587 14.0267 324.993 14.4373 325.291 14.96C325.599 15.4733 325.753 16.0473 325.753 16.682C325.753 17.3353 325.599 17.9233 325.291 18.446C324.993 18.9593 324.587 19.37 324.073 19.678C323.56 19.986 322.981 20.14 322.337 20.14ZM322.337 19.188C322.804 19.188 323.215 19.0807 323.569 18.866C323.933 18.6513 324.218 18.3527 324.423 17.97C324.638 17.5873 324.745 17.158 324.745 16.682C324.745 16.206 324.638 15.786 324.423 15.422C324.218 15.0487 323.933 14.7547 323.569 14.54C323.215 14.3253 322.804 14.218 322.337 14.218C321.88 14.218 321.469 14.3253 321.105 14.54C320.741 14.7547 320.457 15.0487 320.251 15.422C320.046 15.786 319.943 16.206 319.943 16.682C319.943 17.1673 320.046 17.6013 320.251 17.984C320.457 18.3573 320.741 18.6513 321.105 18.866C321.469 19.0807 321.88 19.188 322.337 19.188ZM327.312 20V13.42H328.292V20H327.312ZM331.834 20V15.968C331.834 15.4267 331.671 14.9973 331.344 14.68C331.018 14.3533 330.607 14.19 330.112 14.19C329.776 14.19 329.468 14.2647 329.188 14.414C328.918 14.554 328.698 14.7547 328.53 15.016C328.372 15.2773 328.292 15.59 328.292 15.954L327.844 15.772C327.844 15.268 327.956 14.8293 328.18 14.456C328.404 14.0827 328.703 13.7933 329.076 13.588C329.459 13.3827 329.888 13.28 330.364 13.28C330.831 13.28 331.246 13.3827 331.61 13.588C331.984 13.7933 332.278 14.0827 332.492 14.456C332.716 14.8293 332.828 15.2727 332.828 15.786V20H331.834ZM336.37 20V15.968C336.37 15.4267 336.207 14.9973 335.88 14.68C335.554 14.3533 335.138 14.19 334.634 14.19C334.308 14.19 334.004 14.2647 333.724 14.414C333.454 14.554 333.234 14.7547 333.066 15.016C332.908 15.2773 332.828 15.59 332.828 15.954L332.24 15.772C332.268 15.268 332.399 14.8293 332.632 14.456C332.875 14.0827 333.188 13.7933 333.57 13.588C333.962 13.3827 334.392 13.28 334.858 13.28C335.325 13.28 335.745 13.3827 336.118 13.588C336.501 13.7933 336.8 14.0827 337.014 14.456C337.238 14.8293 337.35 15.2727 337.35 15.786V20H336.37ZM339.193 20V13.42H340.173V20H339.193ZM343.715 20V15.968C343.715 15.4267 343.552 14.9973 343.225 14.68C342.899 14.3533 342.488 14.19 341.993 14.19C341.657 14.19 341.349 14.2647 341.069 14.414C340.799 14.554 340.579 14.7547 340.411 15.016C340.253 15.2773 340.173 15.59 340.173 15.954L339.725 15.772C339.725 15.268 339.837 14.8293 340.061 14.456C340.285 14.0827 340.584 13.7933 340.957 13.588C341.34 13.3827 341.769 13.28 342.245 13.28C342.712 13.28 343.127 13.3827 343.491 13.588C343.865 13.7933 344.159 14.0827 344.373 14.456C344.597 14.8293 344.709 15.2727 344.709 15.786V20H343.715ZM348.251 20V15.968C348.251 15.4267 348.088 14.9973 347.761 14.68C347.435 14.3533 347.019 14.19 346.515 14.19C346.189 14.19 345.885 14.2647 345.605 14.414C345.335 14.554 345.115 14.7547 344.947 15.016C344.789 15.2773 344.709 15.59 344.709 15.954L344.121 15.772C344.149 15.268 344.28 14.8293 344.513 14.456C344.756 14.0827 345.069 13.7933 345.451 13.588C345.843 13.3827 346.273 13.28 346.739 13.28C347.206 13.28 347.626 13.3827 347.999 13.588C348.382 13.7933 348.681 14.0827 348.895 14.456C349.119 14.8293 349.231 15.2727 349.231 15.786V20H348.251ZM351.074 20V13.42H352.068V20H351.074ZM351.564 11.992C351.377 11.992 351.219 11.9267 351.088 11.796C350.957 11.656 350.892 11.4927 350.892 11.306C350.892 11.11 350.957 10.9467 351.088 10.816C351.219 10.6853 351.377 10.62 351.564 10.62C351.769 10.62 351.933 10.6853 352.054 10.816C352.185 10.9467 352.25 11.11 352.25 11.306C352.25 11.4927 352.185 11.656 352.054 11.796C351.933 11.9267 351.769 11.992 351.564 11.992ZM358.843 20V16.136C358.843 15.5573 358.67 15.0907 358.325 14.736C357.989 14.372 357.541 14.19 356.981 14.19C356.598 14.19 356.262 14.274 355.973 14.442C355.683 14.61 355.455 14.8387 355.287 15.128C355.119 15.4173 355.035 15.7487 355.035 16.122L354.587 15.87C354.587 15.3753 354.703 14.932 354.937 14.54C355.17 14.148 355.483 13.84 355.875 13.616C356.276 13.392 356.733 13.28 357.247 13.28C357.751 13.28 358.199 13.4013 358.591 13.644C358.983 13.8867 359.286 14.2133 359.501 14.624C359.725 15.0347 359.837 15.4827 359.837 15.968V20H358.843ZM354.055 20V13.42H355.035V20H354.055ZM364.386 22.912C363.723 22.912 363.13 22.786 362.608 22.534C362.094 22.2913 361.679 21.946 361.362 21.498L362.006 20.854C362.267 21.2087 362.598 21.484 363 21.68C363.401 21.876 363.872 21.974 364.414 21.974C365.16 21.974 365.753 21.7733 366.192 21.372C366.64 20.9707 366.864 20.4247 366.864 19.734V18.096L367.06 16.598L366.864 15.114V13.42H367.844V19.734C367.844 20.3687 367.699 20.924 367.41 21.4C367.12 21.876 366.714 22.2447 366.192 22.506C365.678 22.7767 365.076 22.912 364.386 22.912ZM364.456 19.93C363.849 19.93 363.303 19.7853 362.818 19.496C362.332 19.2067 361.95 18.81 361.67 18.306C361.39 17.802 361.25 17.2327 361.25 16.598C361.25 15.9633 361.385 15.3987 361.656 14.904C361.936 14.4 362.318 14.0033 362.804 13.714C363.289 13.4247 363.835 13.28 364.442 13.28C364.955 13.28 365.412 13.378 365.814 13.574C366.224 13.77 366.551 14.05 366.794 14.414C367.046 14.7687 367.2 15.1887 367.256 15.674V17.536C367.2 18.012 367.046 18.432 366.794 18.796C366.542 19.1507 366.215 19.4307 365.814 19.636C365.412 19.832 364.96 19.93 364.456 19.93ZM364.638 18.992C365.095 18.992 365.492 18.894 365.828 18.698C366.173 18.502 366.439 18.2267 366.626 17.872C366.822 17.508 366.92 17.0833 366.92 16.598C366.92 16.122 366.822 15.7067 366.626 15.352C366.439 14.9973 366.173 14.7173 365.828 14.512C365.482 14.3067 365.081 14.204 364.624 14.204C364.166 14.204 363.756 14.3067 363.392 14.512C363.037 14.7173 362.757 14.9973 362.552 15.352C362.356 15.7067 362.258 16.122 362.258 16.598C362.258 17.0647 362.36 17.48 362.566 17.844C362.771 18.208 363.051 18.4927 363.406 18.698C363.76 18.894 364.171 18.992 364.638 18.992Z" fill="#C8C8C8"/>
<path d="M53.9017 17.136V16.226H56.7437C57.1357 16.226 57.4857 16.1467 57.7937 15.988C58.1111 15.8293 58.3584 15.6053 58.5357 15.316C58.7224 15.0173 58.8157 14.6627 58.8157 14.252C58.8157 13.8413 58.7224 13.4913 58.5357 13.202C58.3584 12.9033 58.1111 12.6747 57.7937 12.516C57.4857 12.348 57.1357 12.264 56.7437 12.264H53.9017V11.368H56.8137C57.3924 11.368 57.9104 11.4893 58.3677 11.732C58.8251 11.9653 59.1844 12.2967 59.4457 12.726C59.7164 13.1553 59.8517 13.664 59.8517 14.252C59.8517 14.8307 59.7164 15.3393 59.4457 15.778C59.1844 16.2073 58.8251 16.5433 58.3677 16.786C57.9104 17.0193 57.3924 17.136 56.8137 17.136H53.9017ZM53.2437 21V11.368H54.2657V21H53.2437ZM66.3113 21V17.136C66.3113 16.5573 66.1386 16.0907 65.7933 15.736C65.4573 15.372 65.0093 15.19 64.4493 15.19C64.0666 15.19 63.7306 15.274 63.4413 15.442C63.152 15.61 62.9233 15.8387 62.7553 16.128C62.5873 16.4173 62.5033 16.7487 62.5033 17.122L62.0553 16.87C62.0553 16.3753 62.172 15.932 62.4053 15.54C62.6386 15.148 62.9513 14.84 63.3433 14.616C63.7446 14.392 64.202 14.28 64.7153 14.28C65.2193 14.28 65.6673 14.3967 66.0593 14.63C66.4513 14.854 66.7546 15.1667 66.9693 15.568C67.1933 15.9693 67.3053 16.436 67.3053 16.968V21H66.3113ZM61.5233 21V11.088H62.5033V21H61.5233ZM71.9945 21.14C71.3692 21.14 70.8092 20.9907 70.3145 20.692C69.8199 20.384 69.4279 19.9733 69.1385 19.46C68.8585 18.9467 68.7185 18.368 68.7185 17.724C68.7185 17.0707 68.8585 16.4873 69.1385 15.974C69.4279 15.4513 69.8199 15.0407 70.3145 14.742C70.8092 14.434 71.3645 14.28 71.9805 14.28C72.4845 14.28 72.9325 14.3827 73.3245 14.588C73.7259 14.784 74.0479 15.064 74.2905 15.428C74.5425 15.7827 74.6965 16.198 74.7525 16.674V18.732C74.6965 19.208 74.5425 19.628 74.2905 19.992C74.0479 20.356 73.7259 20.6407 73.3245 20.846C72.9325 21.042 72.4892 21.14 71.9945 21.14ZM72.1485 20.202C72.8299 20.202 73.3759 19.9733 73.7865 19.516C74.2065 19.0587 74.4165 18.4567 74.4165 17.71C74.4165 17.2153 74.3185 16.7813 74.1225 16.408C73.9359 16.0253 73.6699 15.7313 73.3245 15.526C72.9885 15.3113 72.5919 15.204 72.1345 15.204C71.6679 15.204 71.2525 15.3113 70.8885 15.526C70.5339 15.7407 70.2492 16.0393 70.0345 16.422C69.8292 16.7953 69.7265 17.2247 69.7265 17.71C69.7265 18.1953 69.8292 18.6247 70.0345 18.998C70.2492 19.3713 70.5385 19.6653 70.9025 19.88C71.2665 20.0947 71.6819 20.202 72.1485 20.202ZM74.3605 21V19.236L74.5565 17.612L74.3605 16.03V14.42H75.3405V21H74.3605ZM79.344 21.14C78.9893 21.14 78.6487 21.0933 78.322 21C77.9953 20.8973 77.6967 20.7573 77.426 20.58C77.1647 20.4027 76.936 20.1927 76.74 19.95L77.37 19.306C77.6313 19.6233 77.9253 19.8613 78.252 20.02C78.588 20.1693 78.9613 20.244 79.372 20.244C79.8107 20.244 80.1513 20.16 80.394 19.992C80.646 19.824 80.772 19.5907 80.772 19.292C80.772 19.012 80.6833 18.7927 80.506 18.634C80.3287 18.4753 80.1 18.3493 79.82 18.256C79.5493 18.1627 79.26 18.074 78.952 17.99C78.644 17.8967 78.35 17.7847 78.07 17.654C77.79 17.514 77.5613 17.3227 77.384 17.08C77.216 16.8373 77.132 16.52 77.132 16.128C77.132 15.7547 77.2207 15.4327 77.398 15.162C77.5847 14.882 77.846 14.6673 78.182 14.518C78.5273 14.3593 78.9333 14.28 79.4 14.28C79.8947 14.28 80.3427 14.3687 80.744 14.546C81.1453 14.7233 81.4673 14.9847 81.71 15.33L81.08 15.96C80.884 15.708 80.6367 15.5167 80.338 15.386C80.0487 15.246 79.722 15.176 79.358 15.176C78.938 15.176 78.616 15.26 78.392 15.428C78.1773 15.5867 78.07 15.7967 78.07 16.058C78.07 16.31 78.1587 16.5107 78.336 16.66C78.5133 16.8 78.7373 16.9167 79.008 17.01C79.288 17.094 79.582 17.1827 79.89 17.276C80.198 17.36 80.492 17.4767 80.772 17.626C81.052 17.766 81.276 17.962 81.444 18.214C81.6213 18.4567 81.71 18.788 81.71 19.208C81.71 19.796 81.4953 20.2673 81.066 20.622C80.646 20.9673 80.072 21.14 79.344 21.14ZM86.2996 21.14C85.6369 21.14 85.0442 20.9907 84.5216 20.692C83.9989 20.3933 83.5836 19.9827 83.2756 19.46C82.9769 18.9373 82.8276 18.3493 82.8276 17.696C82.8276 17.052 82.9769 16.4733 83.2756 15.96C83.5742 15.4373 83.9802 15.0267 84.4936 14.728C85.0069 14.4293 85.5809 14.28 86.2156 14.28C86.8129 14.28 87.3402 14.4153 87.7976 14.686C88.2642 14.9567 88.6282 15.3347 88.8896 15.82C89.1602 16.296 89.2956 16.8467 89.2956 17.472C89.2956 17.5467 89.2909 17.6353 89.2816 17.738C89.2722 17.8313 89.2536 17.9433 89.2256 18.074H83.5276V17.234H88.6936L88.3436 17.542C88.3529 17.0567 88.2689 16.6413 88.0916 16.296C87.9236 15.9413 87.6762 15.6707 87.3496 15.484C87.0322 15.288 86.6449 15.19 86.1876 15.19C85.7116 15.19 85.2962 15.2927 84.9416 15.498C84.5869 15.7033 84.3069 15.9927 84.1016 16.366C83.9056 16.73 83.8076 17.164 83.8076 17.668C83.8076 18.172 83.9102 18.6153 84.1156 18.998C84.3302 19.3807 84.6242 19.6793 84.9976 19.894C85.3802 20.1087 85.8189 20.216 86.3136 20.216C86.7149 20.216 87.0836 20.146 87.4196 20.006C87.7556 19.8567 88.0402 19.6373 88.2736 19.348L88.9036 19.992C88.5956 20.356 88.2129 20.6407 87.7556 20.846C87.3076 21.042 86.8222 21.14 86.2996 21.14ZM90.9725 17.92V16.982H95.4385V17.92H90.9725ZM98.1317 21V11.368H99.1397V21H98.1317ZM96.1017 12.278V11.368H98.9997V12.278H96.1017ZM104.33 21V14.42H105.324V21H104.33ZM104.82 12.992C104.633 12.992 104.475 12.9267 104.344 12.796C104.213 12.656 104.148 12.4927 104.148 12.306C104.148 12.11 104.213 11.9467 104.344 11.816C104.475 11.6853 104.633 11.62 104.82 11.62C105.025 11.62 105.189 11.6853 105.31 11.816C105.441 11.9467 105.506 12.11 105.506 12.306C105.506 12.4927 105.441 12.656 105.31 12.796C105.189 12.9267 105.025 12.992 104.82 12.992ZM109.326 21.14C108.972 21.14 108.631 21.0933 108.304 21C107.978 20.8973 107.679 20.7573 107.408 20.58C107.147 20.4027 106.918 20.1927 106.722 19.95L107.352 19.306C107.614 19.6233 107.908 19.8613 108.234 20.02C108.57 20.1693 108.944 20.244 109.354 20.244C109.793 20.244 110.134 20.16 110.376 19.992C110.628 19.824 110.754 19.5907 110.754 19.292C110.754 19.012 110.666 18.7927 110.488 18.634C110.311 18.4753 110.082 18.3493 109.802 18.256C109.532 18.1627 109.242 18.074 108.934 17.99C108.626 17.8967 108.332 17.7847 108.052 17.654C107.772 17.514 107.544 17.3227 107.366 17.08C107.198 16.8373 107.114 16.52 107.114 16.128C107.114 15.7547 107.203 15.4327 107.38 15.162C107.567 14.882 107.828 14.6673 108.164 14.518C108.51 14.3593 108.916 14.28 109.382 14.28C109.877 14.28 110.325 14.3687 110.726 14.546C111.128 14.7233 111.45 14.9847 111.692 15.33L111.062 15.96C110.866 15.708 110.619 15.5167 110.32 15.386C110.031 15.246 109.704 15.176 109.34 15.176C108.92 15.176 108.598 15.26 108.374 15.428C108.16 15.5867 108.052 15.7967 108.052 16.058C108.052 16.31 108.141 16.5107 108.318 16.66C108.496 16.8 108.72 16.9167 108.99 17.01C109.27 17.094 109.564 17.1827 109.872 17.276C110.18 17.36 110.474 17.4767 110.754 17.626C111.034 17.766 111.258 17.962 111.426 18.214C111.604 18.4567 111.692 18.788 111.692 19.208C111.692 19.796 111.478 20.2673 111.048 20.622C110.628 20.9673 110.054 21.14 109.326 21.14ZM116.252 21V14.42H117.232V21H116.252ZM117.232 17.164L116.826 16.982C116.826 16.1513 117.026 15.4933 117.428 15.008C117.838 14.5227 118.398 14.28 119.108 14.28C119.434 14.28 119.733 14.3407 120.004 14.462C120.274 14.574 120.526 14.756 120.76 15.008L120.116 15.694C119.957 15.5167 119.78 15.3907 119.584 15.316C119.397 15.2413 119.182 15.204 118.94 15.204C118.436 15.204 118.025 15.372 117.708 15.708C117.39 16.0347 117.232 16.52 117.232 17.164ZM124.407 21.14C123.875 21.14 123.399 21.0187 122.979 20.776C122.559 20.524 122.227 20.1833 121.985 19.754C121.751 19.3247 121.635 18.8207 121.635 18.242V14.42H122.629V18.2C122.629 18.6013 122.699 18.9513 122.839 19.25C122.988 19.5487 123.198 19.782 123.469 19.95C123.739 20.118 124.052 20.202 124.407 20.202C124.957 20.202 125.391 20.02 125.709 19.656C126.035 19.292 126.199 18.8067 126.199 18.2V14.42H127.179V18.242C127.179 18.8113 127.062 19.3153 126.829 19.754C126.595 20.1927 126.269 20.5333 125.849 20.776C125.429 21.0187 124.948 21.14 124.407 21.14ZM133.796 21V17.136C133.796 16.5573 133.623 16.0907 133.278 15.736C132.942 15.372 132.494 15.19 131.934 15.19C131.551 15.19 131.215 15.274 130.926 15.442C130.636 15.61 130.408 15.8387 130.24 16.128C130.072 16.4173 129.988 16.7487 129.988 17.122L129.54 16.87C129.54 16.3753 129.656 15.932 129.89 15.54C130.123 15.148 130.436 14.84 130.828 14.616C131.229 14.392 131.686 14.28 132.2 14.28C132.704 14.28 133.152 14.4013 133.544 14.644C133.936 14.8867 134.239 15.2133 134.454 15.624C134.678 16.0347 134.79 16.4827 134.79 16.968V21H133.796ZM129.008 21V14.42H129.988V21H129.008ZM141.411 21V17.136C141.411 16.5573 141.238 16.0907 140.893 15.736C140.557 15.372 140.109 15.19 139.549 15.19C139.166 15.19 138.83 15.274 138.541 15.442C138.252 15.61 138.023 15.8387 137.855 16.128C137.687 16.4173 137.603 16.7487 137.603 17.122L137.155 16.87C137.155 16.3753 137.272 15.932 137.505 15.54C137.738 15.148 138.051 14.84 138.443 14.616C138.844 14.392 139.302 14.28 139.815 14.28C140.319 14.28 140.767 14.4013 141.159 14.644C141.551 14.8867 141.854 15.2133 142.069 15.624C142.293 16.0347 142.405 16.4827 142.405 16.968V21H141.411ZM136.623 21V14.42H137.603V21H136.623ZM144.238 21V14.42H145.232V21H144.238ZM144.728 12.992C144.541 12.992 144.383 12.9267 144.252 12.796C144.121 12.656 144.056 12.4927 144.056 12.306C144.056 12.11 144.121 11.9467 144.252 11.816C144.383 11.6853 144.541 11.62 144.728 11.62C144.933 11.62 145.097 11.6853 145.218 11.816C145.349 11.9467 145.414 12.11 145.414 12.306C145.414 12.4927 145.349 12.656 145.218 12.796C145.097 12.9267 144.933 12.992 144.728 12.992ZM152.007 21V17.136C152.007 16.5573 151.834 16.0907 151.489 15.736C151.153 15.372 150.705 15.19 150.145 15.19C149.762 15.19 149.426 15.274 149.137 15.442C148.847 15.61 148.619 15.8387 148.451 16.128C148.283 16.4173 148.199 16.7487 148.199 17.122L147.751 16.87C147.751 16.3753 147.867 15.932 148.101 15.54C148.334 15.148 148.647 14.84 149.039 14.616C149.44 14.392 149.897 14.28 150.411 14.28C150.915 14.28 151.363 14.4013 151.755 14.644C152.147 14.8867 152.45 15.2133 152.665 15.624C152.889 16.0347 153.001 16.4827 153.001 16.968V21H152.007ZM147.219 21V14.42H148.199V21H147.219ZM157.55 23.912C156.887 23.912 156.295 23.786 155.772 23.534C155.259 23.2913 154.843 22.946 154.526 22.498L155.17 21.854C155.431 22.2087 155.763 22.484 156.164 22.68C156.565 22.876 157.037 22.974 157.578 22.974C158.325 22.974 158.917 22.7733 159.356 22.372C159.804 21.9707 160.028 21.4247 160.028 20.734V19.096L160.224 17.598L160.028 16.114V14.42H161.008V20.734C161.008 21.3687 160.863 21.924 160.574 22.4C160.285 22.876 159.879 23.2447 159.356 23.506C158.843 23.7767 158.241 23.912 157.55 23.912ZM157.62 20.93C157.013 20.93 156.467 20.7853 155.982 20.496C155.497 20.2067 155.114 19.81 154.834 19.306C154.554 18.802 154.414 18.2327 154.414 17.598C154.414 16.9633 154.549 16.3987 154.82 15.904C155.1 15.4 155.483 15.0033 155.968 14.714C156.453 14.4247 156.999 14.28 157.606 14.28C158.119 14.28 158.577 14.378 158.978 14.574C159.389 14.77 159.715 15.05 159.958 15.414C160.21 15.7687 160.364 16.1887 160.42 16.674V18.536C160.364 19.012 160.21 19.432 159.958 19.796C159.706 20.1507 159.379 20.4307 158.978 20.636C158.577 20.832 158.124 20.93 157.62 20.93ZM157.802 19.992C158.259 19.992 158.656 19.894 158.992 19.698C159.337 19.502 159.603 19.2267 159.79 18.872C159.986 18.508 160.084 18.0833 160.084 17.598C160.084 17.122 159.986 16.7067 159.79 16.352C159.603 15.9973 159.337 15.7173 158.992 15.512C158.647 15.3067 158.245 15.204 157.788 15.204C157.331 15.204 156.92 15.3067 156.556 15.512C156.201 15.7173 155.921 15.9973 155.716 16.352C155.52 16.7067 155.422 17.122 155.422 17.598C155.422 18.0647 155.525 18.48 155.73 18.844C155.935 19.208 156.215 19.4927 156.57 19.698C156.925 19.894 157.335 19.992 157.802 19.992Z" fill="white"/>
<mask id="mask0_14339_5226" style="mask-type:luminance" maskUnits="userSpaceOnUse" x="16" y="6" width="19" height="19">
<path d="M34.5 6.5H16.5V24.5H34.5V6.5Z" fill="white"/>
</mask>
<g mask="url(#mask0_14339_5226)">
<path d="M26.1443 19.7231H26.1294C25.1416 19.6833 24.1953 19.5654 23.3935 19.3828C23.2108 19.3413 23.0979 19.1603 23.1394 18.9777C23.1809 18.7951 23.3636 18.6805 23.5445 18.7237C24.3065 18.898 25.2097 19.0093 26.1576 19.0474C26.3436 19.0557 26.4896 19.2118 26.4813 19.3994C26.4747 19.5804 26.3253 19.7231 26.1443 19.7231ZM27.896 19.9223C27.7167 19.9223 27.5686 19.7829 27.5586 19.6036C27.547 19.4177 27.6898 19.2566 27.8774 19.2467C30.7362 19.079 32.2588 18.2937 32.2588 17.7923C32.2588 17.6064 32.4098 17.4537 32.5974 17.4537C32.7833 17.4537 32.936 17.6047 32.936 17.7923C32.936 19.0607 30.4158 19.7763 27.919 19.9223H27.896ZM26.8349 18.3518C26.0962 18.3518 25.3707 18.3087 24.6784 18.2223C24.4925 18.1991 24.3613 18.0298 24.3846 17.8455C24.4078 17.6595 24.5755 17.5267 24.7614 17.5517C26.2456 17.7359 27.9224 17.7143 29.3318 17.4935C29.5145 17.4686 29.6888 17.5915 29.7186 17.7757C29.7485 17.96 29.6207 18.1327 29.4364 18.1626C28.6246 18.2871 27.7497 18.3518 26.8349 18.3518ZM29.4985 18.1626C29.3541 18.1626 29.545 17.9584 29.4985 17.814C29.4711 17.7243 29.3941 17.5999 29.4985 17.5013C29.603 17.4027 29.4985 17.5013 30.7795 17.1665C31.8702 16.8262 32.257 16.4277 32.257 16.1903C32.257 15.6142 30.22 14.746 27.0275 14.6962C26.8416 14.6928 26.6922 14.5385 26.6955 14.3525C26.6988 14.1666 26.8549 14.0056 27.0391 14.0205C29.9693 14.067 32.9344 14.8273 32.9344 16.192C32.9344 16.6535 32.5957 17.3109 30.982 17.814C30.9488 17.8223 29.5317 18.1626 29.4985 18.1626Z" fill="#00FF1A"/>
<path fill-rule="evenodd" clip-rule="evenodd" d="M29.3012 17.65C27.8194 17.8768 26.2997 17.8935 24.7421 17.7001C24.6911 17.6933 24.6455 17.7057 24.6051 17.7374C24.5642 17.7694 24.5405 17.8116 24.5339 17.8641C24.5275 17.9152 24.5402 17.9611 24.572 18.002C24.6039 18.0431 24.6458 18.0668 24.6975 18.0733C25.3836 18.1589 26.0963 18.2017 26.8355 18.2017C27.701 18.2017 28.5257 18.1444 29.3096 18.0298C29.3146 18.0119 29.3208 17.9925 29.3282 17.9715C29.3506 17.9083 29.3597 17.8703 29.3556 17.8576C29.3534 17.8502 29.3485 17.8365 29.341 17.8166C29.3183 17.7566 29.3051 17.7011 29.3012 17.65ZM29.4608 18.3105L29.4597 18.3107C28.6295 18.438 27.7548 18.5017 26.8355 18.5017C26.0839 18.5017 25.3589 18.4581 24.6604 18.371C24.5264 18.3543 24.418 18.2927 24.3352 18.1863C24.2524 18.0799 24.2195 17.96 24.2363 17.8265C24.2531 17.6925 24.3143 17.5841 24.42 17.5013C24.5268 17.4176 24.6474 17.3848 24.7819 17.4028C26.3288 17.5949 27.8379 17.5756 29.3092 17.3452C29.3615 17.338 29.4119 17.3382 29.4603 17.3459C29.5135 17.316 29.583 17.2925 29.6688 17.2753C29.9594 17.2169 30.316 17.1325 30.7387 17.0221C31.222 16.871 31.5887 16.7033 31.8388 16.5189C32.018 16.3868 32.1076 16.2772 32.1076 16.1901C32.1076 16.0965 32.0068 15.9814 31.8053 15.8448C31.564 15.6813 31.2267 15.5292 30.7936 15.3884C29.752 15.0497 28.4959 14.8689 27.0254 14.846C26.8911 14.8436 26.777 14.7939 26.6833 14.6969C26.5894 14.5998 26.5437 14.4841 26.5461 14.3497C26.5485 14.2147 26.598 14.0996 26.6947 14.0042C26.7947 13.9055 26.912 13.8609 27.0466 13.8704C28.6418 13.896 30.0041 14.0957 31.1333 14.4693C32.4344 14.8999 33.0849 15.474 33.0849 16.1918C33.0849 16.941 32.399 17.5294 31.0272 17.957L31.0231 17.9583L31.019 17.9593C30.0773 18.1947 29.5707 18.3124 29.4991 18.3124C29.4857 18.3124 29.4729 18.3118 29.4608 18.3105ZM29.8634 17.9341C30.1045 17.877 30.4641 17.7888 30.942 17.6693C32.1706 17.2857 32.7849 16.7932 32.7849 16.1918C32.7849 15.6185 32.203 15.1393 31.039 14.7542C29.9378 14.3898 28.6039 14.1951 27.0373 14.1703L27.0325 14.1702L27.0276 14.1698C26.9822 14.1662 26.9415 14.1821 26.9054 14.2178C26.8668 14.2559 26.847 14.3016 26.846 14.355C26.8451 14.4065 26.8628 14.451 26.899 14.4884C26.9352 14.5259 26.9791 14.5451 27.0308 14.546C28.5309 14.5694 29.8161 14.7551 30.8864 15.1031C31.9005 15.4328 32.4076 15.7951 32.4076 16.1901C32.4076 16.6071 31.88 16.9803 30.8247 17.3095L30.8214 17.3106L30.818 17.3114C30.4183 17.4159 30.0761 17.4976 29.7913 17.5565C29.8301 17.6133 29.8554 17.6784 29.8673 17.7516C29.8776 17.8151 29.8763 17.876 29.8634 17.9341ZM27.8966 20.0722H27.9239L27.9283 20.0719C29.3152 19.9908 30.4782 19.7729 31.4174 19.4184C32.5302 18.9982 33.0866 18.4562 33.0866 17.7922C33.0866 17.657 33.0387 17.5418 32.9429 17.4463C32.8474 17.3511 32.7324 17.3035 32.5979 17.3035C32.4628 17.3035 32.3475 17.3514 32.252 17.4472C32.1569 17.5427 32.1093 17.6577 32.1093 17.7922C32.1093 18.0085 31.7687 18.2458 31.0875 18.5042C30.2481 18.8226 29.1757 19.0201 27.8701 19.0967C27.7348 19.1039 27.622 19.158 27.5319 19.2592C27.4418 19.3602 27.401 19.4777 27.4094 19.6118C27.4166 19.7412 27.4672 19.8503 27.5614 19.9391C27.6554 20.0278 27.7671 20.0722 27.8966 20.0722ZM27.9151 19.7722C29.2696 19.6926 30.4017 19.4811 31.3114 19.1377C32.2949 18.7664 32.7866 18.3179 32.7866 17.7922C32.7866 17.7401 32.7681 17.6956 32.7311 17.6588C32.6942 17.6219 32.6498 17.6035 32.5979 17.6035C32.4722 17.6035 32.4094 17.6664 32.4094 17.7922C32.4094 18.1465 32.0042 18.4774 31.1939 18.7847C30.3259 19.114 29.2233 19.3178 27.886 19.3963C27.8339 19.399 27.7905 19.4199 27.7558 19.4588C27.7213 19.4975 27.7057 19.543 27.7089 19.5951C27.7155 19.7132 27.778 19.7722 27.8966 19.7722H27.9151ZM26.6318 19.4059L26.6318 19.4047C26.6375 19.27 26.5946 19.1532 26.503 19.0542C26.4119 18.9557 26.299 18.9034 26.1642 18.8974C25.2042 18.8587 24.3427 18.7521 23.5799 18.5776C23.4486 18.5463 23.3255 18.5667 23.2106 18.6388C23.096 18.7107 23.0237 18.8125 22.9937 18.9443C22.9638 19.0759 22.9845 19.1987 23.0558 19.3126C23.1273 19.4269 23.229 19.4989 23.3607 19.5289C24.1878 19.7172 25.1088 19.8319 26.1239 19.8728L26.1269 19.873H26.1449C26.2757 19.873 26.3882 19.8277 26.4826 19.7372C26.577 19.6467 26.6267 19.5362 26.6318 19.4059ZM26.1521 19.1972C26.2776 19.2028 26.3376 19.2679 26.332 19.3926L26.332 19.3937C26.3276 19.5132 26.2652 19.5729 26.1449 19.5729H26.133C25.1375 19.5326 24.2356 19.4205 23.4273 19.2364C23.3667 19.2226 23.3247 19.1971 23.3011 19.1599C23.2772 19.1222 23.2722 19.0725 23.2863 19.0108C23.2978 18.96 23.3257 18.9207 23.3699 18.893C23.4138 18.8654 23.4606 18.8576 23.5103 18.8695C24.293 19.0485 25.1736 19.1577 26.1521 19.1972Z" fill="#00FF1A"/>
<path d="M20.178 21.5664C19.9506 21.5664 19.7447 21.5034 19.5737 21.3539C19.4326 21.2311 19.4177 21.0186 19.5388 20.8775C19.6617 20.7364 19.8742 20.7214 20.0153 20.8426C20.2012 21.0036 21.0048 20.8028 22.3761 19.5892C23.1762 18.8853 24.0163 17.9739 24.8065 16.9546C27.0909 14.0011 27.8994 11.5574 27.4528 11.1722C27.3117 11.051 27.2951 10.8369 27.4163 10.6958C27.5391 10.5546 27.7516 10.538 27.8928 10.6592C28.9304 11.5524 27.3947 14.71 25.3394 17.3679C24.5226 18.4221 23.6527 19.3651 22.821 20.0955C22.1403 20.7015 21.0164 21.5664 20.178 21.5664Z" fill="#00FF1A"/>
<path fill-rule="evenodd" clip-rule="evenodd" d="M22.9197 20.2081L22.9205 20.2074C23.7726 19.459 24.6184 18.543 25.4579 17.4595C26.5752 16.0145 27.394 14.6644 27.9143 13.409C28.5108 11.9697 28.5361 11.0151 27.9903 10.5453C27.8883 10.4577 27.7702 10.419 27.6359 10.4294C27.5023 10.4397 27.3911 10.4958 27.3023 10.5978C27.2147 10.6998 27.1761 10.8182 27.1864 10.9528C27.1968 11.0872 27.2528 11.1982 27.3546 11.2856C27.4267 11.3478 27.4419 11.5195 27.4004 11.8007C27.3511 12.1344 27.2227 12.5481 27.0153 13.042C26.5182 14.2254 25.7424 15.4989 24.6878 16.8624C23.8865 17.896 23.0827 18.7674 22.2764 19.4767C21.6678 20.0153 21.1385 20.388 20.6883 20.5949C20.3704 20.741 20.1786 20.7856 20.1128 20.7286C20.0109 20.6412 19.8931 20.6023 19.7592 20.6119C19.6252 20.6216 19.5137 20.6775 19.4248 20.7795C19.3373 20.8815 19.2984 20.9994 19.3081 21.1332C19.3178 21.2672 19.3733 21.3784 19.4748 21.4667C19.6652 21.6331 19.8995 21.7162 20.1778 21.7162C20.8762 21.7162 21.7902 21.2135 22.9197 20.2081ZM25.2206 17.276C24.3926 18.3445 23.5597 19.2468 22.7218 19.9827L22.721 19.9833C21.648 20.9386 20.8002 21.4162 20.1778 21.4162C19.9746 21.4162 19.8061 21.3578 19.6722 21.2408C19.5776 21.1584 19.571 21.0698 19.6524 20.975C19.7342 20.8811 19.8225 20.8748 19.9174 20.9562C20.0799 21.097 20.3786 21.0674 20.8136 20.8675C21.2906 20.6483 21.8445 20.2595 22.4753 19.7013C23.2954 18.9799 24.1119 18.0949 24.9249 17.0463C25.9957 15.6618 26.7847 14.3658 27.2919 13.1582C27.7693 12.0214 27.8555 11.3215 27.5506 11.0584C27.5027 11.0173 27.4771 10.9746 27.4739 10.9302C27.4706 10.8862 27.4893 10.8406 27.5299 10.7933C27.6122 10.6987 27.7005 10.6919 27.7948 10.7729C28.2308 11.1481 28.1782 11.9886 27.6371 13.2942C27.1271 14.5249 26.3216 15.8521 25.2206 17.276Z" fill="#00FF1A"/>
<path d="M19.0138 20.5505C18.71 20.5505 18.5124 20.4393 18.3962 20.338C17.357 19.4432 18.8943 16.2872 20.9495 13.6326C22.8023 11.242 24.8194 9.55692 25.9682 9.44237C26.345 9.40418 26.5824 9.53369 26.7169 9.64824C27.21 10.0716 27.1701 10.9847 26.5924 12.3626C26.521 12.5353 26.3235 12.6166 26.1508 12.5436C25.9798 12.4722 25.8968 12.2729 25.9699 12.1019C26.5077 10.8186 26.4065 10.2725 26.277 10.1612C26.2288 10.1181 26.1475 10.1048 26.0363 10.1147C25.2245 10.1961 23.4016 11.5724 21.4841 14.0477C19.1981 16.9978 18.3896 19.4415 18.8362 19.8267C18.8843 19.8682 18.9657 19.8831 19.0769 19.8715C19.8887 19.7902 21.7132 18.4122 23.6257 15.9386C24.1337 15.2845 24.5936 14.6187 24.9953 13.9613C25.0933 13.8003 25.3008 13.7522 25.4602 13.8484C25.6196 13.9464 25.671 14.1539 25.5731 14.3133C25.158 14.9923 24.6832 15.6796 24.1603 16.3536C22.3125 18.7426 20.2971 20.4277 19.1466 20.5439C19.1001 20.5489 19.057 20.5505 19.0138 20.5505Z" fill="#00FF1A"/>
<path fill-rule="evenodd" clip-rule="evenodd" d="M19.1559 20.6441C19.7513 20.5837 20.5182 20.1618 21.4554 19.3784C22.3824 18.6036 23.3102 17.6159 24.2386 16.4156C24.7613 15.7418 25.2343 15.0588 25.6576 14.3663C25.721 14.2631 25.7383 14.1526 25.7095 14.0348C25.6809 13.9176 25.6148 13.8272 25.5112 13.7635C25.4078 13.7011 25.2976 13.6838 25.1807 13.7118C25.0629 13.7401 24.9724 13.8061 24.9093 13.9099C24.5027 14.5752 24.0482 15.2313 23.5459 15.8781C22.6457 17.0424 21.755 17.9917 20.8738 18.726C20.0867 19.3819 19.484 19.7308 19.0658 19.7728C18.9822 19.7815 18.9272 19.7745 18.9007 19.7517C18.8148 19.6775 18.794 19.4908 18.8382 19.1914C18.8882 18.8536 19.0177 18.436 19.2269 17.9385C19.7259 16.7512 20.5045 15.4749 21.5624 14.1096C22.4651 12.9443 23.357 11.9948 24.2381 11.261C25.0252 10.6055 25.6273 10.2568 26.0445 10.215C26.1301 10.2074 26.1856 10.215 26.2111 10.2378C26.2728 10.2908 26.2936 10.4397 26.2733 10.6845C26.2435 11.0449 26.1114 11.5045 25.8772 12.0634C25.8297 12.1744 25.8292 12.2862 25.8756 12.3989C25.9218 12.5109 26.0003 12.5901 26.1111 12.6364C26.223 12.6837 26.3349 12.6844 26.4468 12.6384C26.5587 12.5925 26.6377 12.5137 26.6839 12.402C27.2825 10.9742 27.3149 10.0312 26.781 9.57283C26.5623 9.38654 26.2878 9.31012 25.9575 9.34358C25.3629 9.40288 24.5964 9.82433 23.658 10.6079C22.7302 11.3827 21.8008 12.3707 20.8697 13.5721C19.7547 15.0122 18.9379 16.3574 18.4193 17.6076C17.8318 19.024 17.8019 19.9595 18.3298 20.4141C18.5112 20.5721 18.739 20.6512 19.0131 20.6512C19.0636 20.6512 19.1113 20.6488 19.1559 20.6441ZM21.3271 19.225C20.4211 19.9823 19.6906 20.389 19.1358 20.4451C19.0981 20.4491 19.0567 20.4512 19.0131 20.4512C18.7889 20.4512 18.6049 20.3885 18.4612 20.2633C18.0059 19.8712 18.0535 19.0115 18.6041 17.6842C19.1159 16.4505 19.9238 15.1206 21.0279 13.6945C21.9501 12.5046 22.8695 11.5269 23.7862 10.7614C24.6931 10.0041 25.4235 9.59782 25.9774 9.54259C26.2513 9.51483 26.476 9.57568 26.6514 9.72508C27.1112 10.1199 27.0606 10.9864 26.4995 12.3246C26.4742 12.3857 26.4314 12.4286 26.3709 12.4534C26.3104 12.4783 26.2497 12.4778 26.1891 12.4522C26.1285 12.4269 26.0857 12.3838 26.0606 12.3227C26.0355 12.2618 26.0356 12.2015 26.0611 12.1419C26.3039 11.5627 26.4411 11.0824 26.4726 10.701C26.4985 10.3884 26.4548 10.1834 26.3414 10.0861C26.2749 10.0264 26.17 10.003 26.0266 10.0159C25.5674 10.0619 24.9286 10.4257 24.1101 11.1073C23.2179 11.8504 22.3159 12.8103 21.4043 13.9871C20.3356 15.3662 19.5484 16.6576 19.0425 17.861C18.5742 18.9751 18.4834 19.6558 18.7701 19.9031C18.8402 19.9635 18.9457 19.9864 19.0866 19.9717C19.5449 19.9257 20.1833 19.5617 21.0018 18.8797C21.8942 18.136 22.795 17.1763 23.7041 16.0004C24.2108 15.348 24.6695 14.6859 25.0799 14.0142C25.1622 13.8789 25.2715 13.8524 25.4078 13.9347C25.5434 14.0181 25.5699 14.127 25.4872 14.2616C25.0676 14.948 24.5988 15.6251 24.0806 16.293C23.1609 17.4821 22.2431 18.4594 21.3271 19.225Z" fill="#00FF1A"/>
<path d="M19.8669 21.4855C19.7889 21.4855 19.7108 21.4589 19.6478 21.4041L18.4375 20.3699C18.2947 20.2487 18.2781 20.0362 18.3993 19.8934C18.5222 19.7506 18.7347 19.734 18.8758 19.8552L20.086 20.8895C20.2288 21.0107 20.2454 21.2232 20.1242 21.3659C20.0562 21.444 19.9615 21.4855 19.8669 21.4855ZM27.7659 11.3021C27.6879 11.3021 27.6099 11.2755 27.5468 11.2207L26.3399 10.1865C26.1971 10.0653 26.1821 9.8511 26.3033 9.70999C26.4262 9.56722 26.6387 9.55227 26.7798 9.67346L27.9867 10.7077C28.1295 10.8289 28.1444 11.0431 28.0232 11.1842C27.9552 11.2622 27.8606 11.3021 27.7659 11.3021ZM32.592 20.0162C32.4061 20.0162 32.2534 19.8652 32.2534 19.6776L32.25 16.2925C32.25 16.1066 32.4011 15.9538 32.5887 15.9538C32.7747 15.9538 32.9274 16.1049 32.9274 16.2925L32.9307 19.6776C32.9307 19.8635 32.7796 20.0162 32.592 20.0162Z" fill="#00FF1A"/>
<path d="M26.8406 22.5666C24.9198 22.5666 22.1051 22.2661 20.9845 21.7631C20.8135 21.6867 20.7387 21.4858 20.815 21.3165C20.8914 21.1455 21.0908 21.0675 21.2618 21.1472C22.2978 21.612 25.0094 21.8909 26.8406 21.8909C30.1509 21.8909 32.2627 21.011 32.2627 20.4051C32.2627 20.2192 32.4137 20.0664 32.6013 20.0664C32.7873 20.0664 32.94 20.2175 32.94 20.4051C32.9384 21.8245 29.8703 22.5666 26.8406 22.5666Z" fill="#00FF1A"/>
<path fill-rule="evenodd" clip-rule="evenodd" d="M31.0702 22.1607C32.4152 21.7347 33.0882 21.1494 33.0891 20.4048C33.0891 20.2697 33.0412 20.1542 32.9454 20.0587C32.8499 19.9636 32.7349 19.916 32.6004 19.916C32.4652 19.916 32.3499 19.9639 32.2545 20.0597C32.1593 20.1552 32.1118 20.2702 32.1118 20.4047C32.1118 20.5057 32.0067 20.6268 31.7965 20.7679C31.5461 20.9361 31.1964 21.0907 30.7471 21.2317C29.6669 21.5709 28.3644 21.7405 26.8397 21.7405C25.8551 21.7405 24.8321 21.6751 23.7704 21.5441C22.6141 21.4015 21.7987 21.2237 21.3243 21.0108C21.2007 20.9532 21.0754 20.9487 20.9484 20.9973C20.8228 21.0454 20.7325 21.1311 20.6774 21.2544C20.6221 21.377 20.6182 21.5013 20.6658 21.6272C20.7135 21.7537 20.799 21.8445 20.9222 21.8995C21.466 22.1437 22.3562 22.3445 23.5926 22.5019C24.7148 22.6448 25.7971 22.7162 26.8397 22.7162C28.4908 22.7162 29.901 22.5311 31.0702 22.1607ZM32.7891 20.4045C32.7883 21.0027 32.1851 21.4929 30.9797 21.8747C29.8399 22.2357 28.4599 22.4162 26.8397 22.4162C25.8098 22.4162 24.7401 22.3456 23.6305 22.2043C22.4236 22.0506 21.5617 21.8578 21.045 21.6259C20.9976 21.6047 20.9647 21.5698 20.9464 21.5213C20.9281 21.4728 20.9296 21.4249 20.9509 21.3778C20.9725 21.3294 21.0074 21.296 21.0557 21.2775C21.1035 21.2592 21.1508 21.2609 21.1976 21.2827C21.7021 21.5091 22.5475 21.6955 23.7337 21.8418C24.8075 21.9743 25.8428 22.0405 26.8397 22.0405C28.3951 22.0405 29.7276 21.8663 30.8371 21.5179C31.3138 21.3682 31.6893 21.2012 31.9637 21.017C32.2624 20.8164 32.4118 20.6123 32.4118 20.4047C32.4118 20.3529 32.4302 20.3085 32.467 20.2715C32.5038 20.2345 32.5483 20.216 32.6004 20.216C32.6522 20.216 32.6966 20.2344 32.7336 20.2712C32.7706 20.3081 32.7891 20.3525 32.7891 20.4045Z" fill="#00FF1A"/>
</g>
<mask id="mask1_14339_5226" style="mask-type:luminance" maskUnits="userSpaceOnUse" x="219" y="6" width="18" height="18">
<path d="M237 6H219V24H237V6Z" fill="white"/>
</mask>
<g mask="url(#mask1_14339_5226)">
<path d="M228.644 19.2231H228.629C227.642 19.1833 226.695 19.0654 225.893 18.8828C225.711 18.8413 225.598 18.6603 225.639 18.4777C225.681 18.2951 225.864 18.1805 226.045 18.2237C226.807 18.398 227.71 18.5093 228.658 18.5474C228.844 18.5557 228.99 18.7118 228.981 18.8994C228.975 19.0804 228.825 19.2231 228.644 19.2231ZM230.396 19.4223C230.217 19.4223 230.069 19.2829 230.059 19.1036C230.047 18.9177 230.19 18.7566 230.377 18.7467C233.236 18.579 234.759 17.7937 234.759 17.2923C234.759 17.1064 234.91 16.9537 235.097 16.9537C235.283 16.9537 235.436 17.1047 235.436 17.2923C235.436 18.5607 232.916 19.2763 230.419 19.4223H230.396ZM229.335 17.8518C228.596 17.8518 227.871 17.8087 227.178 17.7223C226.992 17.6991 226.861 17.5298 226.885 17.3455C226.908 17.1595 227.075 17.0267 227.261 17.0517C228.746 17.2359 230.422 17.2143 231.832 16.9935C232.014 16.9686 232.189 17.0915 232.219 17.2757C232.249 17.46 232.121 17.6327 231.936 17.6626C231.125 17.7871 230.25 17.8518 229.335 17.8518ZM231.999 17.6626C231.854 17.6626 232.045 17.4584 231.999 17.314C231.971 17.2243 231.894 17.0999 231.999 17.0013C232.103 16.9027 231.999 17.0013 233.279 16.6665C234.37 16.3262 234.757 15.9277 234.757 15.6903C234.757 15.1142 232.72 14.246 229.528 14.1962C229.342 14.1928 229.192 14.0385 229.195 13.8525C229.199 13.6666 229.355 13.5056 229.539 13.5205C232.469 13.567 235.434 14.3273 235.434 15.692C235.434 16.1535 235.096 16.8109 233.482 17.314C233.449 17.3223 232.032 17.6626 231.999 17.6626Z" fill="white" fill-opacity="0.4"/>
<path fill-rule="evenodd" clip-rule="evenodd" d="M231.801 17.15C230.319 17.3768 228.8 17.3935 227.242 17.2001C227.191 17.1933 227.145 17.2057 227.105 17.2374C227.064 17.2694 227.04 17.3116 227.034 17.3641C227.027 17.4152 227.04 17.4611 227.072 17.502C227.104 17.5431 227.146 17.5668 227.198 17.5733C227.884 17.6589 228.596 17.7017 229.336 17.7017C230.201 17.7017 231.026 17.6444 231.81 17.5298C231.815 17.5119 231.821 17.4925 231.828 17.4715C231.851 17.4083 231.86 17.3703 231.856 17.3576C231.853 17.3502 231.848 17.3365 231.841 17.3166C231.818 17.2566 231.805 17.2011 231.801 17.15ZM231.961 17.8105L231.96 17.8107C231.13 17.938 230.255 18.0017 229.336 18.0017C228.584 18.0017 227.859 17.9581 227.16 17.871C227.026 17.8543 226.918 17.7927 226.835 17.6863C226.752 17.5799 226.719 17.46 226.736 17.3265C226.753 17.1925 226.814 17.0841 226.92 17.0013C227.027 16.9176 227.147 16.8848 227.282 16.9028C228.829 17.0949 230.338 17.0756 231.809 16.8452C231.862 16.838 231.912 16.8382 231.96 16.8459C232.014 16.816 232.083 16.7925 232.169 16.7753C232.459 16.7169 232.816 16.6325 233.239 16.5221C233.722 16.371 234.089 16.2033 234.339 16.0189C234.518 15.8868 234.608 15.7772 234.608 15.6901C234.608 15.5965 234.507 15.4814 234.305 15.3448C234.064 15.1813 233.727 15.0292 233.294 14.8884C232.252 14.5497 230.996 14.3689 229.525 14.346C229.391 14.3436 229.277 14.2939 229.183 14.1969C229.089 14.0998 229.044 13.9841 229.046 13.8497C229.048 13.7147 229.098 13.5996 229.195 13.5042C229.295 13.4055 229.412 13.3609 229.547 13.3704C231.142 13.396 232.504 13.5957 233.633 13.9693C234.934 14.3999 235.585 14.974 235.585 15.6918C235.585 16.441 234.899 17.0294 233.527 17.457L233.523 17.4583L233.519 17.4593C232.577 17.6947 232.071 17.8124 231.999 17.8124C231.986 17.8124 231.973 17.8118 231.961 17.8105ZM232.363 17.4341C232.605 17.377 232.964 17.2888 233.442 17.1693C234.671 16.7857 235.285 16.2932 235.285 15.6918C235.285 15.1185 234.703 14.6393 233.539 14.2542C232.438 13.8898 231.104 13.6951 229.537 13.6703L229.532 13.6702L229.528 13.6698C229.482 13.6662 229.442 13.6821 229.405 13.7178C229.367 13.7559 229.347 13.8016 229.346 13.855C229.345 13.9065 229.363 13.951 229.399 13.9884C229.435 14.0259 229.479 14.0451 229.531 14.046C231.031 14.0694 232.316 14.2551 233.386 14.6031C234.401 14.9328 234.908 15.2951 234.908 15.6901C234.908 16.1071 234.38 16.4803 233.325 16.8095L233.321 16.8106L233.318 16.8114C232.918 16.9159 232.576 16.9976 232.291 17.0565C232.33 17.1133 232.355 17.1784 232.367 17.2516C232.378 17.3151 232.376 17.376 232.363 17.4341ZM230.397 19.5722H230.424L230.428 19.5719C231.815 19.4908 232.978 19.2729 233.917 18.9184C235.03 18.4982 235.587 17.9562 235.587 17.2922C235.587 17.157 235.539 17.0418 235.443 16.9463C235.347 16.8511 235.232 16.8035 235.098 16.8035C234.963 16.8035 234.847 16.8514 234.752 16.9472C234.657 17.0427 234.609 17.1577 234.609 17.2922C234.609 17.5085 234.269 17.7458 233.588 18.0042C232.748 18.3226 231.676 18.5201 230.37 18.5967C230.235 18.6039 230.122 18.658 230.032 18.7592C229.942 18.8602 229.901 18.9777 229.909 19.1118C229.917 19.2412 229.967 19.3503 230.061 19.4391C230.155 19.5278 230.267 19.5722 230.397 19.5722ZM230.415 19.2722C231.77 19.1926 232.902 18.9811 233.811 18.6377C234.795 18.2664 235.287 17.8179 235.287 17.2922C235.287 17.2401 235.268 17.1956 235.231 17.1588C235.194 17.1219 235.15 17.1035 235.098 17.1035C234.972 17.1035 234.909 17.1664 234.909 17.2922C234.909 17.6465 234.504 17.9774 233.694 18.2847C232.826 18.614 231.723 18.8178 230.386 18.8963C230.334 18.899 230.291 18.9199 230.256 18.9588C230.221 18.9975 230.206 19.043 230.209 19.0951C230.215 19.2132 230.278 19.2722 230.397 19.2722H230.415ZM229.132 18.9059L229.132 18.9047C229.137 18.77 229.095 18.6532 229.003 18.5542C228.912 18.4557 228.799 18.4034 228.664 18.3974C227.704 18.3587 226.843 18.2521 226.08 18.0776C225.949 18.0463 225.826 18.0667 225.711 18.1388C225.596 18.2107 225.524 18.3125 225.494 18.4443C225.464 18.5759 225.485 18.6987 225.556 18.8126C225.627 18.9269 225.729 18.9989 225.861 19.0289C226.688 19.2172 227.609 19.3319 228.624 19.3728L228.627 19.373H228.645C228.776 19.373 228.888 19.3277 228.983 19.2372C229.077 19.1467 229.127 19.0362 229.132 18.9059ZM228.652 18.6972C228.778 18.7028 228.838 18.7679 228.832 18.8926L228.832 18.8937C228.828 19.0132 228.765 19.0729 228.645 19.0729H228.633C227.638 19.0326 226.736 18.9205 225.927 18.7364C225.867 18.7226 225.825 18.6971 225.801 18.6599C225.777 18.6222 225.772 18.5725 225.786 18.5108C225.798 18.46 225.826 18.4207 225.87 18.393C225.914 18.3654 225.961 18.3576 226.01 18.3695C226.793 18.5485 227.674 18.6577 228.652 18.6972Z" fill="white" fill-opacity="0.4"/>
<path d="M222.678 21.0664C222.451 21.0664 222.245 21.0034 222.074 20.8539C221.933 20.7311 221.918 20.5186 222.039 20.3775C222.162 20.2364 222.374 20.2214 222.515 20.3426C222.701 20.5036 223.505 20.3028 224.876 19.0892C225.676 18.3853 226.516 17.4739 227.307 16.4546C229.591 13.5011 230.399 11.0574 229.953 10.6722C229.812 10.551 229.795 10.3369 229.916 10.1958C230.039 10.0546 230.252 10.038 230.393 10.1592C231.43 11.0524 229.895 14.21 227.839 16.8679C227.023 17.9221 226.153 18.8651 225.321 19.5955C224.64 20.2015 223.516 21.0664 222.678 21.0664Z" fill="white" fill-opacity="0.4"/>
<path fill-rule="evenodd" clip-rule="evenodd" d="M225.42 19.7081L225.421 19.7074C226.273 18.959 227.118 18.043 227.958 16.9595C229.075 15.5145 229.894 14.1644 230.414 12.909C231.011 11.4697 231.036 10.5151 230.49 10.0453C230.388 9.95766 230.27 9.91902 230.136 9.92937C230.002 9.93968 229.891 9.99583 229.802 10.0978C229.715 10.1998 229.676 10.3182 229.686 10.4528C229.697 10.5872 229.753 10.6982 229.855 10.7856C229.927 10.8478 229.942 11.0195 229.9 11.3007C229.851 11.6344 229.723 12.0481 229.515 12.542C229.018 13.7254 228.242 14.9989 227.188 16.3624C226.387 17.396 225.583 18.2674 224.776 18.9767C224.168 19.5153 223.638 19.888 223.188 20.0949C222.87 20.241 222.679 20.2856 222.613 20.2286C222.511 20.1412 222.393 20.1023 222.259 20.1119C222.125 20.1216 222.014 20.1775 221.925 20.2795C221.837 20.3815 221.798 20.4994 221.808 20.6332C221.818 20.7672 221.873 20.8784 221.975 20.9667C222.165 21.1331 222.4 21.2162 222.678 21.2162C223.376 21.2162 224.29 20.7135 225.42 19.7081ZM227.721 16.776C226.893 17.8445 226.06 18.7468 225.222 19.4827L225.221 19.4833C224.148 20.4386 223.3 20.9162 222.678 20.9162C222.475 20.9162 222.306 20.8578 222.172 20.7408C222.078 20.6584 222.071 20.5698 222.152 20.475C222.234 20.3811 222.323 20.3748 222.417 20.4562C222.58 20.597 222.879 20.5674 223.314 20.3675C223.791 20.1483 224.345 19.7595 224.975 19.2013C225.795 18.4799 226.612 17.5949 227.425 16.5463C228.496 15.1618 229.285 13.8658 229.792 12.6582C230.269 11.5214 230.356 10.8215 230.051 10.5584C230.003 10.5173 229.977 10.4746 229.974 10.4302C229.971 10.3862 229.989 10.3406 230.03 10.2933C230.112 10.1987 230.201 10.1919 230.295 10.2729C230.731 10.6481 230.678 11.4886 230.137 12.7942C229.627 14.0249 228.822 15.3521 227.721 16.776Z" fill="white" fill-opacity="0.4"/>
<path d="M221.514 20.0505C221.21 20.0505 221.012 19.9393 220.896 19.838C219.857 18.9432 221.394 15.7872 223.45 13.1326C225.302 10.742 227.319 9.05692 228.468 8.94237C228.845 8.90418 229.082 9.03369 229.217 9.14824C229.71 9.57158 229.67 10.4847 229.092 11.8626C229.021 12.0353 228.823 12.1166 228.651 12.0436C228.48 11.9722 228.397 11.7729 228.47 11.6019C229.008 10.3186 228.906 9.77247 228.777 9.66124C228.729 9.61807 228.647 9.60477 228.536 9.61473C227.724 9.69608 225.902 11.0724 223.984 13.5477C221.698 16.4978 220.89 18.9415 221.336 19.3267C221.384 19.3682 221.466 19.3831 221.577 19.3715C222.389 19.2902 224.213 17.9122 226.126 15.4386C226.634 14.7845 227.094 14.1187 227.495 13.4613C227.593 13.3003 227.801 13.2522 227.96 13.3484C228.12 13.4464 228.171 13.6539 228.073 13.8133C227.658 14.4923 227.183 15.1796 226.66 15.8536C224.813 18.2426 222.797 19.9277 221.647 20.0439C221.6 20.0489 221.557 20.0505 221.514 20.0505Z" fill="white" fill-opacity="0.4"/>
<path fill-rule="evenodd" clip-rule="evenodd" d="M221.656 20.1441C222.251 20.0837 223.018 19.6618 223.955 18.8784C224.882 18.1036 225.81 17.1159 226.739 15.9156C227.261 15.2418 227.734 14.5588 228.158 13.8663C228.221 13.7631 228.238 13.6526 228.21 13.5348C228.181 13.4176 228.115 13.3272 228.011 13.2635C227.908 13.2011 227.798 13.1838 227.681 13.2118C227.563 13.2401 227.472 13.3061 227.409 13.4099C227.003 14.0752 226.548 14.7313 226.046 15.3781C225.146 16.5424 224.255 17.4917 223.374 18.226C222.587 18.8819 221.984 19.2308 221.566 19.2728C221.482 19.2815 221.427 19.2745 221.401 19.2517C221.315 19.1775 221.294 18.9908 221.338 18.6914C221.388 18.3536 221.518 17.936 221.727 17.4385C222.226 16.2512 223.004 14.9749 224.062 13.6096C224.965 12.4443 225.857 11.4948 226.738 10.761C227.525 10.1055 228.127 9.75685 228.544 9.71504C228.63 9.70737 228.686 9.71495 228.711 9.73778C228.773 9.7908 228.794 9.93973 228.773 10.1845C228.743 10.5449 228.611 11.0045 228.377 11.5634C228.33 11.6744 228.329 11.7862 228.376 11.8989C228.422 12.0109 228.5 12.0901 228.611 12.1364C228.723 12.1837 228.835 12.1844 228.947 12.1384C229.059 12.0925 229.138 12.0137 229.184 11.902C229.783 10.4742 229.815 9.53119 229.281 9.07283C229.062 8.88654 228.788 8.81012 228.458 8.84358C227.863 8.90288 227.096 9.32433 226.158 10.1079C225.23 10.8827 224.301 11.8707 223.37 13.0721C222.255 14.5122 221.438 15.8574 220.919 17.1076C220.332 18.524 220.302 19.4595 220.83 19.9141C221.011 20.0721 221.239 20.1512 221.513 20.1512C221.564 20.1512 221.611 20.1488 221.656 20.1441ZM223.827 18.725C222.921 19.4823 222.191 19.889 221.636 19.9451C221.598 19.9491 221.557 19.9512 221.513 19.9512C221.289 19.9512 221.105 19.8885 220.961 19.7633C220.506 19.3712 220.553 18.5115 221.104 17.1842C221.616 15.9505 222.424 14.6206 223.528 13.1945C224.45 12.0046 225.369 11.0269 226.286 10.2614C227.193 9.50409 227.924 9.09782 228.477 9.04259C228.751 9.01483 228.976 9.07568 229.151 9.22508C229.611 9.61989 229.561 10.4864 228.999 11.8246C228.974 11.8857 228.931 11.9286 228.871 11.9534C228.81 11.9783 228.75 11.9778 228.689 11.9522C228.629 11.9269 228.586 11.8838 228.561 11.8227C228.535 11.7618 228.536 11.7015 228.561 11.6419C228.804 11.0627 228.941 10.5824 228.973 10.201C228.998 9.8884 228.955 9.68344 228.841 9.58607C228.775 9.52642 228.67 9.50302 228.527 9.51585C228.067 9.56186 227.429 9.9257 226.61 10.6073C225.718 11.3504 224.816 12.3103 223.904 13.4871C222.836 14.8662 222.048 16.1576 221.542 17.361C221.074 18.4751 220.983 19.1558 221.27 19.4031C221.34 19.4635 221.446 19.4864 221.587 19.4717C222.045 19.4257 222.683 19.0617 223.502 18.3797C224.394 17.636 225.295 16.6763 226.204 15.5004C226.711 14.848 227.169 14.1859 227.58 13.5142C227.662 13.3789 227.771 13.3524 227.908 13.4347C228.043 13.5181 228.07 13.627 227.987 13.7616C227.568 14.448 227.099 15.1251 226.581 15.793C225.661 16.9821 224.743 17.9594 223.827 18.725Z" fill="white" fill-opacity="0.4"/>
<path d="M222.367 20.9855C222.289 20.9855 222.211 20.9589 222.148 20.9041L220.937 19.8699C220.795 19.7487 220.778 19.5362 220.899 19.3934C221.022 19.2506 221.235 19.234 221.376 19.3552L222.586 20.3895C222.729 20.5107 222.745 20.7232 222.624 20.8659C222.556 20.944 222.462 20.9855 222.367 20.9855ZM230.266 10.8021C230.188 10.8021 230.11 10.7755 230.047 10.7207L228.84 9.68646C228.697 9.56527 228.682 9.3511 228.803 9.20999C228.926 9.06722 229.139 9.05227 229.28 9.17346L230.487 10.2077C230.629 10.3289 230.644 10.5431 230.523 10.6842C230.455 10.7622 230.361 10.8021 230.266 10.8021ZM235.092 19.5162C234.906 19.5162 234.753 19.3652 234.753 19.1776L234.75 15.7925C234.75 15.6066 234.901 15.4538 235.089 15.4538C235.275 15.4538 235.427 15.6049 235.427 15.7925L235.431 19.1776C235.431 19.3635 235.28 19.5162 235.092 19.5162Z" fill="white" fill-opacity="0.4"/>
<path d="M229.341 22.0666C227.42 22.0666 224.605 21.7661 223.484 21.2631C223.313 21.1867 223.239 20.9858 223.315 20.8165C223.391 20.6455 223.591 20.5675 223.762 20.6472C224.798 21.112 227.509 21.3909 229.341 21.3909C232.651 21.3909 234.763 20.511 234.763 19.9051C234.763 19.7192 234.914 19.5664 235.101 19.5664C235.287 19.5664 235.44 19.7175 235.44 19.9051C235.438 21.3245 232.37 22.0666 229.341 22.0666Z" fill="white" fill-opacity="0.4"/>
<path fill-rule="evenodd" clip-rule="evenodd" d="M233.57 21.6607C234.915 21.2347 235.588 20.6494 235.589 19.9048C235.589 19.7697 235.541 19.6542 235.445 19.5587C235.35 19.4636 235.235 19.416 235.1 19.416C234.965 19.416 234.85 19.4639 234.754 19.5597C234.659 19.6552 234.612 19.7702 234.612 19.9047C234.612 20.0057 234.507 20.1268 234.296 20.2679C234.046 20.4361 233.696 20.5907 233.247 20.7317C232.167 21.0709 230.864 21.2405 229.34 21.2405C228.355 21.2405 227.332 21.1751 226.27 21.0441C225.114 20.9015 224.299 20.7237 223.824 20.5108C223.701 20.4532 223.575 20.4487 223.448 20.4973C223.323 20.5454 223.232 20.6311 223.177 20.7544C223.122 20.877 223.118 21.0013 223.166 21.1272C223.213 21.2537 223.299 21.3445 223.422 21.3995C223.966 21.6437 224.856 21.8445 226.093 22.0019C227.215 22.1448 228.297 22.2162 229.34 22.2162C230.991 22.2162 232.401 22.0311 233.57 21.6607ZM235.289 19.9045C235.288 20.5027 234.685 20.9929 233.48 21.3747C232.34 21.7357 230.96 21.9162 229.34 21.9162C228.31 21.9162 227.24 21.8456 226.13 21.7043C224.924 21.5506 224.062 21.3578 223.545 21.1259C223.498 21.1047 223.465 21.0698 223.446 21.0213C223.428 20.9728 223.43 20.9249 223.451 20.8778C223.472 20.8294 223.507 20.796 223.556 20.7775C223.604 20.7592 223.651 20.7609 223.698 20.7827C224.202 21.0091 225.047 21.1955 226.234 21.3418C227.308 21.4743 228.343 21.5405 229.34 21.5405C230.895 21.5405 232.228 21.3663 233.337 21.0179C233.814 20.8682 234.189 20.7012 234.464 20.517C234.762 20.3164 234.912 20.1123 234.912 19.9047C234.912 19.8529 234.93 19.8085 234.967 19.7715C235.004 19.7345 235.048 19.716 235.1 19.716C235.152 19.716 235.197 19.7344 235.234 19.7712C235.271 19.8081 235.289 19.8525 235.289 19.9045Z" fill="white" fill-opacity="0.4"/>
</g>
<defs>
<linearGradient id="paint0_linear_14339_5226" x1="90.3184" y1="15.5" x2="406" y2="15.5" gradientUnits="userSpaceOnUse">
<stop stop-color="#7A7A7A"/>
<stop offset="1" stop-color="#009910"/>
</linearGradient>
<linearGradient id="paint1_linear_14339_5226" x1="2" y1="14.9821" x2="207" y2="14.9821" gradientUnits="userSpaceOnUse">
<stop stop-color="#D9D9D9" stop-opacity="0"/>
<stop offset="1" stop-color="#00FF1A" stop-opacity="0.6"/>
</linearGradient>
</defs>
</svg>
