<svg width="90" height="21" viewBox="0 0 90 21" fill="none" xmlns="http://www.w3.org/2000/svg">
<path d="M46.609 15.5713C45.7654 16.6089 44.597 17.1277 43.1039 17.1277C41.9313 17.1277 40.9444 16.8577 40.143 16.3178C39.3416 15.778 38.7426 15.0356 38.3462 14.0908C38.0425 13.3738 37.8906 12.5007 37.8906 11.4715V3.42383H40.0797V11.3576C40.0797 12.4458 40.3623 13.3189 40.9275 13.9769C41.5011 14.6349 42.2983 14.9639 43.319 14.9639C44.0614 14.9639 44.6814 14.7825 45.1791 14.4198C45.6768 14.0571 46.0522 13.572 46.3053 12.9646C46.4824 12.5091 46.571 11.9734 46.571 11.3576V3.42383H48.7727V16.824H46.7102L46.609 15.5713Z" fill="#FFF9DC"/>
<path d="M80.6567 5.00879C81.5002 3.9712 82.6686 3.4524 84.1617 3.4524C85.3343 3.4524 86.3213 3.72234 87.1227 4.26223C87.9241 4.80212 88.523 5.54446 88.9195 6.48926C89.2232 7.2063 89.375 8.0794 89.375 9.10856V17.1562H87.1859V9.22244C87.1859 8.13423 86.9033 7.26113 86.3381 6.60315C85.7645 5.94516 84.9673 5.61616 83.9466 5.61616C83.2043 5.61616 82.5842 5.79753 82.0865 6.16027C81.5888 6.52301 81.2134 7.00806 80.9604 7.61543C80.7832 8.07096 80.6946 8.60663 80.6946 9.22244V17.1562H78.4929V3.75608H80.5554L80.6567 5.00879Z" fill="#FFF9DC"/>
<path d="M62.7 3.38672V17.1485H60.3711V3.38672H62.7Z" fill="#FFF9DC"/>
<path d="M60.6121 2.17521C60.8574 2.41883 61.1611 2.54065 61.5232 2.54065C61.8737 2.54065 62.1715 2.41883 62.4168 2.17521C62.6621 1.93159 62.7848 1.62996 62.7848 1.27032C62.7848 0.910688 62.6621 0.609059 62.4168 0.365435C62.1715 0.121812 61.8737 0 61.5232 0C61.1611 0 60.8574 0.121812 60.6121 0.365435C60.3668 0.609059 60.2441 0.910688 60.2441 1.27032C60.2441 1.62996 60.3668 1.93159 60.6121 2.17521Z" fill="#FFF9DC"/>
<path d="M76.6727 3.38672V17.1485H74.3438V3.38672H76.6727Z" fill="#FFF9DC"/>
<path d="M74.5848 2.17521C74.8301 2.41883 75.1338 2.54065 75.4959 2.54065C75.8463 2.54065 76.1442 2.41883 76.3895 2.17521C76.6348 1.93159 76.7574 1.62996 76.7574 1.27032C76.7574 0.910688 76.6348 0.609059 76.3895 0.365435C76.1442 0.121812 75.8463 0 75.4959 0C75.1338 0 74.8301 0.121812 74.5848 0.365435C74.3394 0.609059 74.2168 0.910688 74.2168 1.27032C74.2168 1.62996 74.3394 1.93159 74.5848 2.17521Z" fill="#FFF9DC"/>
<path fill-rule="evenodd" clip-rule="evenodd" d="M28.146 9.10089V11.434L28.146 11.4383C28.8961 11.4383 29.6389 11.586 30.332 11.8731C31.025 12.1602 31.6547 12.5809 32.1851 13.1114C32.7156 13.6418 33.1363 14.2715 33.4234 14.9645C33.7105 15.6576 33.8582 16.4004 33.8582 17.1505H36.1914C36.1914 16.094 35.9833 15.0478 35.579 14.0717C35.1746 13.0956 34.582 12.2086 33.8349 11.4616C33.377 11.0036 32.8665 10.6037 32.3151 10.2696C32.8665 9.9355 33.377 9.53558 33.8349 9.07761C34.582 8.33053 35.1746 7.44361 35.579 6.4675C35.9833 5.49139 36.1914 4.44521 36.1914 3.38867H33.8582C33.8582 4.13881 33.7105 4.8816 33.4234 5.57464C33.1363 6.26768 32.7156 6.89739 32.1851 7.42782C31.6547 7.95825 31.025 8.37901 30.332 8.66607C29.6389 8.95314 28.8961 9.10089 28.146 9.10089ZM28.1453 17.1296L28.1453 3.41015L25.8164 3.41015V17.1296H28.1453Z" fill="#FFF9DC"/>
<path fill-rule="evenodd" clip-rule="evenodd" d="M55.4724 3.99914C56.4485 3.59482 57.4947 3.38672 58.5512 3.38672V5.71988C57.8011 5.71988 57.0583 5.86763 56.3653 6.15469C55.6722 6.44176 55.0425 6.86252 54.5121 7.39295C53.9817 7.92338 53.5609 8.55308 53.2738 9.24612C52.9868 9.93916 52.839 10.682 52.839 11.4321H52.8357L52.8357 17.1283L50.5068 17.1283L50.5068 11.4321H50.5059C50.5059 11.3914 50.5062 11.3508 50.5068 11.3102L50.5068 3.40881L52.8357 3.40881L52.8357 5.76987C52.8445 5.76094 52.8534 5.75204 52.8623 5.74315C53.6094 4.99607 54.4963 4.40345 55.4724 3.99914Z" fill="#FFF9DC"/>
<path fill-rule="evenodd" clip-rule="evenodd" d="M69.442 3.99914C70.4181 3.59482 71.4643 3.38672 72.5208 3.38672V5.71988C71.7707 5.71988 71.0279 5.86763 70.3348 6.15469C69.6418 6.44176 69.0121 6.86252 68.4816 7.39295C67.9512 7.92338 67.5305 8.55309 67.2434 9.24612C66.9563 9.93916 66.8086 10.682 66.8086 11.4321H66.8035L66.8035 17.1283H64.4746V3.40881L66.8035 3.40881L66.8035 5.77162C66.8129 5.76211 66.8224 5.75262 66.8319 5.74315C67.5789 4.99607 68.4659 4.40345 69.442 3.99914Z" fill="#FFF9DC"/>
<mask id="mask0_14446_2687" style="mask-type:alpha" maskUnits="userSpaceOnUse" x="0" y="0" width="20" height="21">
<rect y="0.453125" width="19.6282" height="19.6282" fill="white"/>
</mask>
<g mask="url(#mask0_14446_2687)">
<mask id="mask1_14446_2687" style="mask-type:alpha" maskUnits="userSpaceOnUse" x="3" y="-3" width="22" height="27">
<path d="M10.3874 22.8076H24.3815V-1.51562H10.3874L8.99401 4.57275L5.78323 7.81382L3.99609 10.54L7.84297 14.5383L10.3874 22.8076Z" fill="#0DAB0C" stroke="black"/>
</mask>
<g mask="url(#mask1_14446_2687)">
<path fill-rule="evenodd" clip-rule="evenodd" d="M8.11088 8.56887C7.45764 9.2221 6.72944 9.79254 5.94293 10.2691C6.72944 10.7456 7.45764 11.316 8.11088 11.9693C9.17642 13.0348 10.0217 14.2998 10.5983 15.692C11.175 17.0842 11.4718 18.5763 11.4718 20.0833H19.6262L19.6262 0.45508L11.4718 0.455079C11.4718 1.96191 11.175 3.45399 10.5983 4.84613C10.0217 6.23833 9.17642 7.50332 8.11088 8.56887ZM8.14407 0.455079C8.14405 1.52491 7.93331 2.58426 7.52391 3.57266C7.11447 4.56113 6.51435 5.45927 5.75781 6.2158C5.00128 6.97234 4.10314 7.57246 3.11467 7.9819C2.12657 8.39118 1.06755 8.60191 -0.00195312 8.60206V0.455078L8.14407 0.455079ZM-0.00195312 11.9361V20.0833L8.14408 20.0833C8.14408 19.0133 7.93334 17.9539 7.52391 16.9655C7.11447 15.977 6.51435 15.0789 5.75782 14.3223C5.00128 13.5658 4.10314 12.9657 3.11467 12.5562C2.12657 12.1469 1.06755 11.9362 -0.00195312 11.9361Z" fill="#0DAB0C"/>
</g>
<mask id="mask2_14446_2687" style="mask-type:alpha" maskUnits="userSpaceOnUse" x="-5" y="-3" width="15" height="27">
<path d="M9.33203 -1.5478L-3.99574 -1.5478L-3.99574 22.7754L9.33203 22.7754L9.33203 17.0808L6.96938 13.2642L4.33412 10.2655L9.33203 4.87376L9.33203 -1.5478Z" fill="#D9D9D9" stroke="black"/>
</mask>
<g mask="url(#mask2_14446_2687)">
<path fill-rule="evenodd" clip-rule="evenodd" d="M0.00390625 20.052L19.6321 20.052L19.6321 0.42383L0.00390625 0.423828V20.052ZM8.11959 11.9379C7.46655 11.2848 6.7386 10.7145 5.95236 10.2381C6.7386 9.76168 7.46655 9.19139 8.11959 8.53835C9.18513 7.4728 10.0304 6.20782 10.607 4.81561C11.1837 3.42341 11.4805 1.93125 11.4805 0.424346L8.15279 0.424347C8.15279 1.49425 7.94205 2.55368 7.53262 3.54215C7.12318 4.53061 6.52306 5.42875 5.76652 6.18529C5.00999 6.94183 4.11185 7.54194 3.12338 7.95138C2.13492 8.36082 1.07549 8.57155 0.00558236 8.57155L0.0055825 11.8993L0.0055825 11.9047C1.07549 11.9047 2.13492 12.1154 3.12338 12.5248C4.11185 12.9343 5.00999 13.5344 5.76653 14.2909C6.52306 15.0475 7.12318 15.9456 7.53262 16.9341C7.94205 17.9225 8.15279 18.982 8.15279 20.0519H11.4805C11.4805 18.545 11.1837 17.0528 10.607 15.6606C10.0304 14.2684 9.18513 13.0034 8.11959 11.9379Z" fill="#FE7506"/>
</g>
</g>
</svg>
