<svg width="1324" height="374" viewBox="0 0 1324 374" fill="none" xmlns="http://www.w3.org/2000/svg">
<path d="M1323.99 81.902V292H1281.85V81.902H1323.99Z" fill="#79E039"/>
<path d="M1251.97 81.902V115.915H1164.38V169.794H1231.5V203.205H1164.38V292H1122.24V81.902H1251.97Z" fill="#79E039"/>
<path d="M1004.18 115.915V168.59H1074.92V202.001H1004.18V257.686H1083.95V292H962.04V81.601H1083.95V115.915H1004.18Z" fill="#79E039"/>
<path d="M920.396 292H878.256L782.839 147.821V292H740.699V81.601H782.839L878.256 226.081V81.601H920.396V292Z" fill="#79E039"/>
<path d="M601.891 294.107C582.225 294.107 564.165 289.492 547.711 280.261C531.256 271.03 518.213 258.288 508.581 242.034C498.949 225.579 494.133 207.018 494.133 186.349C494.133 165.881 498.949 147.52 508.581 131.266C518.213 114.811 531.256 101.969 547.711 92.738C564.165 83.5073 582.225 78.892 601.891 78.892C621.757 78.892 639.817 83.5073 656.071 92.738C672.525 101.969 685.468 114.811 694.9 131.266C704.532 147.52 709.348 165.881 709.348 186.349C709.348 207.018 704.532 225.579 694.9 242.034C685.468 258.288 672.525 271.03 656.071 280.261C639.616 289.492 621.556 294.107 601.891 294.107ZM601.891 256.482C614.533 256.482 625.67 253.673 635.302 248.054C644.934 242.235 652.459 234.007 657.877 223.372C663.295 212.737 666.004 200.396 666.004 186.349C666.004 172.302 663.295 160.062 657.877 149.627C652.459 138.992 644.934 130.865 635.302 125.246C625.67 119.627 614.533 116.818 601.891 116.818C589.249 116.818 578.011 119.627 568.179 125.246C558.547 130.865 551.022 138.992 545.604 149.627C540.186 160.062 537.477 172.302 537.477 186.349C537.477 200.396 540.186 212.737 545.604 223.372C551.022 234.007 558.547 242.235 568.179 248.054C578.011 253.673 589.249 256.482 601.891 256.482Z" fill="#79E039"/>
<path d="M393.486 294.107C378.838 294.107 365.594 291.599 353.754 286.582C342.116 281.565 332.885 274.341 326.062 264.91C319.24 255.479 315.728 244.342 315.527 231.499H360.677C361.279 240.128 364.289 246.95 369.707 251.967C375.326 256.984 382.951 259.492 392.583 259.492C402.416 259.492 410.142 257.184 415.76 252.569C421.379 247.753 424.188 241.532 424.188 233.907C424.188 227.686 422.282 222.569 418.469 218.556C414.657 214.543 409.841 211.432 404.021 209.225C398.403 206.817 390.577 204.208 380.543 201.399C366.898 197.386 355.761 193.473 347.132 189.66C338.704 185.647 331.38 179.727 325.159 171.901C319.139 163.874 316.129 153.239 316.129 139.995C316.129 127.554 319.24 116.718 325.46 107.487C331.681 98.2563 340.41 91.233 351.647 86.417C362.885 81.4003 375.727 78.892 390.175 78.892C411.847 78.892 429.406 84.2097 442.85 94.845C456.496 105.28 464.021 119.928 465.425 138.791H419.071C418.67 131.567 415.56 125.647 409.74 121.032C404.122 116.216 396.597 113.808 387.165 113.808C378.938 113.808 372.316 115.915 367.299 120.129C362.483 124.343 360.075 130.463 360.075 138.49C360.075 144.109 361.881 148.824 365.493 152.637C369.306 156.249 373.921 159.259 379.339 161.667C384.958 163.874 392.784 166.483 402.817 169.493C416.463 173.506 427.6 177.52 436.228 181.533C444.857 185.546 452.282 191.566 458.502 199.593C464.723 207.62 467.833 218.155 467.833 231.198C467.833 242.435 464.924 252.87 459.104 262.502C453.285 272.134 444.757 279.86 433.519 285.679C422.282 291.298 408.938 294.107 393.486 294.107Z" fill="#79E039"/>
<path d="M108.888 54.9459C110.274 53.5781 112.142 52.8112 114.09 52.8112L213.567 52.811C220.191 52.811 223.482 60.842 218.764 65.4902L66.5167 215.467C63.6043 218.336 58.9178 218.302 56.0477 215.391L7.13746 165.779C4.26779 162.868 4.29971 158.183 7.20877 155.311L108.888 54.9459Z" fill="#83E247"/>
<path d="M115.161 318.479C113.775 319.847 111.906 320.614 109.959 320.614L10.4814 320.614C3.858 320.614 0.566683 312.583 5.28521 307.935L157.532 157.957C160.445 155.088 165.131 155.123 168.001 158.034L216.911 207.646C219.781 210.557 219.749 215.242 216.84 218.114L115.161 318.479Z" fill="white"/>
</svg>
