<svg width="133" height="38" viewBox="0 0 133 38" fill="none" xmlns="http://www.w3.org/2000/svg">
<path d="M132.053 8.17676V29.1528H127.846V8.17676H132.053Z" fill="#FFF9DC"/>
<path d="M124.863 8.17676V11.5726H116.118V16.9518H122.82V20.2875H116.118V29.1528H111.911V8.17676H124.863Z" fill="#FFF9DC"/>
<path d="M100.122 11.5726V16.8316H107.184V20.1674H100.122V25.7269H108.086V29.1528H95.915V8.14673H108.086V11.5726H100.122Z" fill="#FFF9DC"/>
<path d="M91.7591 29.1528H87.5519L78.0256 14.7581V29.1528H73.8184V8.14673H78.0256L87.5519 22.5715V8.14673H91.7591V29.1528Z" fill="#FFF9DC"/>
<path d="M59.9596 29.3631C57.9963 29.3631 56.1932 28.9023 54.5504 27.9807C52.9075 27.0591 51.6053 25.787 50.6436 24.1642C49.682 22.5214 49.2012 20.6682 49.2012 18.6046C49.2012 16.5611 49.682 14.728 50.6436 13.1052C51.6053 11.4624 52.9075 10.1802 54.5504 9.25859C56.1932 8.33701 57.9963 7.87622 59.9596 7.87622C61.943 7.87622 63.7461 8.33701 65.3689 9.25859C67.0117 10.1802 68.304 11.4624 69.2456 13.1052C70.2072 14.728 70.688 16.5611 70.688 18.6046C70.688 20.6682 70.2072 22.5214 69.2456 24.1642C68.304 25.787 67.0117 27.0591 65.3689 27.9807C63.7261 28.9023 61.923 29.3631 59.9596 29.3631ZM59.9596 25.6066C61.2218 25.6066 62.3337 25.3262 63.2954 24.7652C64.257 24.1842 65.0083 23.3628 65.5492 22.301C66.0902 21.2392 66.3606 20.007 66.3606 18.6046C66.3606 17.2022 66.0902 15.9801 65.5492 14.9383C65.0083 13.8765 64.257 13.0651 63.2954 12.5042C62.3337 11.9432 61.2218 11.6627 59.9596 11.6627C58.6975 11.6627 57.5755 11.9432 56.5939 12.5042C55.6322 13.0651 54.8809 13.8765 54.34 14.9383C53.7991 15.9801 53.5286 17.2022 53.5286 18.6046C53.5286 20.007 53.7991 21.2392 54.34 22.301C54.8809 23.3628 55.6322 24.1842 56.5939 24.7652C57.5755 25.3262 58.6975 25.6066 59.9596 25.6066Z" fill="#FFF9DC"/>
<path d="M39.1515 29.3631C37.689 29.3631 36.3667 29.1127 35.1847 28.6118C34.0227 28.1109 33.1011 27.3897 32.42 26.4481C31.7388 25.5065 31.3882 24.3946 31.3682 23.1124H35.8759C35.936 23.9738 36.2365 24.655 36.7774 25.1559C37.3384 25.6567 38.0997 25.9072 39.0614 25.9072C40.043 25.9072 40.8144 25.6768 41.3753 25.216C41.9363 24.7352 42.2168 24.1141 42.2168 23.3528C42.2168 22.7317 42.0265 22.2208 41.6458 21.8201C41.2651 21.4195 40.7843 21.1089 40.2033 20.8885C39.6424 20.6481 38.861 20.3877 37.8593 20.1072C36.497 19.7065 35.3851 19.3159 34.5236 18.9352C33.6821 18.5345 32.9509 17.9435 32.3298 17.1622C31.7288 16.3608 31.4283 15.299 31.4283 13.9767C31.4283 12.7346 31.7388 11.6527 32.3599 10.7311C32.9809 9.80954 33.8524 9.10833 34.9744 8.62751C36.0963 8.12665 37.3785 7.87622 38.821 7.87622C40.9847 7.87622 42.7377 8.40713 44.08 9.46895C45.4423 10.5107 46.1936 11.9733 46.3338 13.8565H41.7059C41.6658 13.1352 41.3553 12.5442 40.7743 12.0834C40.2133 11.6026 39.4621 11.3622 38.5204 11.3622C37.699 11.3622 37.0379 11.5726 36.537 11.9933C36.0562 12.414 35.8158 13.0251 35.8158 13.8264C35.8158 14.3874 35.9961 14.8582 36.3567 15.2389C36.7374 15.5995 37.1982 15.9 37.7391 16.1404C38.3001 16.3608 39.0814 16.6212 40.0831 16.9217C41.4455 17.3224 42.5574 17.7231 43.4188 18.1238C44.2803 18.5245 45.0216 19.1255 45.6427 19.9269C46.2637 20.7283 46.5743 21.7801 46.5743 23.0823C46.5743 24.2042 46.2838 25.246 45.7028 26.2077C45.1218 27.1693 44.2703 27.9407 43.1484 28.5216C42.0265 29.0826 40.6942 29.3631 39.1515 29.3631Z" fill="#FFF9DC"/>
<path d="M10.8711 5.48575C11.0095 5.34919 11.196 5.27262 11.3904 5.27262L21.3222 5.2726C21.9835 5.2726 22.3121 6.07441 21.841 6.53848L6.64079 21.5121C6.35002 21.7985 5.88213 21.7951 5.59557 21.5044L0.712424 16.5512C0.425919 16.2606 0.429107 15.7928 0.719544 15.5061L10.8711 5.48575Z" fill="#0DAB0C"/>
<path d="M11.498 31.7967C11.3597 31.9333 11.1731 32.0099 10.9787 32.0099L1.04694 32.0099C0.38566 32.0099 0.0570576 31.2081 0.528151 30.744L15.7283 15.7704C16.0191 15.484 16.487 15.4874 16.7736 15.7781L21.6567 20.7312C21.9432 21.0219 21.94 21.4897 21.6496 21.7764L11.498 31.7967Z" fill="#FFF9DC"/>
</svg>
