<svg width="229" height="39" viewBox="0 0 229 39" fill="none" xmlns="http://www.w3.org/2000/svg">
<path d="M152.65 22.08V19.08H157.9C158.62 19.08 159.25 18.94 159.79 18.66C160.35 18.36 160.79 17.95 161.11 17.43C161.43 16.89 161.59 16.26 161.59 15.54C161.59 14.82 161.43 14.2 161.11 13.68C160.79 13.14 160.35 12.73 159.79 12.45C159.25 12.15 158.62 12 157.9 12H152.65V9H158.08C159.4 9 160.58 9.27 161.62 9.81C162.68 10.35 163.51 11.11 164.11 12.09C164.73 13.07 165.04 14.22 165.04 15.54C165.04 16.86 164.73 18.01 164.11 18.99C163.51 19.97 162.68 20.73 161.62 21.27C160.58 21.81 159.4 22.08 158.08 22.08H152.65ZM150.28 30V9H153.73V30H150.28ZM168.151 30V9H171.601V30H168.151ZM170.521 30V26.85H182.281V30H170.521ZM170.521 20.79V17.76H181.261V20.79H170.521ZM170.521 12.15V9H182.131V12.15H170.521ZM188.216 21.09V18.24H193.526C194.586 18.24 195.406 17.97 195.986 17.43C196.586 16.87 196.886 16.1 196.886 15.12C196.886 14.24 196.596 13.5 196.016 12.9C195.436 12.3 194.616 12 193.556 12H188.216V9H193.706C195.026 9 196.186 9.27 197.186 9.81C198.186 10.33 198.956 11.05 199.496 11.97C200.056 12.87 200.336 13.9 200.336 15.06C200.336 16.28 200.056 17.34 199.496 18.24C198.956 19.14 198.186 19.84 197.186 20.34C196.186 20.84 195.026 21.09 193.706 21.09H188.216ZM185.846 30V9H189.296V30H185.846ZM197.366 30L190.016 20.88L193.226 19.71L201.716 30H197.366ZM206.644 22.08V19.08H211.894C212.614 19.08 213.244 18.94 213.784 18.66C214.344 18.36 214.784 17.95 215.104 17.43C215.424 16.89 215.584 16.26 215.584 15.54C215.584 14.82 215.424 14.2 215.104 13.68C214.784 13.14 214.344 12.73 213.784 12.45C213.244 12.15 212.614 12 211.894 12H206.644V9H212.074C213.394 9 214.574 9.27 215.614 9.81C216.674 10.35 217.504 11.11 218.104 12.09C218.724 13.07 219.034 14.22 219.034 15.54C219.034 16.86 218.724 18.01 218.104 18.99C217.504 19.97 216.674 20.73 215.614 21.27C214.574 21.81 213.394 22.08 212.074 22.08H206.644ZM204.274 30V9H207.724V30H204.274Z" fill="#83E247" fill-opacity="0.8"/>
<path opacity="0.3" d="M142 12H141V28.9671H142V12Z" fill="white" fill-opacity="0.8"/>
<path d="M132.053 9.17676V30.1528H127.846V9.17676H132.053Z" fill="#FFF9DC"/>
<path d="M124.863 9.17676V12.5726H116.118V17.9518H122.82V21.2875H116.118V30.1528H111.911V9.17676H124.863Z" fill="#FFF9DC"/>
<path d="M100.122 12.5726V17.8316H107.184V21.1674H100.122V26.7269H108.086V30.1528H95.915V9.14673H108.086V12.5726H100.122Z" fill="#FFF9DC"/>
<path d="M91.7591 30.1528H87.5519L78.0256 15.7581V30.1528H73.8184V9.14673H78.0256L87.5519 23.5715V9.14673H91.7591V30.1528Z" fill="#FFF9DC"/>
<path d="M59.9596 30.3631C57.9963 30.3631 56.1932 29.9023 54.5504 28.9807C52.9075 28.0591 51.6053 26.787 50.6436 25.1642C49.682 23.5214 49.2012 21.6682 49.2012 19.6046C49.2012 17.5611 49.682 15.728 50.6436 14.1052C51.6053 12.4624 52.9075 11.1802 54.5504 10.2586C56.1932 9.33701 57.9963 8.87622 59.9596 8.87622C61.943 8.87622 63.7461 9.33701 65.3689 10.2586C67.0117 11.1802 68.304 12.4624 69.2456 14.1052C70.2072 15.728 70.688 17.5611 70.688 19.6046C70.688 21.6682 70.2072 23.5214 69.2456 25.1642C68.304 26.787 67.0117 28.0591 65.3689 28.9807C63.7261 29.9023 61.923 30.3631 59.9596 30.3631ZM59.9596 26.6066C61.2218 26.6066 62.3337 26.3262 63.2954 25.7652C64.257 25.1842 65.0083 24.3628 65.5492 23.301C66.0902 22.2392 66.3606 21.007 66.3606 19.6046C66.3606 18.2022 66.0902 16.9801 65.5492 15.9383C65.0083 14.8765 64.257 14.0651 63.2954 13.5042C62.3337 12.9432 61.2218 12.6627 59.9596 12.6627C58.6975 12.6627 57.5755 12.9432 56.5939 13.5042C55.6322 14.0651 54.8809 14.8765 54.34 15.9383C53.7991 16.9801 53.5286 18.2022 53.5286 19.6046C53.5286 21.007 53.7991 22.2392 54.34 23.301C54.8809 24.3628 55.6322 25.1842 56.5939 25.7652C57.5755 26.3262 58.6975 26.6066 59.9596 26.6066Z" fill="#FFF9DC"/>
<path d="M39.1515 30.3631C37.689 30.3631 36.3667 30.1127 35.1847 29.6118C34.0227 29.1109 33.1011 28.3897 32.42 27.4481C31.7388 26.5065 31.3882 25.3946 31.3682 24.1124H35.8759C35.936 24.9738 36.2365 25.655 36.7774 26.1559C37.3384 26.6567 38.0997 26.9072 39.0614 26.9072C40.043 26.9072 40.8144 26.6768 41.3753 26.216C41.9363 25.7352 42.2168 25.1141 42.2168 24.3528C42.2168 23.7317 42.0265 23.2208 41.6458 22.8201C41.2651 22.4195 40.7843 22.1089 40.2033 21.8885C39.6424 21.6481 38.861 21.3877 37.8593 21.1072C36.497 20.7065 35.3851 20.3159 34.5236 19.9352C33.6821 19.5345 32.9509 18.9435 32.3298 18.1622C31.7288 17.3608 31.4283 16.299 31.4283 14.9767C31.4283 13.7346 31.7388 12.6527 32.3599 11.7311C32.9809 10.8095 33.8524 10.1083 34.9744 9.62751C36.0963 9.12665 37.3785 8.87622 38.821 8.87622C40.9847 8.87622 42.7377 9.40713 44.08 10.469C45.4423 11.5107 46.1936 12.9733 46.3338 14.8565H41.7059C41.6658 14.1352 41.3553 13.5442 40.7743 13.0834C40.2133 12.6026 39.4621 12.3622 38.5204 12.3622C37.699 12.3622 37.0379 12.5726 36.537 12.9933C36.0562 13.414 35.8158 14.0251 35.8158 14.8264C35.8158 15.3874 35.9961 15.8582 36.3567 16.2389C36.7374 16.5995 37.1982 16.9 37.7391 17.1404C38.3001 17.3608 39.0814 17.6212 40.0831 17.9217C41.4455 18.3224 42.5574 18.7231 43.4188 19.1238C44.2803 19.5245 45.0216 20.1255 45.6427 20.9269C46.2637 21.7283 46.5743 22.7801 46.5743 24.0823C46.5743 25.2042 46.2838 26.246 45.7028 27.2077C45.1218 28.1693 44.2703 28.9407 43.1484 29.5216C42.0265 30.0826 40.6942 30.3631 39.1515 30.3631Z" fill="#FFF9DC"/>
<path d="M10.8711 6.48575C11.0095 6.34919 11.196 6.27262 11.3904 6.27262L21.3222 6.2726C21.9835 6.2726 22.3121 7.07441 21.841 7.53848L6.64079 22.5121C6.35002 22.7985 5.88213 22.7951 5.59557 22.5044L0.712424 17.5512C0.425919 17.2606 0.429107 16.7928 0.719544 16.5061L10.8711 6.48575Z" fill="#0DAB0C"/>
<path d="M11.498 32.7967C11.3597 32.9333 11.1731 33.0099 10.9787 33.0099L1.04694 33.0099C0.38566 33.0099 0.0570576 32.2081 0.528151 31.744L15.7283 16.7704C16.0191 16.484 16.487 16.4874 16.7736 16.7781L21.6567 21.7312C21.9432 22.0219 21.94 22.4897 21.6496 22.7764L11.498 32.7967Z" fill="#FFF9DC"/>
</svg>
